<svg width="631" height="346" viewBox="0 0 631 346" fill="none" xmlns="http://www.w3.org/2000/svg">
<g opacity="0.05">
<path fill-rule="evenodd" clip-rule="evenodd" d="M20.1688 180.03C26.0209 168.771 34.5064 158.879 43.526 150.619C53.5952 141.201 65.2043 133.256 77.8632 127.574C90.2367 122.365 103.572 119.103 117.094 120.365C130.766 121.523 143.666 127.574 154.361 137.728L308.265 345.818H61.3676C44.8208 342.556 28.9908 334.295 18.0584 319.932C8.41703 306.988 2.80635 290.573 0.937334 274.052C-0.982886 256.9 0.0741457 239.221 3.85972 222.542C7.12227 207.495 12.2538 192.658 20.1688 179.977V180.03Z" fill="#08A03F"/>
<path fill-rule="evenodd" clip-rule="evenodd" d="M612.671 319.99C601.736 334.354 585.477 342.825 568.931 345.877H322.655L476.799 137.787C487.063 127.632 499.964 121.582 513.872 120.424C526.966 119.214 540.538 122.476 552.96 127.632C565.622 133.262 577.132 141.26 587.443 150.678C596.508 158.938 605.045 168.777 610.848 180.089C618.81 192.769 623.702 207.606 626.915 222.654C630.608 239.332 631.855 257.011 629.745 274.163C628.018 290.684 622.598 307.1 612.767 320.043L612.671 319.99Z" fill="#08A03F"/>
<path fill-rule="evenodd" clip-rule="evenodd" d="M315.617 344.521L205.643 107.125C201.759 93.2876 202.382 78.0297 207.322 64.6127C212.262 51.6696 221.087 40.3576 231.158 31.4659C241.422 22.0479 253.22 14.5241 265.833 9.31525C276.96 4.47474 289.19 1.16008 301.228 0.633931C315.76 -0.997111 330.724 0.633894 344.92 4.21168C360.987 8.21037 376.43 14.5766 390.338 24.205C403.192 32.8864 415.038 45.356 421.848 60.4036C428.946 76.6089 429.33 95.4447 424.63 112.86L315.52 344.574L315.617 344.521Z" fill="#08A03F"/>
</g>
</svg>
