<svg width="862" height="1080" viewBox="0 0 862 1080" fill="none" xmlns="http://www.w3.org/2000/svg">
<g opacity="0.05">
<path fill-rule="evenodd" clip-rule="evenodd" d="M448.675 1347.26C420.614 1331.26 395.963 1308.06 375.376 1283.4C351.904 1255.87 332.104 1224.13 317.942 1189.52C304.961 1155.69 296.831 1119.23 299.978 1082.26C302.863 1044.88 317.942 1009.61 343.25 980.371L861.854 559.587L861.854 1234.62C853.725 1279.86 833.138 1323.14 797.34 1353.03C765.083 1379.39 724.172 1394.73 682.998 1399.84C640.251 1405.09 596.192 1402.2 554.625 1391.85C517.123 1382.93 480.146 1368.9 448.544 1347.26L448.675 1347.26Z" fill="#08A03F"/>
<path fill-rule="evenodd" clip-rule="evenodd" d="M797.486 -272.675C833.284 -242.778 854.395 -198.326 862 -153.087L862 520.246L343.396 98.806C318.088 70.745 303.009 35.4721 300.124 -2.55455C297.108 -38.352 305.238 -75.4607 318.088 -109.422C332.119 -144.04 352.05 -175.51 375.522 -203.702C396.108 -228.485 420.629 -251.826 448.821 -267.692C480.423 -289.459 517.4 -302.834 554.902 -311.619C596.469 -321.716 640.528 -325.125 683.275 -319.356C724.449 -314.635 765.36 -299.818 797.617 -272.937L797.486 -272.675Z" fill="#08A03F"/>
<path fill-rule="evenodd" clip-rule="evenodd" d="M858.621 539.488L266.979 840.161C232.493 850.782 194.467 849.078 161.029 835.572C128.772 822.066 100.58 797.938 78.4198 770.402C54.9482 742.341 36.1972 710.084 23.2157 675.598C11.1521 645.176 2.89123 611.739 1.57996 578.826C-2.48495 539.095 1.57987 498.184 10.4965 459.37C20.4621 415.443 36.3282 373.22 60.3243 335.194C81.9601 300.052 113.037 267.664 150.539 249.044C190.926 229.637 237.869 228.588 281.272 241.438L858.752 539.751L858.621 539.488Z" fill="#08A03F"/>
</g>
</svg>
