<svg width="409" height="409" viewBox="0 0 409 409" fill="none" xmlns="http://www.w3.org/2000/svg">
<g clip-path="url(#clip0_557_2)">
<g opacity="0.5" filter="url(#filter0_d_557_2)">
<path d="M204.189 402.25C315.198 402.25 405.189 312.259 405.189 201.25C405.189 90.2408 315.198 0.25 204.189 0.25C93.1798 0.25 3.18903 90.2408 3.18903 201.25C3.18903 312.259 93.1798 402.25 204.189 402.25Z" stroke="url(#paint0_linear_557_2)" stroke-width="0.5"/>
</g>
<g opacity="0.5" filter="url(#filter1_d_557_2)">
<path d="M204.189 388.68C307.704 388.68 391.619 304.765 391.619 201.25C391.619 97.7352 307.704 13.8199 204.189 13.8199C100.674 13.8199 16.759 97.7352 16.759 201.25C16.759 304.765 100.674 388.68 204.189 388.68Z" stroke="url(#paint1_linear_557_2)" stroke-width="0.5"/>
</g>
<g opacity="0.5" filter="url(#filter2_d_557_2)">
<path d="M204.189 375.676C300.522 375.676 378.615 297.583 378.615 201.25C378.615 104.917 300.522 26.824 204.189 26.824C107.856 26.824 29.763 104.917 29.763 201.25C29.763 297.583 107.856 375.676 204.189 375.676Z" stroke="url(#paint2_linear_557_2)" stroke-width="0.5"/>
</g>
<g opacity="0.5" filter="url(#filter3_d_557_2)">
<path d="M204.188 365.499C294.9 365.499 368.437 291.962 368.437 201.25C368.437 110.538 294.9 37.001 204.188 37.001C113.476 37.001 39.939 110.538 39.939 201.25C39.939 291.962 113.476 365.499 204.188 365.499Z" stroke="url(#paint3_linear_557_2)" stroke-width="0.5"/>
</g>
<g opacity="0.5" filter="url(#filter4_d_557_2)">
<path d="M204.189 352.777C287.875 352.777 355.716 284.936 355.716 201.25C355.716 117.564 287.875 49.723 204.189 49.723C120.503 49.723 52.662 117.564 52.662 201.25C52.662 284.936 120.503 352.777 204.189 352.777Z" stroke="url(#paint4_linear_557_2)" stroke-width="0.5"/>
</g>
<g opacity="0.8" filter="url(#filter5_d_557_2)">
<path d="M204.188 343.166C282.566 343.166 346.104 279.628 346.104 201.25C346.104 122.872 282.566 59.334 204.188 59.334C125.81 59.334 62.272 122.872 62.272 201.25C62.272 279.628 125.81 343.166 204.188 343.166Z" stroke="url(#paint5_linear_557_2)" stroke-width="0.5"/>
</g>
<g opacity="0.7" filter="url(#filter6_d_557_2)">
<path d="M204.189 332.988C276.946 332.988 335.927 274.007 335.927 201.25C335.927 128.493 276.946 69.512 204.189 69.512C131.432 69.512 72.451 128.493 72.451 201.25C72.451 274.007 131.432 332.988 204.189 332.988Z" stroke="url(#paint6_linear_557_2)" stroke-width="0.5"/>
</g>
<g opacity="0.5" filter="url(#filter7_d_557_2)">
<path d="M204.19 322.528C271.17 322.528 325.468 268.23 325.468 201.25C325.468 134.27 271.17 79.972 204.19 79.972C137.21 79.972 82.912 134.27 82.912 201.25C82.912 268.23 137.21 322.528 204.19 322.528Z" stroke="url(#paint7_linear_557_2)" stroke-width="0.5"/>
</g>
<g opacity="0.5" filter="url(#filter8_d_557_2)">
<path d="M204.188 311.503C265.079 311.503 314.441 262.141 314.441 201.25C314.441 140.359 265.079 90.9969 204.188 90.9969C143.297 90.9969 93.935 140.359 93.935 201.25C93.935 262.141 143.297 311.503 204.188 311.503Z" stroke="url(#paint8_linear_557_2)" stroke-width="0.5"/>
</g>
<g opacity="0.5" filter="url(#filter9_d_557_2)">
<path d="M204.189 302.25C259.97 302.25 305.189 257.031 305.189 201.25C305.189 145.469 259.97 100.25 204.189 100.25C148.408 100.25 103.189 145.469 103.189 201.25C103.189 257.031 148.408 302.25 204.189 302.25Z" stroke="url(#paint9_linear_557_2)" stroke-width="0.5"/>
</g>
<g opacity="0.4" filter="url(#filter10_d_557_2)">
<path d="M204.188 293.976C255.399 293.976 296.914 252.461 296.914 201.25C296.914 150.039 255.399 108.524 204.188 108.524C152.977 108.524 111.462 150.039 111.462 201.25C111.462 252.461 152.977 293.976 204.188 293.976Z" stroke="url(#paint10_linear_557_2)" stroke-width="0.5"/>
</g>
<g opacity="0.3" filter="url(#filter11_d_557_2)">
<path d="M204.188 286.06C251.027 286.06 288.998 248.089 288.998 201.25C288.998 154.411 251.027 116.44 204.188 116.44C157.349 116.44 119.378 154.411 119.378 201.25C119.378 248.089 157.349 286.06 204.188 286.06Z" stroke="url(#paint11_linear_557_2)" stroke-width="0.5"/>
</g>
<g opacity="0.5" filter="url(#filter12_d_557_2)">
<path d="M204.189 276.731C245.876 276.731 279.67 242.937 279.67 201.25C279.67 159.563 245.876 125.769 204.189 125.769C162.502 125.769 128.708 159.563 128.708 201.25C128.708 242.937 162.502 276.731 204.189 276.731Z" stroke="url(#paint12_linear_557_2)" stroke-width="0.5"/>
</g>
<g opacity="0.1" filter="url(#filter13_d_557_2)">
<path d="M204.189 276.731C245.876 276.731 279.67 242.937 279.67 201.25C279.67 159.563 245.876 125.769 204.189 125.769C162.502 125.769 128.708 159.563 128.708 201.25C128.708 242.937 162.502 276.731 204.189 276.731Z" stroke="url(#paint13_linear_557_2)" stroke-width="0.5"/>
</g>
<g opacity="0.2" filter="url(#filter14_d_557_2)">
<path d="M204.189 266.271C240.099 266.271 269.21 237.16 269.21 201.25C269.21 165.34 240.099 136.229 204.189 136.229C168.279 136.229 139.168 165.34 139.168 201.25C139.168 237.16 168.279 266.271 204.189 266.271Z" stroke="url(#paint14_linear_557_2)" stroke-width="0.5"/>
</g>
<g opacity="0.5" filter="url(#filter15_d_557_2)">
<path d="M204.189 254.963C233.854 254.963 257.902 230.915 257.902 201.25C257.902 171.585 233.854 147.537 204.189 147.537C174.524 147.537 150.476 171.585 150.476 201.25C150.476 230.915 174.524 254.963 204.189 254.963Z" stroke="url(#paint15_linear_557_2)" stroke-width="0.5"/>
</g>
<g opacity="0.5" filter="url(#filter16_d_557_2)">
<path d="M204.19 247.896C229.952 247.896 250.836 227.012 250.836 201.25C250.836 175.488 229.952 154.604 204.19 154.604C178.428 154.604 157.544 175.488 157.544 201.25C157.544 227.012 178.428 247.896 204.19 247.896Z" stroke="url(#paint16_linear_557_2)" stroke-width="0.5"/>
</g>
<g opacity="0.2" filter="url(#filter17_d_557_2)">
<path d="M204.188 241.111C226.203 241.111 244.049 223.264 244.049 201.25C244.049 179.235 226.203 161.389 204.188 161.389C182.174 161.389 164.327 179.235 164.327 201.25C164.327 223.264 182.174 241.111 204.188 241.111Z" stroke="url(#paint17_linear_557_2)" stroke-width="0.5"/>
</g>
<g opacity="0.2" filter="url(#filter18_d_557_2)">
<path d="M204.19 233.76C222.145 233.76 236.701 219.205 236.701 201.25C236.701 183.295 222.145 168.74 204.19 168.74C186.235 168.74 171.68 183.295 171.68 201.25C171.68 219.205 186.235 233.76 204.19 233.76Z" stroke="url(#paint18_linear_557_2)" stroke-width="0.5"/>
</g>
<g opacity="0.1" filter="url(#filter19_d_557_2)">
<path d="M204.189 225.279C217.46 225.279 228.218 214.521 228.218 201.25C228.218 187.979 217.46 177.22 204.189 177.22C190.918 177.22 180.159 187.979 180.159 201.25C180.159 214.521 190.918 225.279 204.189 225.279Z" stroke="url(#paint19_linear_557_2)" stroke-width="0.5"/>
</g>
<g opacity="0.1" filter="url(#filter20_d_557_2)">
<path d="M204.19 218.212C213.558 218.212 221.152 210.618 221.152 201.25C221.152 191.882 213.558 184.288 204.19 184.288C194.822 184.288 187.228 191.882 187.228 201.25C187.228 210.618 194.822 218.212 204.19 218.212Z" stroke="url(#paint20_linear_557_2)" stroke-width="0.5"/>
</g>
<g opacity="0.1" filter="url(#filter21_d_557_2)">
<path d="M204.19 213.689C211.06 213.689 216.629 208.12 216.629 201.25C216.629 194.38 211.06 188.811 204.19 188.811C197.32 188.811 191.751 194.38 191.751 201.25C191.751 208.12 197.32 213.689 204.19 213.689Z" stroke="url(#paint21_linear_557_2)" stroke-width="0.5"/>
</g>
<g filter="url(#filter22_d_557_2)">
<path fill-rule="evenodd" clip-rule="evenodd" d="M188.45 203.856C188.58 204.352 188.835 204.826 189.128 205.243C189.454 205.716 189.859 206.15 190.332 206.509C190.797 206.847 191.323 207.122 191.903 207.225C192.487 207.335 193.09 207.248 193.643 206.98L202.226 200.757L191.875 197.984C191.148 197.922 190.4 198.06 189.794 198.486C189.257 198.873 188.854 199.437 188.606 200.047C188.35 200.681 188.214 201.369 188.202 202.049C188.184 202.66 188.248 203.285 188.449 203.858L188.45 203.856Z" fill="url(#paint22_linear_557_2)"/>
<path fill-rule="evenodd" clip-rule="evenodd" d="M214.723 205.164C214.411 204.492 213.817 203.986 213.154 203.683L202.829 200.917L207.161 210.6C207.487 211.104 207.966 211.48 208.537 211.68C209.074 211.874 209.676 211.901 210.25 211.844C210.838 211.771 211.403 211.595 211.931 211.351C212.396 211.137 212.855 210.857 213.214 210.49C213.677 210.094 214.034 209.582 214.323 209.043C214.649 208.448 214.882 207.786 214.969 207.107C215.066 206.456 215.007 205.768 214.727 205.163L214.723 205.164Z" fill="url(#paint23_linear_557_2)"/>
<path fill-rule="evenodd" clip-rule="evenodd" d="M202.52 200.89L195.479 208.726C195.174 209.212 195.044 209.802 195.114 210.37C195.188 210.92 195.442 211.451 195.773 211.904C196.107 212.379 196.525 212.8 197 213.14C197.417 213.45 197.896 213.714 198.395 213.87C198.988 214.095 199.632 214.201 200.264 214.224C200.978 214.251 201.691 214.182 202.372 213.97C203 213.783 203.625 213.439 204.064 212.941C204.528 212.401 204.737 211.685 204.718 210.967L202.516 200.887L202.52 200.89Z" fill="url(#paint24_linear_557_2)"/>
<path fill-rule="evenodd" clip-rule="evenodd" d="M190.587 195.52C190.904 196.18 191.476 196.691 192.138 196.994L202.489 199.767L198.17 190.076C197.823 189.578 197.348 189.188 196.784 189C196.229 188.804 195.639 188.771 195.065 188.839C194.476 188.912 193.91 189.077 193.389 189.334C192.926 189.548 192.468 189.828 192.111 190.187C191.649 190.583 191.277 191.11 190.989 191.639C190.658 192.233 190.435 192.887 190.339 193.574C190.25 194.227 190.313 194.925 190.587 195.522V195.52Z" fill="url(#paint25_linear_557_2)"/>
<path fill-rule="evenodd" clip-rule="evenodd" d="M213.42 202.696C214.142 202.765 214.915 202.615 215.518 202.201C216.061 201.822 216.458 201.248 216.7 200.636C216.966 199.996 217.091 199.314 217.109 198.636C217.125 198.035 217.078 197.393 216.873 196.821C216.743 196.331 216.486 195.859 216.191 195.442C215.86 194.957 215.454 194.533 214.981 194.174C214.516 193.827 213.981 193.557 213.417 193.455C212.825 193.333 212.223 193.426 211.687 193.696L203.091 199.927L213.416 202.693L213.42 202.696Z" fill="url(#paint26_linear_557_2)"/>
<path fill-rule="evenodd" clip-rule="evenodd" d="M202.815 199.786L209.761 192.159C210.137 191.544 210.31 190.823 210.181 190.123C210.048 189.471 209.679 188.87 209.231 188.385C208.744 187.869 208.162 187.444 207.534 187.103C206.975 186.807 206.365 186.576 205.739 186.476C205.227 186.369 204.678 186.364 204.164 186.418C203.577 186.491 203.01 186.63 202.481 186.883C201.964 187.117 201.482 187.443 201.142 187.882C200.796 188.345 200.618 188.907 200.636 189.49L202.82 199.781L202.815 199.786Z" fill="url(#paint27_linear_557_2)"/>
</g>
</g>
<defs>
<filter id="filter0_d_557_2" x="0.00024581" y="0" width="408.378" height="408.378" filterUnits="userSpaceOnUse" color-interpolation-filters="sRGB">
<feFlood flood-opacity="0" result="BackgroundImageFix"/>
<feColorMatrix in="SourceAlpha" type="matrix" values="0 0 0 0 0 0 0 0 0 0 0 0 0 0 0 0 0 0 127 0" result="hardAlpha"/>
<feOffset dy="2.93878"/>
<feGaussianBlur stdDeviation="1.46939"/>
<feComposite in2="hardAlpha" operator="out"/>
<feColorMatrix type="matrix" values="0 0 0 0 0 0 0 0 0 0 0 0 0 0 0 0 0 0 0.25 0"/>
<feBlend mode="normal" in2="BackgroundImageFix" result="effect1_dropShadow_557_2"/>
<feBlend mode="normal" in="SourceGraphic" in2="effect1_dropShadow_557_2" result="shape"/>
</filter>
<filter id="filter1_d_557_2" x="13.5702" y="13.5699" width="381.238" height="381.238" filterUnits="userSpaceOnUse" color-interpolation-filters="sRGB">
<feFlood flood-opacity="0" result="BackgroundImageFix"/>
<feColorMatrix in="SourceAlpha" type="matrix" values="0 0 0 0 0 0 0 0 0 0 0 0 0 0 0 0 0 0 127 0" result="hardAlpha"/>
<feOffset dy="2.93878"/>
<feGaussianBlur stdDeviation="1.46939"/>
<feComposite in2="hardAlpha" operator="out"/>
<feColorMatrix type="matrix" values="0 0 0 0 0 0 0 0 0 0 0 0 0 0 0 0 0 0 0.25 0"/>
<feBlend mode="normal" in2="BackgroundImageFix" result="effect1_dropShadow_557_2"/>
<feBlend mode="normal" in="SourceGraphic" in2="effect1_dropShadow_557_2" result="shape"/>
</filter>
<filter id="filter2_d_557_2" x="26.5742" y="26.574" width="355.23" height="355.23" filterUnits="userSpaceOnUse" color-interpolation-filters="sRGB">
<feFlood flood-opacity="0" result="BackgroundImageFix"/>
<feColorMatrix in="SourceAlpha" type="matrix" values="0 0 0 0 0 0 0 0 0 0 0 0 0 0 0 0 0 0 127 0" result="hardAlpha"/>
<feOffset dy="2.93878"/>
<feGaussianBlur stdDeviation="1.46939"/>
<feComposite in2="hardAlpha" operator="out"/>
<feColorMatrix type="matrix" values="0 0 0 0 0 0 0 0 0 0 0 0 0 0 0 0 0 0 0.25 0"/>
<feBlend mode="normal" in2="BackgroundImageFix" result="effect1_dropShadow_557_2"/>
<feBlend mode="normal" in="SourceGraphic" in2="effect1_dropShadow_557_2" result="shape"/>
</filter>
<filter id="filter3_d_557_2" x="36.7502" y="36.751" width="334.876" height="334.876" filterUnits="userSpaceOnUse" color-interpolation-filters="sRGB">
<feFlood flood-opacity="0" result="BackgroundImageFix"/>
<feColorMatrix in="SourceAlpha" type="matrix" values="0 0 0 0 0 0 0 0 0 0 0 0 0 0 0 0 0 0 127 0" result="hardAlpha"/>
<feOffset dy="2.93878"/>
<feGaussianBlur stdDeviation="1.46939"/>
<feComposite in2="hardAlpha" operator="out"/>
<feColorMatrix type="matrix" values="0 0 0 0 0 0 0 0 0 0 0 0 0 0 0 0 0 0 0.25 0"/>
<feBlend mode="normal" in2="BackgroundImageFix" result="effect1_dropShadow_557_2"/>
<feBlend mode="normal" in="SourceGraphic" in2="effect1_dropShadow_557_2" result="shape"/>
</filter>
<filter id="filter4_d_557_2" x="49.4732" y="49.473" width="309.432" height="309.432" filterUnits="userSpaceOnUse" color-interpolation-filters="sRGB">
<feFlood flood-opacity="0" result="BackgroundImageFix"/>
<feColorMatrix in="SourceAlpha" type="matrix" values="0 0 0 0 0 0 0 0 0 0 0 0 0 0 0 0 0 0 127 0" result="hardAlpha"/>
<feOffset dy="2.93878"/>
<feGaussianBlur stdDeviation="1.46939"/>
<feComposite in2="hardAlpha" operator="out"/>
<feColorMatrix type="matrix" values="0 0 0 0 0 0 0 0 0 0 0 0 0 0 0 0 0 0 0.25 0"/>
<feBlend mode="normal" in2="BackgroundImageFix" result="effect1_dropShadow_557_2"/>
<feBlend mode="normal" in="SourceGraphic" in2="effect1_dropShadow_557_2" result="shape"/>
</filter>
<filter id="filter5_d_557_2" x="59.0832" y="59.084" width="290.21" height="290.21" filterUnits="userSpaceOnUse" color-interpolation-filters="sRGB">
<feFlood flood-opacity="0" result="BackgroundImageFix"/>
<feColorMatrix in="SourceAlpha" type="matrix" values="0 0 0 0 0 0 0 0 0 0 0 0 0 0 0 0 0 0 127 0" result="hardAlpha"/>
<feOffset dy="2.93878"/>
<feGaussianBlur stdDeviation="1.46939"/>
<feComposite in2="hardAlpha" operator="out"/>
<feColorMatrix type="matrix" values="0 0 0 0 0 0 0 0 0 0 0 0 0 0 0 0 0 0 0.25 0"/>
<feBlend mode="normal" in2="BackgroundImageFix" result="effect1_dropShadow_557_2"/>
<feBlend mode="normal" in="SourceGraphic" in2="effect1_dropShadow_557_2" result="shape"/>
</filter>
<filter id="filter6_d_557_2" x="69.2622" y="69.262" width="269.854" height="269.854" filterUnits="userSpaceOnUse" color-interpolation-filters="sRGB">
<feFlood flood-opacity="0" result="BackgroundImageFix"/>
<feColorMatrix in="SourceAlpha" type="matrix" values="0 0 0 0 0 0 0 0 0 0 0 0 0 0 0 0 0 0 127 0" result="hardAlpha"/>
<feOffset dy="2.93878"/>
<feGaussianBlur stdDeviation="1.46939"/>
<feComposite in2="hardAlpha" operator="out"/>
<feColorMatrix type="matrix" values="0 0 0 0 0 0 0 0 0 0 0 0 0 0 0 0 0 0 0.25 0"/>
<feBlend mode="normal" in2="BackgroundImageFix" result="effect1_dropShadow_557_2"/>
<feBlend mode="normal" in="SourceGraphic" in2="effect1_dropShadow_557_2" result="shape"/>
</filter>
<filter id="filter7_d_557_2" x="79.7232" y="79.722" width="248.934" height="248.934" filterUnits="userSpaceOnUse" color-interpolation-filters="sRGB">
<feFlood flood-opacity="0" result="BackgroundImageFix"/>
<feColorMatrix in="SourceAlpha" type="matrix" values="0 0 0 0 0 0 0 0 0 0 0 0 0 0 0 0 0 0 127 0" result="hardAlpha"/>
<feOffset dy="2.93878"/>
<feGaussianBlur stdDeviation="1.46939"/>
<feComposite in2="hardAlpha" operator="out"/>
<feColorMatrix type="matrix" values="0 0 0 0 0 0 0 0 0 0 0 0 0 0 0 0 0 0 0.25 0"/>
<feBlend mode="normal" in2="BackgroundImageFix" result="effect1_dropShadow_557_2"/>
<feBlend mode="normal" in="SourceGraphic" in2="effect1_dropShadow_557_2" result="shape"/>
</filter>
<filter id="filter8_d_557_2" x="90.7462" y="90.7469" width="226.884" height="226.884" filterUnits="userSpaceOnUse" color-interpolation-filters="sRGB">
<feFlood flood-opacity="0" result="BackgroundImageFix"/>
<feColorMatrix in="SourceAlpha" type="matrix" values="0 0 0 0 0 0 0 0 0 0 0 0 0 0 0 0 0 0 127 0" result="hardAlpha"/>
<feOffset dy="2.93878"/>
<feGaussianBlur stdDeviation="1.46939"/>
<feComposite in2="hardAlpha" operator="out"/>
<feColorMatrix type="matrix" values="0 0 0 0 0 0 0 0 0 0 0 0 0 0 0 0 0 0 0.25 0"/>
<feBlend mode="normal" in2="BackgroundImageFix" result="effect1_dropShadow_557_2"/>
<feBlend mode="normal" in="SourceGraphic" in2="effect1_dropShadow_557_2" result="shape"/>
</filter>
<filter id="filter9_d_557_2" x="100" y="100" width="208.378" height="208.378" filterUnits="userSpaceOnUse" color-interpolation-filters="sRGB">
<feFlood flood-opacity="0" result="BackgroundImageFix"/>
<feColorMatrix in="SourceAlpha" type="matrix" values="0 0 0 0 0 0 0 0 0 0 0 0 0 0 0 0 0 0 127 0" result="hardAlpha"/>
<feOffset dy="2.93878"/>
<feGaussianBlur stdDeviation="1.46939"/>
<feComposite in2="hardAlpha" operator="out"/>
<feColorMatrix type="matrix" values="0 0 0 0 0 0 0 0 0 0 0 0 0 0 0 0 0 0 0.25 0"/>
<feBlend mode="normal" in2="BackgroundImageFix" result="effect1_dropShadow_557_2"/>
<feBlend mode="normal" in="SourceGraphic" in2="effect1_dropShadow_557_2" result="shape"/>
</filter>
<filter id="filter10_d_557_2" x="108.274" y="108.274" width="191.829" height="191.829" filterUnits="userSpaceOnUse" color-interpolation-filters="sRGB">
<feFlood flood-opacity="0" result="BackgroundImageFix"/>
<feColorMatrix in="SourceAlpha" type="matrix" values="0 0 0 0 0 0 0 0 0 0 0 0 0 0 0 0 0 0 127 0" result="hardAlpha"/>
<feOffset dy="2.93878"/>
<feGaussianBlur stdDeviation="1.46939"/>
<feComposite in2="hardAlpha" operator="out"/>
<feColorMatrix type="matrix" values="0 0 0 0 0 0 0 0 0 0 0 0 0 0 0 0 0 0 0.25 0"/>
<feBlend mode="normal" in2="BackgroundImageFix" result="effect1_dropShadow_557_2"/>
<feBlend mode="normal" in="SourceGraphic" in2="effect1_dropShadow_557_2" result="shape"/>
</filter>
<filter id="filter11_d_557_2" x="116.189" y="116.19" width="175.998" height="175.998" filterUnits="userSpaceOnUse" color-interpolation-filters="sRGB">
<feFlood flood-opacity="0" result="BackgroundImageFix"/>
<feColorMatrix in="SourceAlpha" type="matrix" values="0 0 0 0 0 0 0 0 0 0 0 0 0 0 0 0 0 0 127 0" result="hardAlpha"/>
<feOffset dy="2.93878"/>
<feGaussianBlur stdDeviation="1.46939"/>
<feComposite in2="hardAlpha" operator="out"/>
<feColorMatrix type="matrix" values="0 0 0 0 0 0 0 0 0 0 0 0 0 0 0 0 0 0 0.25 0"/>
<feBlend mode="normal" in2="BackgroundImageFix" result="effect1_dropShadow_557_2"/>
<feBlend mode="normal" in="SourceGraphic" in2="effect1_dropShadow_557_2" result="shape"/>
</filter>
<filter id="filter12_d_557_2" x="125.519" y="125.519" width="157.34" height="157.34" filterUnits="userSpaceOnUse" color-interpolation-filters="sRGB">
<feFlood flood-opacity="0" result="BackgroundImageFix"/>
<feColorMatrix in="SourceAlpha" type="matrix" values="0 0 0 0 0 0 0 0 0 0 0 0 0 0 0 0 0 0 127 0" result="hardAlpha"/>
<feOffset dy="2.93878"/>
<feGaussianBlur stdDeviation="1.46939"/>
<feComposite in2="hardAlpha" operator="out"/>
<feColorMatrix type="matrix" values="0 0 0 0 0 0 0 0 0 0 0 0 0 0 0 0 0 0 0.25 0"/>
<feBlend mode="normal" in2="BackgroundImageFix" result="effect1_dropShadow_557_2"/>
<feBlend mode="normal" in="SourceGraphic" in2="effect1_dropShadow_557_2" result="shape"/>
</filter>
<filter id="filter13_d_557_2" x="125.519" y="125.519" width="157.34" height="157.34" filterUnits="userSpaceOnUse" color-interpolation-filters="sRGB">
<feFlood flood-opacity="0" result="BackgroundImageFix"/>
<feColorMatrix in="SourceAlpha" type="matrix" values="0 0 0 0 0 0 0 0 0 0 0 0 0 0 0 0 0 0 127 0" result="hardAlpha"/>
<feOffset dy="2.93878"/>
<feGaussianBlur stdDeviation="1.46939"/>
<feComposite in2="hardAlpha" operator="out"/>
<feColorMatrix type="matrix" values="0 0 0 0 0 0 0 0 0 0 0 0 0 0 0 0 0 0 0.25 0"/>
<feBlend mode="normal" in2="BackgroundImageFix" result="effect1_dropShadow_557_2"/>
<feBlend mode="normal" in="SourceGraphic" in2="effect1_dropShadow_557_2" result="shape"/>
</filter>
<filter id="filter14_d_557_2" x="135.979" y="135.979" width="136.42" height="136.42" filterUnits="userSpaceOnUse" color-interpolation-filters="sRGB">
<feFlood flood-opacity="0" result="BackgroundImageFix"/>
<feColorMatrix in="SourceAlpha" type="matrix" values="0 0 0 0 0 0 0 0 0 0 0 0 0 0 0 0 0 0 127 0" result="hardAlpha"/>
<feOffset dy="2.93878"/>
<feGaussianBlur stdDeviation="1.46939"/>
<feComposite in2="hardAlpha" operator="out"/>
<feColorMatrix type="matrix" values="0 0 0 0 0 0 0 0 0 0 0 0 0 0 0 0 0 0 0.25 0"/>
<feBlend mode="normal" in2="BackgroundImageFix" result="effect1_dropShadow_557_2"/>
<feBlend mode="normal" in="SourceGraphic" in2="effect1_dropShadow_557_2" result="shape"/>
</filter>
<filter id="filter15_d_557_2" x="147.287" y="147.287" width="113.804" height="113.804" filterUnits="userSpaceOnUse" color-interpolation-filters="sRGB">
<feFlood flood-opacity="0" result="BackgroundImageFix"/>
<feColorMatrix in="SourceAlpha" type="matrix" values="0 0 0 0 0 0 0 0 0 0 0 0 0 0 0 0 0 0 127 0" result="hardAlpha"/>
<feOffset dy="2.93878"/>
<feGaussianBlur stdDeviation="1.46939"/>
<feComposite in2="hardAlpha" operator="out"/>
<feColorMatrix type="matrix" values="0 0 0 0 0 0 0 0 0 0 0 0 0 0 0 0 0 0 0.25 0"/>
<feBlend mode="normal" in2="BackgroundImageFix" result="effect1_dropShadow_557_2"/>
<feBlend mode="normal" in="SourceGraphic" in2="effect1_dropShadow_557_2" result="shape"/>
</filter>
<filter id="filter16_d_557_2" x="154.356" y="154.354" width="99.6688" height="99.6687" filterUnits="userSpaceOnUse" color-interpolation-filters="sRGB">
<feFlood flood-opacity="0" result="BackgroundImageFix"/>
<feColorMatrix in="SourceAlpha" type="matrix" values="0 0 0 0 0 0 0 0 0 0 0 0 0 0 0 0 0 0 127 0" result="hardAlpha"/>
<feOffset dy="2.93878"/>
<feGaussianBlur stdDeviation="1.46939"/>
<feComposite in2="hardAlpha" operator="out"/>
<feColorMatrix type="matrix" values="0 0 0 0 0 0 0 0 0 0 0 0 0 0 0 0 0 0 0.25 0"/>
<feBlend mode="normal" in2="BackgroundImageFix" result="effect1_dropShadow_557_2"/>
<feBlend mode="normal" in="SourceGraphic" in2="effect1_dropShadow_557_2" result="shape"/>
</filter>
<filter id="filter17_d_557_2" x="161.138" y="161.139" width="86.0992" height="86.0991" filterUnits="userSpaceOnUse" color-interpolation-filters="sRGB">
<feFlood flood-opacity="0" result="BackgroundImageFix"/>
<feColorMatrix in="SourceAlpha" type="matrix" values="0 0 0 0 0 0 0 0 0 0 0 0 0 0 0 0 0 0 127 0" result="hardAlpha"/>
<feOffset dy="2.93878"/>
<feGaussianBlur stdDeviation="1.46939"/>
<feComposite in2="hardAlpha" operator="out"/>
<feColorMatrix type="matrix" values="0 0 0 0 0 0 0 0 0 0 0 0 0 0 0 0 0 0 0.25 0"/>
<feBlend mode="normal" in2="BackgroundImageFix" result="effect1_dropShadow_557_2"/>
<feBlend mode="normal" in="SourceGraphic" in2="effect1_dropShadow_557_2" result="shape"/>
</filter>
<filter id="filter18_d_557_2" x="168.491" y="168.49" width="71.3986" height="71.3986" filterUnits="userSpaceOnUse" color-interpolation-filters="sRGB">
<feFlood flood-opacity="0" result="BackgroundImageFix"/>
<feColorMatrix in="SourceAlpha" type="matrix" values="0 0 0 0 0 0 0 0 0 0 0 0 0 0 0 0 0 0 127 0" result="hardAlpha"/>
<feOffset dy="2.93878"/>
<feGaussianBlur stdDeviation="1.46939"/>
<feComposite in2="hardAlpha" operator="out"/>
<feColorMatrix type="matrix" values="0 0 0 0 0 0 0 0 0 0 0 0 0 0 0 0 0 0 0.25 0"/>
<feBlend mode="normal" in2="BackgroundImageFix" result="effect1_dropShadow_557_2"/>
<feBlend mode="normal" in="SourceGraphic" in2="effect1_dropShadow_557_2" result="shape"/>
</filter>
<filter id="filter19_d_557_2" x="176.971" y="176.97" width="54.4366" height="54.4365" filterUnits="userSpaceOnUse" color-interpolation-filters="sRGB">
<feFlood flood-opacity="0" result="BackgroundImageFix"/>
<feColorMatrix in="SourceAlpha" type="matrix" values="0 0 0 0 0 0 0 0 0 0 0 0 0 0 0 0 0 0 127 0" result="hardAlpha"/>
<feOffset dy="2.93878"/>
<feGaussianBlur stdDeviation="1.46939"/>
<feComposite in2="hardAlpha" operator="out"/>
<feColorMatrix type="matrix" values="0 0 0 0 0 0 0 0 0 0 0 0 0 0 0 0 0 0 0.25 0"/>
<feBlend mode="normal" in2="BackgroundImageFix" result="effect1_dropShadow_557_2"/>
<feBlend mode="normal" in="SourceGraphic" in2="effect1_dropShadow_557_2" result="shape"/>
</filter>
<filter id="filter20_d_557_2" x="184.039" y="184.038" width="40.3015" height="40.3015" filterUnits="userSpaceOnUse" color-interpolation-filters="sRGB">
<feFlood flood-opacity="0" result="BackgroundImageFix"/>
<feColorMatrix in="SourceAlpha" type="matrix" values="0 0 0 0 0 0 0 0 0 0 0 0 0 0 0 0 0 0 127 0" result="hardAlpha"/>
<feOffset dy="2.93878"/>
<feGaussianBlur stdDeviation="1.46939"/>
<feComposite in2="hardAlpha" operator="out"/>
<feColorMatrix type="matrix" values="0 0 0 0 0 0 0 0 0 0 0 0 0 0 0 0 0 0 0.25 0"/>
<feBlend mode="normal" in2="BackgroundImageFix" result="effect1_dropShadow_557_2"/>
<feBlend mode="normal" in="SourceGraphic" in2="effect1_dropShadow_557_2" result="shape"/>
</filter>
<filter id="filter21_d_557_2" x="188.562" y="188.561" width="31.2552" height="31.2551" filterUnits="userSpaceOnUse" color-interpolation-filters="sRGB">
<feFlood flood-opacity="0" result="BackgroundImageFix"/>
<feColorMatrix in="SourceAlpha" type="matrix" values="0 0 0 0 0 0 0 0 0 0 0 0 0 0 0 0 0 0 127 0" result="hardAlpha"/>
<feOffset dy="2.93878"/>
<feGaussianBlur stdDeviation="1.46939"/>
<feComposite in2="hardAlpha" operator="out"/>
<feColorMatrix type="matrix" values="0 0 0 0 0 0 0 0 0 0 0 0 0 0 0 0 0 0 0.25 0"/>
<feBlend mode="normal" in2="BackgroundImageFix" result="effect1_dropShadow_557_2"/>
<feBlend mode="normal" in="SourceGraphic" in2="effect1_dropShadow_557_2" result="shape"/>
</filter>
<filter id="filter22_d_557_2" x="187.899" y="186.384" width="29.5128" height="30.6452" filterUnits="userSpaceOnUse" color-interpolation-filters="sRGB">
<feFlood flood-opacity="0" result="BackgroundImageFix"/>
<feColorMatrix in="SourceAlpha" type="matrix" values="0 0 0 0 0 0 0 0 0 0 0 0 0 0 0 0 0 0 127 0" result="hardAlpha"/>
<feOffset dy="2.5"/>
<feGaussianBlur stdDeviation="0.15"/>
<feComposite in2="hardAlpha" operator="out"/>
<feColorMatrix type="matrix" values="0 0 0 0 0 0 0 0 0 0 0 0 0 0 0 0 0 0 0.09 0"/>
<feBlend mode="normal" in2="BackgroundImageFix" result="effect1_dropShadow_557_2"/>
<feBlend mode="normal" in="SourceGraphic" in2="effect1_dropShadow_557_2" result="shape"/>
</filter>
<linearGradient id="paint0_linear_557_2" x1="3.18881" y1="201.25" x2="405.189" y2="201.25" gradientUnits="userSpaceOnUse">
<stop stop-color="#08A03F"/>
<stop offset="0.356716" stop-color="#09C74E"/>
<stop offset="1" stop-color="#09F519"/>
</linearGradient>
<linearGradient id="paint1_linear_557_2" x1="16.7591" y1="201.25" x2="391.62" y2="201.25" gradientUnits="userSpaceOnUse">
<stop stop-color="#08A03F"/>
<stop offset="0.356716" stop-color="#09C74E"/>
<stop offset="1" stop-color="#09F519"/>
</linearGradient>
<linearGradient id="paint2_linear_557_2" x1="29.763" y1="201.25" x2="378.615" y2="201.25" gradientUnits="userSpaceOnUse">
<stop stop-color="#08A03F"/>
<stop offset="0.356716" stop-color="#09C74E"/>
<stop offset="1" stop-color="#09F519"/>
</linearGradient>
<linearGradient id="paint3_linear_557_2" x1="39.9388" y1="201.25" x2="368.437" y2="201.25" gradientUnits="userSpaceOnUse">
<stop stop-color="#08A03F"/>
<stop offset="0.356716" stop-color="#09C74E"/>
<stop offset="1" stop-color="#09F519"/>
</linearGradient>
<linearGradient id="paint4_linear_557_2" x1="52.6614" y1="201.25" x2="355.716" y2="201.25" gradientUnits="userSpaceOnUse">
<stop stop-color="#08A03F"/>
<stop offset="0.356716" stop-color="#09C74E"/>
<stop offset="1" stop-color="#09F519"/>
</linearGradient>
<linearGradient id="paint5_linear_557_2" x1="62.2728" y1="201.25" x2="346.104" y2="201.25" gradientUnits="userSpaceOnUse">
<stop stop-color="#08A03F"/>
<stop offset="0.356716" stop-color="#09C74E"/>
<stop offset="1" stop-color="#09F519"/>
</linearGradient>
<linearGradient id="paint6_linear_557_2" x1="72.4503" y1="201.25" x2="335.927" y2="201.25" gradientUnits="userSpaceOnUse">
<stop stop-color="#08A03F"/>
<stop offset="0.356716" stop-color="#09C74E"/>
<stop offset="1" stop-color="#09F519"/>
</linearGradient>
<linearGradient id="paint7_linear_557_2" x1="82.9114" y1="201.25" x2="325.468" y2="201.25" gradientUnits="userSpaceOnUse">
<stop stop-color="#08A03F"/>
<stop offset="0.356716" stop-color="#09C74E"/>
<stop offset="1" stop-color="#09F519"/>
</linearGradient>
<linearGradient id="paint8_linear_557_2" x1="93.9349" y1="201.25" x2="314.441" y2="201.25" gradientUnits="userSpaceOnUse">
<stop stop-color="#08A03F"/>
<stop offset="0.356716" stop-color="#09C74E"/>
<stop offset="1" stop-color="#09F519"/>
</linearGradient>
<linearGradient id="paint9_linear_557_2" x1="103.189" y1="201.25" x2="305.189" y2="201.25" gradientUnits="userSpaceOnUse">
<stop stop-color="#08A03F"/>
<stop offset="0.356716" stop-color="#09C74E"/>
<stop offset="1" stop-color="#09F519"/>
</linearGradient>
<linearGradient id="paint10_linear_557_2" x1="111.462" y1="201.25" x2="296.914" y2="201.25" gradientUnits="userSpaceOnUse">
<stop stop-color="#08A03F"/>
<stop offset="0.356716" stop-color="#09C74E"/>
<stop offset="1" stop-color="#09F519"/>
</linearGradient>
<linearGradient id="paint11_linear_557_2" x1="119.378" y1="201.25" x2="288.999" y2="201.25" gradientUnits="userSpaceOnUse">
<stop stop-color="#08A03F"/>
<stop offset="0.356716" stop-color="#09C74E"/>
<stop offset="1" stop-color="#09F519"/>
</linearGradient>
<linearGradient id="paint12_linear_557_2" x1="128.708" y1="201.25" x2="279.67" y2="201.25" gradientUnits="userSpaceOnUse">
<stop stop-color="#08A03F"/>
<stop offset="0.356716" stop-color="#09C74E"/>
<stop offset="1" stop-color="#09F519"/>
</linearGradient>
<linearGradient id="paint13_linear_557_2" x1="128.708" y1="201.25" x2="279.67" y2="201.25" gradientUnits="userSpaceOnUse">
<stop stop-color="#08A03F"/>
<stop offset="0.356716" stop-color="#09C74E"/>
<stop offset="1" stop-color="#09F519"/>
</linearGradient>
<linearGradient id="paint14_linear_557_2" x1="139.168" y1="201.25" x2="269.21" y2="201.25" gradientUnits="userSpaceOnUse">
<stop stop-color="#08A03F"/>
<stop offset="0.356716" stop-color="#09C74E"/>
<stop offset="1" stop-color="#09F519"/>
</linearGradient>
<linearGradient id="paint15_linear_557_2" x1="150.476" y1="201.25" x2="257.902" y2="201.25" gradientUnits="userSpaceOnUse">
<stop stop-color="#08A03F"/>
<stop offset="0.356716" stop-color="#09C74E"/>
<stop offset="1" stop-color="#09F519"/>
</linearGradient>
<linearGradient id="paint16_linear_557_2" x1="157.544" y1="201.25" x2="250.835" y2="201.25" gradientUnits="userSpaceOnUse">
<stop stop-color="#08A03F"/>
<stop offset="0.356716" stop-color="#09C74E"/>
<stop offset="1" stop-color="#09F519"/>
</linearGradient>
<linearGradient id="paint17_linear_557_2" x1="164.327" y1="201.25" x2="244.049" y2="201.25" gradientUnits="userSpaceOnUse">
<stop stop-color="#08A03F"/>
<stop offset="0.356716" stop-color="#09C74E"/>
<stop offset="1" stop-color="#09F519"/>
</linearGradient>
<linearGradient id="paint18_linear_557_2" x1="171.679" y1="201.25" x2="236.7" y2="201.25" gradientUnits="userSpaceOnUse">
<stop stop-color="#08A03F"/>
<stop offset="0.356716" stop-color="#09C74E"/>
<stop offset="1" stop-color="#09F519"/>
</linearGradient>
<linearGradient id="paint19_linear_557_2" x1="180.159" y1="201.25" x2="228.218" y2="201.25" gradientUnits="userSpaceOnUse">
<stop stop-color="#08A03F"/>
<stop offset="0.356716" stop-color="#09C74E"/>
<stop offset="1" stop-color="#09F519"/>
</linearGradient>
<linearGradient id="paint20_linear_557_2" x1="187.228" y1="201.25" x2="221.152" y2="201.25" gradientUnits="userSpaceOnUse">
<stop stop-color="#08A03F"/>
<stop offset="0.356716" stop-color="#09C74E"/>
<stop offset="1" stop-color="#09F519"/>
</linearGradient>
<linearGradient id="paint21_linear_557_2" x1="191.751" y1="201.25" x2="216.629" y2="201.25" gradientUnits="userSpaceOnUse">
<stop stop-color="#08A03F"/>
<stop offset="0.356716" stop-color="#09C74E"/>
<stop offset="1" stop-color="#09F519"/>
</linearGradient>
<linearGradient id="paint22_linear_557_2" x1="184.105" y1="202.192" x2="203.082" y2="201.203" gradientUnits="userSpaceOnUse">
<stop stop-color="#08A03F"/>
<stop offset="0.356716" stop-color="#09C74E"/>
<stop offset="1" stop-color="#09F519"/>
</linearGradient>
<linearGradient id="paint23_linear_557_2" x1="197.634" y1="205.814" x2="216.602" y2="204.828" gradientUnits="userSpaceOnUse">
<stop stop-color="#08A03F"/>
<stop offset="0.356716" stop-color="#09C74E"/>
<stop offset="1" stop-color="#09F519"/>
</linearGradient>
<linearGradient id="paint24_linear_557_2" x1="192.762" y1="207.875" x2="207.064" y2="209.427" gradientUnits="userSpaceOnUse">
<stop stop-color="#08A03F"/>
<stop offset="0.356716" stop-color="#09C74E"/>
<stop offset="1" stop-color="#09F519"/>
</linearGradient>
<linearGradient id="paint25_linear_557_2" x1="186.678" y1="192.575" x2="205.657" y2="191.587" gradientUnits="userSpaceOnUse">
<stop stop-color="#08A03F"/>
<stop offset="0.356716" stop-color="#09C74E"/>
<stop offset="1" stop-color="#09F519"/>
</linearGradient>
<linearGradient id="paint26_linear_557_2" x1="200.207" y1="196.199" x2="219.176" y2="195.217" gradientUnits="userSpaceOnUse">
<stop stop-color="#08A03F"/>
<stop offset="0.356716" stop-color="#09C74E"/>
<stop offset="1" stop-color="#09F519"/>
</linearGradient>
<linearGradient id="paint27_linear_557_2" x1="196.59" y1="193.605" x2="210.891" y2="195.158" gradientUnits="userSpaceOnUse">
<stop stop-color="#08A03F"/>
<stop offset="0.356716" stop-color="#09C74E"/>
<stop offset="1" stop-color="#09F519"/>
</linearGradient>
<clipPath id="clip0_557_2">
<rect width="409" height="409" fill="white"/>
</clipPath>
</defs>
</svg>
