<svg width="409" height="409" viewBox="0 0 409 409" fill="none" xmlns="http://www.w3.org/2000/svg">
<g clip-path="url(#clip0_557_2)">
<g opacity="0.5" filter="url(#filter0_d_557_2)">
<path d="M204.189 402.25C315.198 402.25 405.189 312.259 405.189 201.25C405.189 90.2408 315.198 0.25 204.189 0.25C93.1798 0.25 3.18903 90.2408 3.18903 201.25C3.18903 312.259 93.1798 402.25 204.189 402.25Z" stroke="url(#paint0_linear_557_2)" stroke-width="0.5"/>
</g>
<g opacity="0.5" filter="url(#filter1_d_557_2)">
<path d="M204.189 388.68C307.704 388.68 391.619 304.765 391.619 201.25C391.619 97.7352 307.704 13.8199 204.189 13.8199C100.674 13.8199 16.759 97.7352 16.759 201.25C16.759 304.765 100.674 388.68 204.189 388.68Z" stroke="url(#paint1_linear_557_2)" stroke-width="0.5"/>
</g>
<g opacity="0.5" filter="url(#filter2_d_557_2)">
<path d="M204.189 375.676C300.522 375.676 378.615 297.583 378.615 201.25C378.615 104.917 300.522 26.824 204.189 26.824C107.856 26.824 29.763 104.917 29.763 201.25C29.763 297.583 107.856 375.676 204.189 375.676Z" stroke="url(#paint2_linear_557_2)" stroke-width="0.5"/>
</g>
<g opacity="0.5" filter="url(#filter3_d_557_2)">
<path d="M204.188 365.499C294.9 365.499 368.437 291.962 368.437 201.25C368.437 110.538 294.9 37.001 204.188 37.001C113.476 37.001 39.939 110.538 39.939 201.25C39.939 291.962 113.476 365.499 204.188 365.499Z" stroke="url(#paint3_linear_557_2)" stroke-width="0.5"/>
</g>
<g opacity="0.5" filter="url(#filter4_d_557_2)">
<path d="M204.189 352.777C287.875 352.777 355.716 284.936 355.716 201.25C355.716 117.564 287.875 49.723 204.189 49.723C120.503 49.723 52.662 117.564 52.662 201.25C52.662 284.936 120.503 352.777 204.189 352.777Z" stroke="url(#paint4_linear_557_2)" stroke-width="0.5"/>
</g>
<g opacity="0.8" filter="url(#filter5_d_557_2)">
<path d="M204.188 343.166C282.566 343.166 346.104 279.628 346.104 201.25C346.104 122.872 282.566 59.334 204.188 59.334C125.81 59.334 62.272 122.872 62.272 201.25C62.272 279.628 125.81 343.166 204.188 343.166Z" stroke="url(#paint5_linear_557_2)" stroke-width="0.5"/>
</g>
<g opacity="0.7" filter="url(#filter6_d_557_2)">
<path d="M204.189 332.988C276.946 332.988 335.927 274.007 335.927 201.25C335.927 128.493 276.946 69.512 204.189 69.512C131.432 69.512 72.451 128.493 72.451 201.25C72.451 274.007 131.432 332.988 204.189 332.988Z" stroke="url(#paint6_linear_557_2)" stroke-width="0.5"/>
</g>
<g opacity="0.5" filter="url(#filter7_d_557_2)">
<path d="M204.19 322.528C271.17 322.528 325.468 268.23 325.468 201.25C325.468 134.27 271.17 79.972 204.19 79.972C137.21 79.972 82.912 134.27 82.912 201.25C82.912 268.23 137.21 322.528 204.19 322.528Z" stroke="url(#paint7_linear_557_2)" stroke-width="0.5"/>
</g>
<g opacity="0.5" filter="url(#filter8_d_557_2)">
<path d="M204.188 311.503C265.079 311.503 314.441 262.141 314.441 201.25C314.441 140.359 265.079 90.9969 204.188 90.9969C143.297 90.9969 93.935 140.359 93.935 201.25C93.935 262.141 143.297 311.503 204.188 311.503Z" stroke="url(#paint8_linear_557_2)" stroke-width="0.5"/>
</g>
<g opacity="0.5" filter="url(#filter9_d_557_2)">
<path d="M204.189 302.25C259.97 302.25 305.189 257.031 305.189 201.25C305.189 145.469 259.97 100.25 204.189 100.25C148.408 100.25 103.189 145.469 103.189 201.25C103.189 257.031 148.408 302.25 204.189 302.25Z" stroke="url(#paint9_linear_557_2)" stroke-width="0.5"/>
</g>
<g opacity="0.4" filter="url(#filter10_d_557_2)">
<path d="M204.188 293.976C255.399 293.976 296.914 252.461 296.914 201.25C296.914 150.039 255.399 108.524 204.188 108.524C152.977 108.524 111.462 150.039 111.462 201.25C111.462 252.461 152.977 293.976 204.188 293.976Z" stroke="url(#paint10_linear_557_2)" stroke-width="0.5"/>
</g>
<g opacity="0.3" filter="url(#filter11_d_557_2)">
<path d="M204.188 286.06C251.027 286.06 288.998 248.089 288.998 201.25C288.998 154.411 251.027 116.44 204.188 116.44C157.349 116.44 119.378 154.411 119.378 201.25C119.378 248.089 157.349 286.06 204.188 286.06Z" stroke="url(#paint11_linear_557_2)" stroke-width="0.5"/>
</g>
<g opacity="0.5" filter="url(#filter12_d_557_2)">
<path d="M204.189 276.731C245.876 276.731 279.67 242.937 279.67 201.25C279.67 159.563 245.876 125.769 204.189 125.769C162.502 125.769 128.708 159.563 128.708 201.25C128.708 242.937 162.502 276.731 204.189 276.731Z" stroke="url(#paint12_linear_557_2)" stroke-width="0.5"/>
</g>
<g opacity="0.1" filter="url(#filter13_d_557_2)">
<path d="M204.189 276.731C245.876 276.731 279.67 242.937 279.67 201.25C279.67 159.563 245.876 125.769 204.189 125.769C162.502 125.769 128.708 159.563 128.708 201.25C128.708 242.937 162.502 276.731 204.189 276.731Z" stroke="url(#paint13_linear_557_2)" stroke-width="0.5"/>
</g>
<g opacity="0.2" filter="url(#filter14_d_557_2)">
<path d="M204.189 266.271C240.099 266.271 269.21 237.16 269.21 201.25C269.21 165.34 240.099 136.229 204.189 136.229C168.279 136.229 139.168 165.34 139.168 201.25C139.168 237.16 168.279 266.271 204.189 266.271Z" stroke="url(#paint14_linear_557_2)" stroke-width="0.5"/>
</g>
<g opacity="0.5" filter="url(#filter15_d_557_2)">
<path d="M204.189 254.963C233.854 254.963 257.902 230.915 257.902 201.25C257.902 171.585 233.854 147.537 204.189 147.537C174.524 147.537 150.476 171.585 150.476 201.25C150.476 230.915 174.524 254.963 204.189 254.963Z" stroke="url(#paint15_linear_557_2)" stroke-width="0.5"/>
</g>
<g opacity="0.5" filter="url(#filter16_d_557_2)">
<path d="M204.19 247.896C229.952 247.896 250.836 227.012 250.836 201.25C250.836 175.488 229.952 154.604 204.19 154.604C178.428 154.604 157.544 175.488 157.544 201.25C157.544 227.012 178.428 247.896 204.19 247.896Z" stroke="url(#paint16_linear_557_2)" stroke-width="0.5"/>
</g>
<g opacity="0.2" filter="url(#filter17_d_557_2)">
<path d="M204.188 241.111C226.203 241.111 244.049 223.264 244.049 201.25C244.049 179.235 226.203 161.389 204.188 161.389C182.174 161.389 164.327 179.235 164.327 201.25C164.327 223.264 182.174 241.111 204.188 241.111Z" stroke="url(#paint17_linear_557_2)" stroke-width="0.5"/>
</g>
<g opacity="0.2" filter="url(#filter18_d_557_2)">
<path d="M204.19 233.76C222.145 233.76 236.701 219.205 236.701 201.25C236.701 183.295 222.145 168.74 204.19 168.74C186.235 168.74 171.68 183.295 171.68 201.25C171.68 219.205 186.235 233.76 204.19 233.76Z" stroke="url(#paint18_linear_557_2)" stroke-width="0.5"/>
</g>
<g opacity="0.1" filter="url(#filter19_d_557_2)">
<path d="M204.189 225.279C217.46 225.279 228.218 214.521 228.218 201.25C228.218 187.979 217.46 177.22 204.189 177.22C190.918 177.22 180.159 187.979 180.159 201.25C180.159 214.521 190.918 225.279 204.189 225.279Z" stroke="url(#paint19_linear_557_2)" stroke-width="0.5"/>
</g>
<g opacity="0.1" filter="url(#filter20_d_557_2)">
<path d="M204.19 218.212C213.558 218.212 221.152 210.618 221.152 201.25C221.152 191.882 213.558 184.288 204.19 184.288C194.822 184.288 187.228 191.882 187.228 201.25C187.228 210.618 194.822 218.212 204.19 218.212Z" stroke="url(#paint20_linear_557_2)" stroke-width="0.5"/>
</g>
<g opacity="0.1" filter="url(#filter21_d_557_2)">
<path d="M204.19 213.689C211.06 213.689 216.629 208.12 216.629 201.25C216.629 194.38 211.06 188.811 204.19 188.811C197.32 188.811 191.751 194.38 191.751 201.25C191.751 208.12 197.32 213.689 204.19 213.689Z" stroke="url(#paint21_linear_557_2)" stroke-width="0.5"/>
</g>
</g>
<defs>
<filter id="filter0_d_557_2" x="0.00024581" y="0" width="408.378" height="408.378" filterUnits="userSpaceOnUse" color-interpolation-filters="sRGB">
<feFlood flood-opacity="0" result="BackgroundImageFix"/>
<feColorMatrix in="SourceAlpha" type="matrix" values="0 0 0 0 0 0 0 0 0 0 0 0 0 0 0 0 0 0 127 0" result="hardAlpha"/>
<feOffset dy="2.93878"/>
<feGaussianBlur stdDeviation="1.46939"/>
<feComposite in2="hardAlpha" operator="out"/>
<feColorMatrix type="matrix" values="0 0 0 0 0 0 0 0 0 0 0 0 0 0 0 0 0 0 0.25 0"/>
<feBlend mode="normal" in2="BackgroundImageFix" result="effect1_dropShadow_557_2"/>
<feBlend mode="normal" in="SourceGraphic" in2="effect1_dropShadow_557_2" result="shape"/>
</filter>
<filter id="filter1_d_557_2" x="13.5702" y="13.5699" width="381.238" height="381.238" filterUnits="userSpaceOnUse" color-interpolation-filters="sRGB">
<feFlood flood-opacity="0" result="BackgroundImageFix"/>
<feColorMatrix in="SourceAlpha" type="matrix" values="0 0 0 0 0 0 0 0 0 0 0 0 0 0 0 0 0 0 127 0" result="hardAlpha"/>
<feOffset dy="2.93878"/>
<feGaussianBlur stdDeviation="1.46939"/>
<feComposite in2="hardAlpha" operator="out"/>
<feColorMatrix type="matrix" values="0 0 0 0 0 0 0 0 0 0 0 0 0 0 0 0 0 0 0.25 0"/>
<feBlend mode="normal" in2="BackgroundImageFix" result="effect1_dropShadow_557_2"/>
<feBlend mode="normal" in="SourceGraphic" in2="effect1_dropShadow_557_2" result="shape"/>
</filter>
<filter id="filter2_d_557_2" x="26.5742" y="26.574" width="355.23" height="355.23" filterUnits="userSpaceOnUse" color-interpolation-filters="sRGB">
<feFlood flood-opacity="0" result="BackgroundImageFix"/>
<feColorMatrix in="SourceAlpha" type="matrix" values="0 0 0 0 0 0 0 0 0 0 0 0 0 0 0 0 0 0 127 0" result="hardAlpha"/>
<feOffset dy="2.93878"/>
<feGaussianBlur stdDeviation="1.46939"/>
<feComposite in2="hardAlpha" operator="out"/>
<feColorMatrix type="matrix" values="0 0 0 0 0 0 0 0 0 0 0 0 0 0 0 0 0 0 0.25 0"/>
<feBlend mode="normal" in2="BackgroundImageFix" result="effect1_dropShadow_557_2"/>
<feBlend mode="normal" in="SourceGraphic" in2="effect1_dropShadow_557_2" result="shape"/>
</filter>
<filter id="filter3_d_557_2" x="36.7502" y="36.751" width="334.876" height="334.876" filterUnits="userSpaceOnUse" color-interpolation-filters="sRGB">
<feFlood flood-opacity="0" result="BackgroundImageFix"/>
<feColorMatrix in="SourceAlpha" type="matrix" values="0 0 0 0 0 0 0 0 0 0 0 0 0 0 0 0 0 0 127 0" result="hardAlpha"/>
<feOffset dy="2.93878"/>
<feGaussianBlur stdDeviation="1.46939"/>
<feComposite in2="hardAlpha" operator="out"/>
<feColorMatrix type="matrix" values="0 0 0 0 0 0 0 0 0 0 0 0 0 0 0 0 0 0 0.25 0"/>
<feBlend mode="normal" in2="BackgroundImageFix" result="effect1_dropShadow_557_2"/>
<feBlend mode="normal" in="SourceGraphic" in2="effect1_dropShadow_557_2" result="shape"/>
</filter>
<filter id="filter4_d_557_2" x="49.4732" y="49.473" width="309.432" height="309.432" filterUnits="userSpaceOnUse" color-interpolation-filters="sRGB">
<feFlood flood-opacity="0" result="BackgroundImageFix"/>
<feColorMatrix in="SourceAlpha" type="matrix" values="0 0 0 0 0 0 0 0 0 0 0 0 0 0 0 0 0 0 127 0" result="hardAlpha"/>
<feOffset dy="2.93878"/>
<feGaussianBlur stdDeviation="1.46939"/>
<feComposite in2="hardAlpha" operator="out"/>
<feColorMatrix type="matrix" values="0 0 0 0 0 0 0 0 0 0 0 0 0 0 0 0 0 0 0.25 0"/>
<feBlend mode="normal" in2="BackgroundImageFix" result="effect1_dropShadow_557_2"/>
<feBlend mode="normal" in="SourceGraphic" in2="effect1_dropShadow_557_2" result="shape"/>
</filter>
<filter id="filter5_d_557_2" x="59.0832" y="59.084" width="290.21" height="290.21" filterUnits="userSpaceOnUse" color-interpolation-filters="sRGB">
<feFlood flood-opacity="0" result="BackgroundImageFix"/>
<feColorMatrix in="SourceAlpha" type="matrix" values="0 0 0 0 0 0 0 0 0 0 0 0 0 0 0 0 0 0 127 0" result="hardAlpha"/>
<feOffset dy="2.93878"/>
<feGaussianBlur stdDeviation="1.46939"/>
<feComposite in2="hardAlpha" operator="out"/>
<feColorMatrix type="matrix" values="0 0 0 0 0 0 0 0 0 0 0 0 0 0 0 0 0 0 0.25 0"/>
<feBlend mode="normal" in2="BackgroundImageFix" result="effect1_dropShadow_557_2"/>
<feBlend mode="normal" in="SourceGraphic" in2="effect1_dropShadow_557_2" result="shape"/>
</filter>
<filter id="filter6_d_557_2" x="69.2622" y="69.262" width="269.854" height="269.854" filterUnits="userSpaceOnUse" color-interpolation-filters="sRGB">
<feFlood flood-opacity="0" result="BackgroundImageFix"/>
<feColorMatrix in="SourceAlpha" type="matrix" values="0 0 0 0 0 0 0 0 0 0 0 0 0 0 0 0 0 0 127 0" result="hardAlpha"/>
<feOffset dy="2.93878"/>
<feGaussianBlur stdDeviation="1.46939"/>
<feComposite in2="hardAlpha" operator="out"/>
<feColorMatrix type="matrix" values="0 0 0 0 0 0 0 0 0 0 0 0 0 0 0 0 0 0 0.25 0"/>
<feBlend mode="normal" in2="BackgroundImageFix" result="effect1_dropShadow_557_2"/>
<feBlend mode="normal" in="SourceGraphic" in2="effect1_dropShadow_557_2" result="shape"/>
</filter>
<filter id="filter7_d_557_2" x="79.7232" y="79.722" width="248.934" height="248.934" filterUnits="userSpaceOnUse" color-interpolation-filters="sRGB">
<feFlood flood-opacity="0" result="BackgroundImageFix"/>
<feColorMatrix in="SourceAlpha" type="matrix" values="0 0 0 0 0 0 0 0 0 0 0 0 0 0 0 0 0 0 127 0" result="hardAlpha"/>
<feOffset dy="2.93878"/>
<feGaussianBlur stdDeviation="1.46939"/>
<feComposite in2="hardAlpha" operator="out"/>
<feColorMatrix type="matrix" values="0 0 0 0 0 0 0 0 0 0 0 0 0 0 0 0 0 0 0.25 0"/>
<feBlend mode="normal" in2="BackgroundImageFix" result="effect1_dropShadow_557_2"/>
<feBlend mode="normal" in="SourceGraphic" in2="effect1_dropShadow_557_2" result="shape"/>
</filter>
<filter id="filter8_d_557_2" x="90.7462" y="90.7469" width="226.884" height="226.884" filterUnits="userSpaceOnUse" color-interpolation-filters="sRGB">
<feFlood flood-opacity="0" result="BackgroundImageFix"/>
<feColorMatrix in="SourceAlpha" type="matrix" values="0 0 0 0 0 0 0 0 0 0 0 0 0 0 0 0 0 0 127 0" result="hardAlpha"/>
<feOffset dy="2.93878"/>
<feGaussianBlur stdDeviation="1.46939"/>
<feComposite in2="hardAlpha" operator="out"/>
<feColorMatrix type="matrix" values="0 0 0 0 0 0 0 0 0 0 0 0 0 0 0 0 0 0 0.25 0"/>
<feBlend mode="normal" in2="BackgroundImageFix" result="effect1_dropShadow_557_2"/>
<feBlend mode="normal" in="SourceGraphic" in2="effect1_dropShadow_557_2" result="shape"/>
</filter>
<filter id="filter9_d_557_2" x="100" y="100" width="208.378" height="208.378" filterUnits="userSpaceOnUse" color-interpolation-filters="sRGB">
<feFlood flood-opacity="0" result="BackgroundImageFix"/>
<feColorMatrix in="SourceAlpha" type="matrix" values="0 0 0 0 0 0 0 0 0 0 0 0 0 0 0 0 0 0 127 0" result="hardAlpha"/>
<feOffset dy="2.93878"/>
<feGaussianBlur stdDeviation="1.46939"/>
<feComposite in2="hardAlpha" operator="out"/>
<feColorMatrix type="matrix" values="0 0 0 0 0 0 0 0 0 0 0 0 0 0 0 0 0 0 0.25 0"/>
<feBlend mode="normal" in2="BackgroundImageFix" result="effect1_dropShadow_557_2"/>
<feBlend mode="normal" in="SourceGraphic" in2="effect1_dropShadow_557_2" result="shape"/>
</filter>
<filter id="filter10_d_557_2" x="108.274" y="108.274" width="191.829" height="191.829" filterUnits="userSpaceOnUse" color-interpolation-filters="sRGB">
<feFlood flood-opacity="0" result="BackgroundImageFix"/>
<feColorMatrix in="SourceAlpha" type="matrix" values="0 0 0 0 0 0 0 0 0 0 0 0 0 0 0 0 0 0 127 0" result="hardAlpha"/>
<feOffset dy="2.93878"/>
<feGaussianBlur stdDeviation="1.46939"/>
<feComposite in2="hardAlpha" operator="out"/>
<feColorMatrix type="matrix" values="0 0 0 0 0 0 0 0 0 0 0 0 0 0 0 0 0 0 0.25 0"/>
<feBlend mode="normal" in2="BackgroundImageFix" result="effect1_dropShadow_557_2"/>
<feBlend mode="normal" in="SourceGraphic" in2="effect1_dropShadow_557_2" result="shape"/>
</filter>
<filter id="filter11_d_557_2" x="116.189" y="116.19" width="175.998" height="175.998" filterUnits="userSpaceOnUse" color-interpolation-filters="sRGB">
<feFlood flood-opacity="0" result="BackgroundImageFix"/>
<feColorMatrix in="SourceAlpha" type="matrix" values="0 0 0 0 0 0 0 0 0 0 0 0 0 0 0 0 0 0 127 0" result="hardAlpha"/>
<feOffset dy="2.93878"/>
<feGaussianBlur stdDeviation="1.46939"/>
<feComposite in2="hardAlpha" operator="out"/>
<feColorMatrix type="matrix" values="0 0 0 0 0 0 0 0 0 0 0 0 0 0 0 0 0 0 0.25 0"/>
<feBlend mode="normal" in2="BackgroundImageFix" result="effect1_dropShadow_557_2"/>
<feBlend mode="normal" in="SourceGraphic" in2="effect1_dropShadow_557_2" result="shape"/>
</filter>
<filter id="filter12_d_557_2" x="125.519" y="125.519" width="157.34" height="157.34" filterUnits="userSpaceOnUse" color-interpolation-filters="sRGB">
<feFlood flood-opacity="0" result="BackgroundImageFix"/>
<feColorMatrix in="SourceAlpha" type="matrix" values="0 0 0 0 0 0 0 0 0 0 0 0 0 0 0 0 0 0 127 0" result="hardAlpha"/>
<feOffset dy="2.93878"/>
<feGaussianBlur stdDeviation="1.46939"/>
<feComposite in2="hardAlpha" operator="out"/>
<feColorMatrix type="matrix" values="0 0 0 0 0 0 0 0 0 0 0 0 0 0 0 0 0 0 0.25 0"/>
<feBlend mode="normal" in2="BackgroundImageFix" result="effect1_dropShadow_557_2"/>
<feBlend mode="normal" in="SourceGraphic" in2="effect1_dropShadow_557_2" result="shape"/>
</filter>
<filter id="filter13_d_557_2" x="125.519" y="125.519" width="157.34" height="157.34" filterUnits="userSpaceOnUse" color-interpolation-filters="sRGB">
<feFlood flood-opacity="0" result="BackgroundImageFix"/>
<feColorMatrix in="SourceAlpha" type="matrix" values="0 0 0 0 0 0 0 0 0 0 0 0 0 0 0 0 0 0 127 0" result="hardAlpha"/>
<feOffset dy="2.93878"/>
<feGaussianBlur stdDeviation="1.46939"/>
<feComposite in2="hardAlpha" operator="out"/>
<feColorMatrix type="matrix" values="0 0 0 0 0 0 0 0 0 0 0 0 0 0 0 0 0 0 0.25 0"/>
<feBlend mode="normal" in2="BackgroundImageFix" result="effect1_dropShadow_557_2"/>
<feBlend mode="normal" in="SourceGraphic" in2="effect1_dropShadow_557_2" result="shape"/>
</filter>
<filter id="filter14_d_557_2" x="135.979" y="135.979" width="136.42" height="136.42" filterUnits="userSpaceOnUse" color-interpolation-filters="sRGB">
<feFlood flood-opacity="0" result="BackgroundImageFix"/>
<feColorMatrix in="SourceAlpha" type="matrix" values="0 0 0 0 0 0 0 0 0 0 0 0 0 0 0 0 0 0 127 0" result="hardAlpha"/>
<feOffset dy="2.93878"/>
<feGaussianBlur stdDeviation="1.46939"/>
<feComposite in2="hardAlpha" operator="out"/>
<feColorMatrix type="matrix" values="0 0 0 0 0 0 0 0 0 0 0 0 0 0 0 0 0 0 0.25 0"/>
<feBlend mode="normal" in2="BackgroundImageFix" result="effect1_dropShadow_557_2"/>
<feBlend mode="normal" in="SourceGraphic" in2="effect1_dropShadow_557_2" result="shape"/>
</filter>
<filter id="filter15_d_557_2" x="147.287" y="147.287" width="113.804" height="113.804" filterUnits="userSpaceOnUse" color-interpolation-filters="sRGB">
<feFlood flood-opacity="0" result="BackgroundImageFix"/>
<feColorMatrix in="SourceAlpha" type="matrix" values="0 0 0 0 0 0 0 0 0 0 0 0 0 0 0 0 0 0 127 0" result="hardAlpha"/>
<feOffset dy="2.93878"/>
<feGaussianBlur stdDeviation="1.46939"/>
<feComposite in2="hardAlpha" operator="out"/>
<feColorMatrix type="matrix" values="0 0 0 0 0 0 0 0 0 0 0 0 0 0 0 0 0 0 0.25 0"/>
<feBlend mode="normal" in2="BackgroundImageFix" result="effect1_dropShadow_557_2"/>
<feBlend mode="normal" in="SourceGraphic" in2="effect1_dropShadow_557_2" result="shape"/>
</filter>
<filter id="filter16_d_557_2" x="154.356" y="154.354" width="99.6688" height="99.6687" filterUnits="userSpaceOnUse" color-interpolation-filters="sRGB">
<feFlood flood-opacity="0" result="BackgroundImageFix"/>
<feColorMatrix in="SourceAlpha" type="matrix" values="0 0 0 0 0 0 0 0 0 0 0 0 0 0 0 0 0 0 127 0" result="hardAlpha"/>
<feOffset dy="2.93878"/>
<feGaussianBlur stdDeviation="1.46939"/>
<feComposite in2="hardAlpha" operator="out"/>
<feColorMatrix type="matrix" values="0 0 0 0 0 0 0 0 0 0 0 0 0 0 0 0 0 0 0.25 0"/>
<feBlend mode="normal" in2="BackgroundImageFix" result="effect1_dropShadow_557_2"/>
<feBlend mode="normal" in="SourceGraphic" in2="effect1_dropShadow_557_2" result="shape"/>
</filter>
<filter id="filter17_d_557_2" x="161.138" y="161.139" width="86.0992" height="86.0991" filterUnits="userSpaceOnUse" color-interpolation-filters="sRGB">
<feFlood flood-opacity="0" result="BackgroundImageFix"/>
<feColorMatrix in="SourceAlpha" type="matrix" values="0 0 0 0 0 0 0 0 0 0 0 0 0 0 0 0 0 0 127 0" result="hardAlpha"/>
<feOffset dy="2.93878"/>
<feGaussianBlur stdDeviation="1.46939"/>
<feComposite in2="hardAlpha" operator="out"/>
<feColorMatrix type="matrix" values="0 0 0 0 0 0 0 0 0 0 0 0 0 0 0 0 0 0 0.25 0"/>
<feBlend mode="normal" in2="BackgroundImageFix" result="effect1_dropShadow_557_2"/>
<feBlend mode="normal" in="SourceGraphic" in2="effect1_dropShadow_557_2" result="shape"/>
</filter>
<filter id="filter18_d_557_2" x="168.491" y="168.49" width="71.3986" height="71.3986" filterUnits="userSpaceOnUse" color-interpolation-filters="sRGB">
<feFlood flood-opacity="0" result="BackgroundImageFix"/>
<feColorMatrix in="SourceAlpha" type="matrix" values="0 0 0 0 0 0 0 0 0 0 0 0 0 0 0 0 0 0 127 0" result="hardAlpha"/>
<feOffset dy="2.93878"/>
<feGaussianBlur stdDeviation="1.46939"/>
<feComposite in2="hardAlpha" operator="out"/>
<feColorMatrix type="matrix" values="0 0 0 0 0 0 0 0 0 0 0 0 0 0 0 0 0 0 0.25 0"/>
<feBlend mode="normal" in2="BackgroundImageFix" result="effect1_dropShadow_557_2"/>
<feBlend mode="normal" in="SourceGraphic" in2="effect1_dropShadow_557_2" result="shape"/>
</filter>
<filter id="filter19_d_557_2" x="176.971" y="176.97" width="54.4366" height="54.4365" filterUnits="userSpaceOnUse" color-interpolation-filters="sRGB">
<feFlood flood-opacity="0" result="BackgroundImageFix"/>
<feColorMatrix in="SourceAlpha" type="matrix" values="0 0 0 0 0 0 0 0 0 0 0 0 0 0 0 0 0 0 127 0" result="hardAlpha"/>
<feOffset dy="2.93878"/>
<feGaussianBlur stdDeviation="1.46939"/>
<feComposite in2="hardAlpha" operator="out"/>
<feColorMatrix type="matrix" values="0 0 0 0 0 0 0 0 0 0 0 0 0 0 0 0 0 0 0.25 0"/>
<feBlend mode="normal" in2="BackgroundImageFix" result="effect1_dropShadow_557_2"/>
<feBlend mode="normal" in="SourceGraphic" in2="effect1_dropShadow_557_2" result="shape"/>
</filter>
<filter id="filter20_d_557_2" x="184.039" y="184.038" width="40.3015" height="40.3015" filterUnits="userSpaceOnUse" color-interpolation-filters="sRGB">
<feFlood flood-opacity="0" result="BackgroundImageFix"/>
<feColorMatrix in="SourceAlpha" type="matrix" values="0 0 0 0 0 0 0 0 0 0 0 0 0 0 0 0 0 0 127 0" result="hardAlpha"/>
<feOffset dy="2.93878"/>
<feGaussianBlur stdDeviation="1.46939"/>
<feComposite in2="hardAlpha" operator="out"/>
<feColorMatrix type="matrix" values="0 0 0 0 0 0 0 0 0 0 0 0 0 0 0 0 0 0 0.25 0"/>
<feBlend mode="normal" in2="BackgroundImageFix" result="effect1_dropShadow_557_2"/>
<feBlend mode="normal" in="SourceGraphic" in2="effect1_dropShadow_557_2" result="shape"/>
</filter>
<filter id="filter21_d_557_2" x="188.562" y="188.561" width="31.2552" height="31.2551" filterUnits="userSpaceOnUse" color-interpolation-filters="sRGB">
<feFlood flood-opacity="0" result="BackgroundImageFix"/>
<feColorMatrix in="SourceAlpha" type="matrix" values="0 0 0 0 0 0 0 0 0 0 0 0 0 0 0 0 0 0 127 0" result="hardAlpha"/>
<feOffset dy="2.93878"/>
<feGaussianBlur stdDeviation="1.46939"/>
<feComposite in2="hardAlpha" operator="out"/>
<feColorMatrix type="matrix" values="0 0 0 0 0 0 0 0 0 0 0 0 0 0 0 0 0 0 0.25 0"/>
<feBlend mode="normal" in2="BackgroundImageFix" result="effect1_dropShadow_557_2"/>
<feBlend mode="normal" in="SourceGraphic" in2="effect1_dropShadow_557_2" result="shape"/>
</filter>
<linearGradient id="paint0_linear_557_2" x1="3.18881" y1="201.25" x2="405.189" y2="201.25" gradientUnits="userSpaceOnUse">
<stop stop-color="#08A03F"/>
<stop offset="0.356716" stop-color="#09C74E"/>
<stop offset="1" stop-color="#09F519"/>
</linearGradient>
<linearGradient id="paint1_linear_557_2" x1="16.7591" y1="201.25" x2="391.62" y2="201.25" gradientUnits="userSpaceOnUse">
<stop stop-color="#08A03F"/>
<stop offset="0.356716" stop-color="#09C74E"/>
<stop offset="1" stop-color="#09F519"/>
</linearGradient>
<linearGradient id="paint2_linear_557_2" x1="29.763" y1="201.25" x2="378.615" y2="201.25" gradientUnits="userSpaceOnUse">
<stop stop-color="#08A03F"/>
<stop offset="0.356716" stop-color="#09C74E"/>
<stop offset="1" stop-color="#09F519"/>
</linearGradient>
<linearGradient id="paint3_linear_557_2" x1="39.9388" y1="201.25" x2="368.437" y2="201.25" gradientUnits="userSpaceOnUse">
<stop stop-color="#08A03F"/>
<stop offset="0.356716" stop-color="#09C74E"/>
<stop offset="1" stop-color="#09F519"/>
</linearGradient>
<linearGradient id="paint4_linear_557_2" x1="52.6614" y1="201.25" x2="355.716" y2="201.25" gradientUnits="userSpaceOnUse">
<stop stop-color="#08A03F"/>
<stop offset="0.356716" stop-color="#09C74E"/>
<stop offset="1" stop-color="#09F519"/>
</linearGradient>
<linearGradient id="paint5_linear_557_2" x1="62.2728" y1="201.25" x2="346.104" y2="201.25" gradientUnits="userSpaceOnUse">
<stop stop-color="#08A03F"/>
<stop offset="0.356716" stop-color="#09C74E"/>
<stop offset="1" stop-color="#09F519"/>
</linearGradient>
<linearGradient id="paint6_linear_557_2" x1="72.4503" y1="201.25" x2="335.927" y2="201.25" gradientUnits="userSpaceOnUse">
<stop stop-color="#08A03F"/>
<stop offset="0.356716" stop-color="#09C74E"/>
<stop offset="1" stop-color="#09F519"/>
</linearGradient>
<linearGradient id="paint7_linear_557_2" x1="82.9114" y1="201.25" x2="325.468" y2="201.25" gradientUnits="userSpaceOnUse">
<stop stop-color="#08A03F"/>
<stop offset="0.356716" stop-color="#09C74E"/>
<stop offset="1" stop-color="#09F519"/>
</linearGradient>
<linearGradient id="paint8_linear_557_2" x1="93.9349" y1="201.25" x2="314.441" y2="201.25" gradientUnits="userSpaceOnUse">
<stop stop-color="#08A03F"/>
<stop offset="0.356716" stop-color="#09C74E"/>
<stop offset="1" stop-color="#09F519"/>
</linearGradient>
<linearGradient id="paint9_linear_557_2" x1="103.189" y1="201.25" x2="305.189" y2="201.25" gradientUnits="userSpaceOnUse">
<stop stop-color="#08A03F"/>
<stop offset="0.356716" stop-color="#09C74E"/>
<stop offset="1" stop-color="#09F519"/>
</linearGradient>
<linearGradient id="paint10_linear_557_2" x1="111.462" y1="201.25" x2="296.914" y2="201.25" gradientUnits="userSpaceOnUse">
<stop stop-color="#08A03F"/>
<stop offset="0.356716" stop-color="#09C74E"/>
<stop offset="1" stop-color="#09F519"/>
</linearGradient>
<linearGradient id="paint11_linear_557_2" x1="119.378" y1="201.25" x2="288.999" y2="201.25" gradientUnits="userSpaceOnUse">
<stop stop-color="#08A03F"/>
<stop offset="0.356716" stop-color="#09C74E"/>
<stop offset="1" stop-color="#09F519"/>
</linearGradient>
<linearGradient id="paint12_linear_557_2" x1="128.708" y1="201.25" x2="279.67" y2="201.25" gradientUnits="userSpaceOnUse">
<stop stop-color="#08A03F"/>
<stop offset="0.356716" stop-color="#09C74E"/>
<stop offset="1" stop-color="#09F519"/>
</linearGradient>
<linearGradient id="paint13_linear_557_2" x1="128.708" y1="201.25" x2="279.67" y2="201.25" gradientUnits="userSpaceOnUse">
<stop stop-color="#08A03F"/>
<stop offset="0.356716" stop-color="#09C74E"/>
<stop offset="1" stop-color="#09F519"/>
</linearGradient>
<linearGradient id="paint14_linear_557_2" x1="139.168" y1="201.25" x2="269.21" y2="201.25" gradientUnits="userSpaceOnUse">
<stop stop-color="#08A03F"/>
<stop offset="0.356716" stop-color="#09C74E"/>
<stop offset="1" stop-color="#09F519"/>
</linearGradient>
<linearGradient id="paint15_linear_557_2" x1="150.476" y1="201.25" x2="257.902" y2="201.25" gradientUnits="userSpaceOnUse">
<stop stop-color="#08A03F"/>
<stop offset="0.356716" stop-color="#09C74E"/>
<stop offset="1" stop-color="#09F519"/>
</linearGradient>
<linearGradient id="paint16_linear_557_2" x1="157.544" y1="201.25" x2="250.835" y2="201.25" gradientUnits="userSpaceOnUse">
<stop stop-color="#08A03F"/>
<stop offset="0.356716" stop-color="#09C74E"/>
<stop offset="1" stop-color="#09F519"/>
</linearGradient>
<linearGradient id="paint17_linear_557_2" x1="164.327" y1="201.25" x2="244.049" y2="201.25" gradientUnits="userSpaceOnUse">
<stop stop-color="#08A03F"/>
<stop offset="0.356716" stop-color="#09C74E"/>
<stop offset="1" stop-color="#09F519"/>
</linearGradient>
<linearGradient id="paint18_linear_557_2" x1="171.679" y1="201.25" x2="236.7" y2="201.25" gradientUnits="userSpaceOnUse">
<stop stop-color="#08A03F"/>
<stop offset="0.356716" stop-color="#09C74E"/>
<stop offset="1" stop-color="#09F519"/>
</linearGradient>
<linearGradient id="paint19_linear_557_2" x1="180.159" y1="201.25" x2="228.218" y2="201.25" gradientUnits="userSpaceOnUse">
<stop stop-color="#08A03F"/>
<stop offset="0.356716" stop-color="#09C74E"/>
<stop offset="1" stop-color="#09F519"/>
</linearGradient>
<linearGradient id="paint20_linear_557_2" x1="187.228" y1="201.25" x2="221.152" y2="201.25" gradientUnits="userSpaceOnUse">
<stop stop-color="#08A03F"/>
<stop offset="0.356716" stop-color="#09C74E"/>
<stop offset="1" stop-color="#09F519"/>
</linearGradient>
<linearGradient id="paint21_linear_557_2" x1="191.751" y1="201.25" x2="216.629" y2="201.25" gradientUnits="userSpaceOnUse">
<stop stop-color="#08A03F"/>
<stop offset="0.356716" stop-color="#09C74E"/>
<stop offset="1" stop-color="#09F519"/>
</linearGradient>
<clipPath id="clip0_557_2">
<rect width="409" height="409" fill="white"/>
</clipPath>
</defs>
</svg>
