<svg width="269" height="537" viewBox="0 0 269 537" fill="none" xmlns="http://www.w3.org/2000/svg">
<path fill-rule="evenodd" clip-rule="evenodd" d="M249.691 270.028C249.691 266.826 248.009 263.867 245.267 262.212L147.182 203.195C115.387 183.885 89.4275 174.168 69.3029 174.168C47.9842 174.168 31.0351 182.46 18.5776 198.975C6.21519 215.313 5.11916e-05 238.016 4.99311e-05 266.853C4.86706e-05 295.689 6.13375 320.156 18.3469 337.838C30.4244 355.317 46.9393 364.083 67.7695 364.083C80.9869 364.083 95.5069 360.351 111.547 352.874C127.275 345.546 171.785 320.713 245.145 277.926C247.954 276.298 249.678 273.285 249.678 270.042L249.691 270.028Z" fill="url(#paint0_linear_332_17)"/>
<path fill-rule="evenodd" clip-rule="evenodd" d="M261.674 281.632C258.716 280.519 255.377 281.062 252.935 283.07C206.973 320.673 124.669 370.448 97.3391 415.379C86.9444 432.383 85.8859 449.997 94.123 468.249C102.224 486.311 114.139 501.102 139 515.582C164.579 530.509 187.947 537.565 209.076 536.751C230.056 535.937 245.621 527.171 255.717 510.547C262.135 500.017 265.962 486.596 267.306 470.121C268.608 454 268.731 370.788 267.401 289.774C267.346 286.137 265.067 282.907 261.66 281.632L261.674 281.632Z" fill="url(#paint1_linear_332_17)"/>
<path fill-rule="evenodd" clip-rule="evenodd" d="M262.366 255.291C265.393 253.921 267.36 250.935 267.415 247.624C268.758 166.434 268.636 82.9092 267.32 66.7472C265.976 50.2322 262.149 36.8113 255.731 26.2809C245.621 9.64383 230.056 0.877494 209.076 0.0632822C187.948 -0.75093 164.58 6.29199 139 21.2463C114.139 35.7529 102.211 50.5579 94.1233 68.6063C85.8862 86.8582 86.9447 104.486 97.3394 121.435C124.765 166.502 207.502 216.453 253.383 254.097C255.907 256.173 259.395 256.635 262.366 255.291Z" fill="url(#paint2_linear_332_17)"/>
<defs>
<linearGradient id="paint0_linear_332_17" x1="3.4573e-05" y1="269.126" x2="249.691" y2="269.126" gradientUnits="userSpaceOnUse">
<stop stop-color="#008E34"/>
<stop offset="1" stop-color="#0F602C"/>
</linearGradient>
<linearGradient id="paint1_linear_332_17" x1="88.6522" y1="408.939" x2="268.342" y2="408.939" gradientUnits="userSpaceOnUse">
<stop stop-color="#008E34"/>
<stop offset="1" stop-color="#0F602C"/>
</linearGradient>
<linearGradient id="paint2_linear_332_17" x1="88.6525" y1="128.026" x2="268.366" y2="128.026" gradientUnits="userSpaceOnUse">
<stop stop-color="#008E34"/>
<stop offset="1" stop-color="#0F602C"/>
</linearGradient>
</defs>
</svg>
