<svg width="537" height="269" viewBox="0 0 537 269" fill="none" xmlns="http://www.w3.org/2000/svg">
<path fill-rule="evenodd" clip-rule="evenodd" d="M270.028 18.6748C266.826 18.6748 263.867 20.3575 262.212 23.0987L203.195 121.184C183.885 152.979 174.168 178.939 174.168 199.063C174.168 220.382 182.46 237.331 198.975 249.789C215.313 262.151 238.016 268.366 266.853 268.366C295.689 268.366 320.156 262.232 337.838 250.019C355.317 237.942 364.083 221.427 364.083 200.597C364.083 187.379 360.351 172.859 352.874 156.819C345.546 141.091 320.713 96.5812 277.926 23.2208C276.298 20.4118 273.285 18.6884 270.042 18.6884L270.028 18.6748Z" fill="url(#paint0_linear_332_17)"/>
<path fill-rule="evenodd" clip-rule="evenodd" d="M281.632 6.69195C280.519 9.65025 281.062 12.9885 283.07 15.4311C320.673 61.3933 370.448 143.697 415.379 171.027C432.383 181.422 449.997 182.48 468.249 174.243C486.311 166.142 501.102 154.227 515.582 129.366C530.509 103.787 537.565 80.4187 536.751 59.29C535.937 38.3105 527.171 22.7455 510.547 12.6493C500.017 6.23056 486.596 2.40378 470.121 1.06033C454 -0.242404 370.788 -0.364545 289.774 0.965332C286.137 1.01961 282.907 3.2994 281.632 6.70551V6.69195Z" fill="url(#paint1_linear_332_17)"/>
<path fill-rule="evenodd" clip-rule="evenodd" d="M255.291 5.99969C253.921 2.97354 250.935 1.00586 247.624 0.951577C166.434 -0.391871 82.9092 -0.26975 66.7471 1.04656C50.2322 2.39001 36.8113 6.21681 26.2809 12.6355C9.64382 22.7453 0.877484 38.3103 0.0632731 59.2898C-0.750938 80.4185 6.29199 103.786 21.2463 129.366C35.7528 154.227 50.5579 166.155 68.6063 174.243C86.8582 182.48 104.486 181.421 121.435 171.027C166.502 143.601 216.453 60.8639 254.097 14.9831C256.173 12.4591 256.635 8.97156 255.291 5.99969Z" fill="url(#paint2_linear_332_17)"/>
<defs>
<linearGradient id="paint0_linear_332_17" x1="269.126" y1="268.366" x2="269.126" y2="18.6748" gradientUnits="userSpaceOnUse">
<stop stop-color="#008E34"/>
<stop offset="1" stop-color="#0F602C"/>
</linearGradient>
<linearGradient id="paint1_linear_332_17" x1="408.939" y1="179.714" x2="408.939" y2="0.0239258" gradientUnits="userSpaceOnUse">
<stop stop-color="#008E34"/>
<stop offset="1" stop-color="#0F602C"/>
</linearGradient>
<linearGradient id="paint2_linear_332_17" x1="128.026" y1="179.714" x2="128.026" y2="0" gradientUnits="userSpaceOnUse">
<stop stop-color="#008E34"/>
<stop offset="1" stop-color="#0F602C"/>
</linearGradient>
</defs>
</svg>
