<svg width="225" height="230" viewBox="0 0 225 230" fill="none" xmlns="http://www.w3.org/2000/svg">
<g style="mix-blend-mode:multiply" opacity="0.28">
<path fill-rule="evenodd" clip-rule="evenodd" d="M113.091 104.309C111.655 104.371 110.305 103.645 109.567 102.413L84.9725 61.5489C76.8973 48.2529 72.8341 37.3913 72.8341 28.9812C72.8341 20.0434 76.3014 12.9783 83.2077 7.76881C90.0401 2.59906 99.5341 0 111.593 0C123.652 0 133.884 2.56501 141.278 7.67234C148.587 12.7229 152.253 19.6065 152.253 28.3457C152.253 33.8729 150.692 39.945 147.566 46.6526C144.507 53.2183 134.15 71.7863 116.309 102.373C115.639 103.525 114.425 104.258 113.097 104.314L113.091 104.309Z" fill="#08A03F"/>
<path fill-rule="evenodd" clip-rule="evenodd" d="M112.921 125.584C111.582 125.584 110.345 126.287 109.652 127.434L84.9725 168.451C76.8973 181.747 72.8341 192.603 72.8341 201.019C72.8341 209.934 76.3014 217.022 83.2077 222.231C90.0401 227.401 99.5341 230 111.593 230C123.652 230 133.884 227.435 141.278 222.328C148.587 217.277 152.253 210.371 152.253 201.66C152.253 196.133 150.692 190.061 147.566 183.353C144.501 176.776 134.116 158.163 116.224 127.485C115.543 126.31 114.283 125.589 112.927 125.589L112.921 125.584Z" fill="#08A03F"/>
<path fill-rule="evenodd" clip-rule="evenodd" d="M117.773 120.573C117.308 121.81 117.535 123.206 118.375 124.227C134.1 143.448 154.915 177.866 173.704 189.295C180.815 193.642 188.181 194.084 195.813 190.64C203.366 187.252 209.552 182.269 215.607 171.873C221.849 161.176 224.8 151.404 224.46 142.568C224.119 133.795 220.453 127.286 213.502 123.064C209.098 120.38 203.486 118.78 196.596 118.218C189.855 117.673 155.057 117.622 121.178 118.178C119.657 118.201 118.307 119.154 117.773 120.579V120.573Z" fill="#08A03F"/>
<path fill-rule="evenodd" clip-rule="evenodd" d="M117.688 109.495C118.29 110.528 119.391 111.175 120.588 111.192C154.648 111.76 189.815 111.709 196.596 111.158C203.486 110.602 209.092 108.996 213.502 106.312C220.448 102.09 224.119 95.5751 224.46 86.8075C224.8 77.9719 221.855 68.1999 215.607 57.5029C209.558 47.1066 203.366 42.1185 195.813 38.7363C188.181 35.2973 180.815 35.7343 173.704 40.0812C154.767 51.601 133.771 86.4784 118 105.608C117.092 106.709 116.967 108.264 117.688 109.501V109.495Z" fill="#08A03F"/>
<path fill-rule="evenodd" clip-rule="evenodd" d="M106.758 120.283C106.185 119.018 104.937 118.195 103.552 118.172C69.5996 117.61 34.6711 117.661 27.9125 118.212C21.0062 118.774 15.3938 120.374 10.9902 123.058C4.03287 127.286 0.366948 133.795 0.0264597 142.568C-0.314029 151.404 2.6312 161.176 8.88483 171.873C14.9512 182.269 21.1424 187.257 28.6899 190.639C36.3225 194.084 43.6941 193.641 50.7819 189.295C69.6279 177.826 90.5169 143.226 106.259 124.04C107.127 122.984 107.32 121.526 106.758 120.283Z" fill="#08A03F"/>
<path fill-rule="evenodd" clip-rule="evenodd" d="M106.389 109.456C107.224 108.111 107.116 106.38 106.111 105.154C90.3864 85.9336 69.5655 51.5103 50.7762 40.0812C43.6884 35.7343 36.3168 35.2973 28.6842 38.7363C21.1367 42.1241 14.9455 47.1066 8.87916 57.5028C2.6312 68.1999 -0.314028 77.9719 0.0264605 86.8075C0.366949 95.5808 4.03287 102.09 10.9845 106.312C15.3882 108.996 21.0005 110.602 27.9068 111.158C34.6484 111.703 69.4293 111.754 103.302 111.198C104.562 111.175 105.725 110.517 106.389 109.45V109.456Z" fill="#08A03F"/>
</g>
</svg>
