<svg width="85" height="102" viewBox="0 0 85 102" fill="none" xmlns="http://www.w3.org/2000/svg">
<path d="M18.1022 0.961102H63.8217V77.0011H18.1022V0.961102ZM17.1463 77.9622H64.781V0H17.1463V77.9622Z" fill="white"/>
<path fill-rule="evenodd" clip-rule="evenodd" d="M41.3169 63.207H40.8883L38.3336 58.9419C37.5376 57.6217 37.1328 56.5409 37.1328 55.7029C37.1328 54.8136 37.4763 54.1091 38.1601 53.5892C38.837 53.0761 39.7759 52.8162 40.9699 52.8162C42.1639 52.8162 43.1777 53.0693 43.909 53.5755C44.6336 54.0783 44.9942 54.7658 44.9942 55.6345C44.9942 56.1852 44.8411 56.7872 44.5316 57.4541C44.2254 58.1211 43.1572 60.0399 41.3203 63.2002L41.3169 63.207Z" fill="white"/>
<path fill-rule="evenodd" clip-rule="evenodd" d="M41.3169 65.3104H40.8883L38.3336 69.5755C37.5376 70.8992 37.1328 71.98 37.1328 72.8146C37.1328 73.7038 37.4763 74.4084 38.1601 74.9249C38.837 75.4379 39.7759 75.6979 40.9699 75.6979C42.1639 75.6979 43.1777 75.4448 43.909 74.9386C44.6336 74.4358 44.9942 73.7483 44.9942 72.8795C44.9942 72.3289 44.8411 71.7269 44.5316 71.0599C44.2254 70.393 43.1572 68.4776 41.3203 65.3104" fill="white"/>
<path fill-rule="evenodd" clip-rule="evenodd" d="M41.6674 64.5752L41.4531 64.948C43.0281 66.8052 45.1814 70.4649 47.117 71.6518C47.8212 72.0827 48.5492 72.1272 49.3078 71.7852C50.0561 71.4465 50.6685 70.954 51.2706 69.9177C51.8897 68.854 52.1788 67.8826 52.1448 67.0002C52.1108 66.128 51.7468 65.4815 51.0597 65.0609C50.6242 64.7941 50.0698 64.6367 49.3826 64.5786C48.7023 64.5239 45.1032 64.5204 41.6674 64.5786V64.5752Z" fill="white"/>
<path fill-rule="evenodd" clip-rule="evenodd" d="M41.6674 63.8775L41.4531 63.5047C43.0281 61.6474 45.1814 57.9843 47.117 56.8009C47.8212 56.3699 48.5492 56.3255 49.3078 56.6675C50.0561 57.0061 50.6685 57.4986 51.2706 58.535C51.8897 59.5987 52.1788 60.5701 52.1448 61.4491C52.1108 62.3212 51.7468 62.9711 51.0597 63.3884C50.6242 63.6552 50.0698 63.8125 49.3826 63.8672C48.7023 63.9254 45.1032 63.9288 41.6674 63.8672V63.8741V63.8775Z" fill="white"/>
<path fill-rule="evenodd" clip-rule="evenodd" d="M40.3971 64.5752L40.6114 64.948C39.0364 66.8052 36.8831 70.4649 34.9509 71.6518C34.2467 72.0827 33.5154 72.1272 32.7636 71.7852C32.0152 71.4465 31.4029 70.954 30.8008 69.9177C30.1816 68.854 29.8925 67.8826 29.9265 67.0002C29.9605 66.128 30.3245 65.4815 31.0117 65.0609C31.4471 64.7941 32.0016 64.6367 32.6887 64.5786C33.3691 64.5239 36.9681 64.5204 40.4039 64.5786H40.4005L40.3971 64.5752Z" fill="white"/>
<path fill-rule="evenodd" clip-rule="evenodd" d="M40.3971 63.8775L40.6114 63.5047C39.0364 61.6474 36.8831 57.9843 34.9509 56.8009C34.2467 56.3699 33.5154 56.3255 32.7636 56.6675C32.0152 57.0061 31.4029 57.4986 30.8008 58.535C30.1816 59.5987 29.8925 60.5701 29.9265 61.4491C29.9605 62.3212 30.3245 62.9711 31.0117 63.3884C31.4471 63.6552 32.0016 63.8125 32.6887 63.8672C33.3691 63.9254 36.9681 63.9288 40.4039 63.8672V63.8741L40.3971 63.8775Z" fill="white"/>
<path fill-rule="evenodd" clip-rule="evenodd" d="M55.5887 50.3502H55.3233L53.7347 47.6995C53.2381 46.8752 52.9863 46.2048 52.9863 45.6884C52.9863 45.1343 53.2006 44.6965 53.6259 44.375C54.0477 44.0569 54.6294 43.8961 55.371 43.8961C56.1125 43.8961 56.7419 44.0535 57.1977 44.3681C57.6501 44.6828 57.8746 45.1103 57.8746 45.6507C57.8746 45.9928 57.7794 46.369 57.5889 46.7828C57.3984 47.1967 56.7351 48.387 55.5921 50.3571L55.5887 50.3502Z" fill="white"/>
<path fill-rule="evenodd" clip-rule="evenodd" d="M55.5887 51.6602H55.3233L53.7347 54.3109C53.2381 55.1352 52.9863 55.8056 52.9863 56.3254C52.9863 56.8761 53.2006 57.3139 53.6259 57.6388C54.0477 57.9569 54.6294 58.1177 55.371 58.1177C56.1125 58.1177 56.7419 57.9603 57.1977 57.6457C57.6501 57.3344 57.8746 56.9035 57.8746 56.3631C57.8746 56.021 57.7794 55.6448 57.5889 55.2309C57.3984 54.8171 56.7351 53.6268 55.5921 51.6567L55.5887 51.6602Z" fill="white"/>
<path fill-rule="evenodd" clip-rule="evenodd" d="M55.806 51.2052L55.6699 51.4343C56.6496 52.587 57.9865 54.8649 59.1907 55.6003C59.6262 55.867 60.082 55.8944 60.548 55.6823C61.0141 55.4737 61.3951 55.1659 61.7693 54.5194C62.1537 53.8593 62.3373 53.2539 62.3135 52.7067C62.2931 52.1629 62.0652 51.7627 61.64 51.5027C61.3679 51.3386 61.0243 51.2394 60.5991 51.2018C60.1738 51.1676 57.9355 51.1641 55.806 51.2018V51.2052Z" fill="white"/>
<path fill-rule="evenodd" clip-rule="evenodd" d="M55.806 50.7674L55.6699 50.5383C56.6496 49.3856 57.9865 47.1077 59.1907 46.3724C59.6262 46.1056 60.082 46.0782 60.548 46.2903C61.0141 46.4989 61.3951 46.8067 61.7693 47.4532C62.1537 48.1133 62.3373 48.7187 62.3135 49.2659C62.2931 49.8098 62.0652 50.2099 61.64 50.4699C61.3679 50.6341 61.0243 50.7367 60.5991 50.7709C60.1738 50.8051 57.9355 50.8085 55.806 50.7709V50.7674Z" fill="white"/>
<path fill-rule="evenodd" clip-rule="evenodd" d="M55.0179 51.2052L55.1505 51.4343C54.1708 52.587 52.8339 54.8649 51.6297 55.6003C51.1909 55.867 50.7385 55.8944 50.269 55.6823C49.8064 55.4737 49.422 55.1659 49.0478 54.5194C48.6634 53.8593 48.4831 53.2539 48.5035 52.7067C48.5239 52.1629 48.7518 51.7627 49.1771 51.5027C49.4492 51.3386 49.7928 51.2394 50.218 51.2018C50.6432 51.1676 52.8782 51.1641 55.0111 51.2018L55.0179 51.2052Z" fill="white"/>
<path fill-rule="evenodd" clip-rule="evenodd" d="M55.0179 50.7674L55.1505 50.5383C54.1708 49.3856 52.8339 47.1077 51.6297 46.3724C51.1909 46.1056 50.7385 46.0782 50.269 46.2903C49.8064 46.4989 49.422 46.8067 49.0478 47.4532C48.6634 48.1133 48.4831 48.7187 48.5035 49.2659C48.5239 49.8098 48.7518 50.2099 49.1771 50.4699C49.4492 50.6341 49.7928 50.7367 50.218 50.7709C50.6432 50.8051 52.8782 50.8085 55.0111 50.7709L55.0179 50.7674Z" fill="white"/>
<path fill-rule="evenodd" clip-rule="evenodd" d="M26.8605 50.3502H26.5952L25.0066 47.6995C24.5099 46.8752 24.2616 46.2048 24.2616 45.6883C24.2616 45.1343 24.4725 44.6965 24.9011 44.3749C25.323 44.0569 25.9047 43.8961 26.6462 43.8961C27.3878 43.8961 28.0171 44.0534 28.473 44.3681C28.922 44.6828 29.1465 45.1103 29.1465 45.6507C29.1465 45.9927 29.0513 46.369 28.8608 46.7828C28.6703 47.1967 28.0069 48.3869 26.864 50.357L26.8605 50.3502Z" fill="white"/>
<path fill-rule="evenodd" clip-rule="evenodd" d="M26.8605 51.6601H26.5952L25.0066 54.3109C24.5099 55.1352 24.2616 55.8055 24.2616 56.3254C24.2616 56.8761 24.4725 57.3139 24.9011 57.6388C25.323 57.9569 25.9047 58.1177 26.6462 58.1177C27.3878 58.1177 28.0171 57.9603 28.473 57.6456C28.922 57.3344 29.1465 56.9034 29.1465 56.363C29.1465 56.021 29.0513 55.6448 28.8608 55.2309C28.6703 54.8171 28.0069 53.6268 26.864 51.6567L26.8605 51.6601Z" fill="white"/>
<path fill-rule="evenodd" clip-rule="evenodd" d="M27.078 51.2052L26.9453 51.4343C27.925 52.587 29.2619 54.8649 30.4661 55.6003C30.9049 55.867 31.3574 55.8944 31.8268 55.6823C32.2895 55.4737 32.6739 55.1659 33.0481 54.5194C33.4324 53.8593 33.6127 53.2539 33.5923 52.7067C33.5719 52.1629 33.344 51.7627 32.9188 51.5027C32.6466 51.3386 32.3031 51.2394 31.8778 51.2018C31.4526 51.1676 29.2177 51.1641 27.0848 51.2018L27.078 51.2052Z" fill="white"/>
<path fill-rule="evenodd" clip-rule="evenodd" d="M27.078 50.7674L26.9453 50.5383C27.925 49.3856 29.2619 47.1077 30.4661 46.3724C30.9049 46.1056 31.3574 46.0782 31.8268 46.2903C32.2895 46.4989 32.6739 46.8067 33.0481 47.4532C33.4324 48.1133 33.6127 48.7187 33.5923 49.2659C33.5719 49.8098 33.344 50.2099 32.9188 50.4699C32.6466 50.6341 32.3031 50.7367 31.8778 50.7709C31.4526 50.8051 29.2177 50.8085 27.0848 50.7709L27.078 50.7674Z" fill="white"/>
<path fill-rule="evenodd" clip-rule="evenodd" d="M26.2898 51.2052L26.4259 51.4343C25.4462 52.587 24.1093 54.8649 22.9051 55.6003C22.4663 55.867 22.0138 55.8944 21.5444 55.6823C21.0784 55.4737 20.6974 55.1659 20.3232 54.5194C19.9388 53.8593 19.7585 53.2539 19.7789 52.7067C19.7993 52.1629 20.0272 51.7627 20.4524 51.5027C20.7246 51.3386 21.0682 51.2394 21.4934 51.2018C21.9186 51.1676 24.1535 51.1641 26.2864 51.2018L26.2898 51.2052Z" fill="white"/>
<path fill-rule="evenodd" clip-rule="evenodd" d="M26.2898 50.7674L26.4259 50.5383C25.4462 49.3856 24.1093 47.1077 22.9051 46.3724C22.4663 46.1056 22.0138 46.0782 21.5444 46.2903C21.0784 46.4989 20.6974 46.8067 20.3232 47.4532C19.9388 48.1133 19.7585 48.7187 19.7789 49.2659C19.7993 49.8098 20.0272 50.2099 20.4524 50.4699C20.7246 50.6341 21.0682 50.7367 21.4934 50.7709C21.9186 50.8051 24.1535 50.8085 26.2864 50.7709L26.2898 50.7674Z" fill="white"/>
<path fill-rule="evenodd" clip-rule="evenodd" d="M41.0004 41.235C40.6024 41.259 40.0309 41.5702 39.8812 41.7515C38.7995 43.0683 36.7414 44.1833 35.3229 43.2667C35.0372 43.082 34.6732 42.7844 34.5167 42.4698C34.1561 41.7515 34.2071 41.1906 34.663 40.5715C34.9181 40.2295 35.0474 40.055 35.0474 40.0448C35.0372 39.9798 34.7922 39.6617 34.401 39.0939C34.282 38.9229 34.2445 38.7827 34.2207 38.6732C33.884 36.9391 36.3468 35.5266 37.7449 36.2482C38.1259 36.4432 38.609 36.6553 38.9594 36.9528C39.7248 37.6061 40.2963 38.4167 41.2011 38.4817C42.0278 38.5398 43.0891 36.7271 44.375 36.1764C45.8819 35.5266 48.1645 36.7579 47.8652 38.6014C47.8481 38.7109 47.8039 38.8511 47.6849 39.0221C47.2903 39.5899 47.0453 39.9045 47.0385 39.9729C47.0385 39.9832 47.1678 40.1576 47.4229 40.4997C47.8788 41.1187 47.9264 41.6797 47.5692 42.3979C47.4127 42.7092 47.0487 43.0102 46.7596 43.1949C45.3411 44.1149 43.1809 43.1812 42.1298 41.7857C41.8441 41.4095 41.4358 41.2077 41.0038 41.2316L41.0004 41.235Z" fill="white"/>
<path fill-rule="evenodd" clip-rule="evenodd" d="M41.0004 32.8998C40.6024 32.9237 40.0309 33.235 39.8812 33.4197C38.7995 34.7365 36.7414 35.8515 35.3229 34.9349C35.0372 34.7502 34.6732 34.4526 34.5167 34.1379C34.1561 33.4197 34.2071 32.8587 34.663 32.2397C34.9181 31.8976 35.0474 31.7232 35.0474 31.7129C35.0372 31.648 34.7922 31.3299 34.401 30.7621C34.282 30.5911 34.2445 30.4543 34.2207 30.3448C33.884 28.6107 36.3468 27.1981 37.7449 27.9198C38.1259 28.1182 38.609 28.3268 38.9594 28.6244C39.7248 29.2777 40.2963 30.0883 41.2011 30.1533C42.0278 30.2114 43.0891 28.3987 44.375 27.848C45.8819 27.1981 48.1645 28.4329 47.8652 30.273C47.8481 30.3859 47.8039 30.5227 47.6849 30.6937C47.2903 31.2615 47.0453 31.5795 47.0385 31.6445C47.0385 31.6548 47.1678 31.8292 47.4229 32.1713C47.8788 32.7903 47.9264 33.3513 47.5692 34.0695C47.4127 34.3842 47.0487 34.6818 46.7596 34.8664C45.3411 35.7865 43.1809 34.8528 42.1298 33.4607C41.8441 33.0845 41.4358 32.8827 41.0038 32.9066L41.0004 32.8998Z" fill="white"/>
<path fill-rule="evenodd" clip-rule="evenodd" d="M41.0004 24.3628C40.6024 24.3833 40.0309 24.698 39.8812 24.8827C38.7995 26.1995 36.7414 27.3145 35.3229 26.3979C35.0372 26.2132 34.6732 25.9156 34.5167 25.6009C34.1561 24.8827 34.2071 24.3217 34.663 23.7027C34.9181 23.3606 35.0474 23.1828 35.0474 23.176C35.0372 23.111 34.7922 22.7929 34.401 22.2285C34.282 22.0575 34.2445 21.9173 34.2207 21.8078C33.884 20.0737 36.3468 18.6612 37.7449 19.3828C38.1259 19.5812 38.609 19.7899 38.9594 20.0874C39.7248 20.7441 40.2963 21.5513 41.2011 21.6163C42.0278 21.6744 43.0891 19.8617 44.375 19.311C45.8819 18.6612 48.1645 19.8959 47.8652 21.736C47.8481 21.8455 47.8039 21.9857 47.6849 22.1567C47.2903 22.7245 47.0453 23.0391 47.0385 23.1075C47.0385 23.1178 47.1678 23.2922 47.4229 23.6343C47.8788 24.2499 47.9264 24.8143 47.5692 25.5325C47.4127 25.8438 47.0487 26.1448 46.7596 26.3295C45.3411 27.2495 43.1809 26.3124 42.1298 24.9203C41.8441 24.5441 41.4358 24.3423 41.0038 24.3662L41.0004 24.3628Z" fill="white"/>
<path fill-rule="evenodd" clip-rule="evenodd" d="M41.0004 15.9282C40.6024 15.9488 40.0309 16.2634 39.8812 16.4481C38.7995 17.7649 36.7414 18.88 35.3229 17.9633C35.0372 17.7786 34.6732 17.4811 34.5167 17.1664C34.1561 16.4481 34.2071 15.8872 34.663 15.2681C34.9181 14.9227 35.0474 14.7517 35.0474 14.7414C35.0372 14.6764 34.7922 14.3583 34.401 13.7906C34.282 13.6195 34.2445 13.4827 34.2207 13.3733C33.884 11.6392 36.3468 10.2266 37.7449 10.9483C38.1259 11.1467 38.609 11.3553 38.9594 11.6529C39.7248 12.3061 40.2963 13.1168 41.2011 13.1817C42.0278 13.2399 43.0891 11.4271 44.375 10.8765C45.8819 10.2266 48.1645 11.4579 47.8652 13.3049C47.8481 13.4143 47.8039 13.5546 47.6849 13.7222C47.2903 14.2899 47.0453 14.608 47.0385 14.6696C47.0385 14.6798 47.1678 14.8543 47.4229 15.1963C47.8788 15.8154 47.9264 16.3763 47.5692 17.0946C47.4127 17.4058 47.0487 17.7068 46.7596 17.8915C45.3411 18.8115 43.1809 17.8744 42.1298 16.4823C41.8441 16.1061 41.4358 15.9043 41.0038 15.9282H41.0004Z" fill="white"/>
<path fill-rule="evenodd" clip-rule="evenodd" d="M41.0112 8.24637C40.722 8.26347 40.307 8.48921 40.1948 8.6226C39.4056 9.58371 37.9088 10.3943 36.8712 9.72394C36.6637 9.59055 36.3984 9.37165 36.2861 9.14249C36.0242 8.61918 36.0582 8.21217 36.3916 7.75727C36.5787 7.50759 36.6739 7.38104 36.6705 7.3742C36.6637 7.32973 36.4868 7.09373 36.1977 6.67988C36.1127 6.55333 36.082 6.45414 36.0684 6.37547C35.8201 5.10996 37.6162 4.08045 38.6368 4.60718C38.9157 4.75083 39.2661 4.90817 39.5212 5.12364C40.0825 5.59906 40.4941 6.19078 41.154 6.23866C41.7562 6.2797 42.5318 4.96289 43.4672 4.55588C44.5626 4.08387 46.2261 4.97999 46.0083 6.32759C45.9947 6.40967 45.9641 6.50886 45.8791 6.63199C45.5933 7.04585 45.4164 7.27501 45.4062 7.32631C45.4062 7.33315 45.5015 7.45971 45.6852 7.70939C46.0185 8.16087 46.056 8.56788 45.794 9.09461C45.6784 9.32377 45.4164 9.54266 45.2089 9.67606C44.1714 10.3464 42.5964 9.66579 41.8344 8.64997C41.6269 8.37634 41.3275 8.22585 41.0146 8.24637H41.0112Z" fill="white"/>
<path fill-rule="evenodd" clip-rule="evenodd" d="M41.0004 49.7756C40.6024 49.7961 40.0309 50.1108 39.8812 50.2955C38.7995 51.6123 36.7414 52.7273 35.3229 51.8106C35.0372 51.626 34.6732 51.3284 34.5167 51.0137C34.1561 50.2955 34.2071 49.7345 34.663 49.1155C34.9181 48.7734 35.0474 48.5956 35.0474 48.5887C35.0372 48.5237 34.7922 48.2057 34.401 47.6379C34.282 47.4669 34.2445 47.3301 34.2207 47.2172C33.884 45.4831 36.3468 44.0705 37.7449 44.7922C38.1259 44.9906 38.609 45.1992 38.9594 45.4968C39.7248 46.1501 40.2963 46.9607 41.2011 47.0257C42.0278 47.0838 43.0891 45.271 44.375 44.7204C45.8819 44.0705 48.1645 45.3053 47.8652 47.1454C47.8481 47.2548 47.8039 47.3951 47.6849 47.5661C47.2903 48.1338 47.0453 48.4485 47.0385 48.5135C47.0385 48.5237 47.1678 48.6982 47.4229 49.0402C47.8788 49.6593 47.9264 50.2202 47.5692 50.9385C47.4127 51.2497 47.0487 51.5507 46.7596 51.7354C45.3411 52.6555 43.1809 51.7183 42.1298 50.3262C41.8441 49.95 41.4358 49.7482 41.0038 49.7722L41.0004 49.7756Z" fill="white"/>
<path d="M41.6103 2.77728L41.7566 52.7786H40.6442L40.4979 2.77728H41.6103Z" fill="white"/>
<path fill-rule="evenodd" clip-rule="evenodd" d="M65.623 101.678V82.5146H72.1476L78.0292 91.0927V82.5146H84.0809V101.678L78.1075 101.596L72.6919 94.0136L72.5354 101.678H65.623Z" fill="white"/>
<path d="M62.6193 82.5146H56.1662V101.675H62.6193V82.5146Z" fill="white"/>
<path fill-rule="evenodd" clip-rule="evenodd" d="M15.6582 82.5146H22.5501V92.0435C22.5501 93.1825 21.9038 96.5275 24.5776 96.6062C26.5744 96.6643 26.3873 93.4629 26.3873 92.0435V82.5146H33.2078V93.3501C33.2078 96.3394 32.4969 98.525 31.0817 99.917C29.6598 101.306 27.4146 102 24.3463 102C21.2779 102 19.0906 101.316 17.7197 99.9444C16.3488 98.5694 15.6616 96.3736 15.6616 93.3501V82.5146H15.6582Z" fill="white"/>
<path fill-rule="evenodd" clip-rule="evenodd" d="M14.7126 96.7498V101.702H0V82.5146H6.77628V96.7498H14.7126Z" fill="white"/>
<path fill-rule="evenodd" clip-rule="evenodd" d="M36.6913 101.678V82.518H46.1685C48.4783 82.518 50.1554 82.9797 51.1997 83.9032C54.2647 86.6052 54.7307 90.7438 51.7916 93.7639C50.6963 94.8892 49.3253 95.4535 48.0191 95.4535H43.2838V101.682H36.6913V101.678ZM43.3111 87.6792V90.4872H45.3045C46.7672 90.4872 47.1618 89.598 47.1618 89.1225C47.1618 87.9836 46.2944 87.6792 45.7127 87.6792H43.3111Z" fill="white"/>
</svg>
