<svg width="28" height="28" viewBox="0 0 28 28" fill="none" xmlns="http://www.w3.org/2000/svg">
<path d="M26.5257 23.2022C25.4498 24.8711 24.5056 26.5838 20.0041 26.6936C15.4148 26.6936 10.6498 22.8948 7.18039 19.096C3.73292 15.7144 0.54895 11.3667 0.54895 7.15065C0.658742 2.64918 2.3715 1.72693 4.04033 0.650965C4.04033 0.650965 4.94063 0.277672 5.75309 0.958382C6.54359 1.63909 10.013 5.13048 10.013 5.13048C10.013 5.13048 11.2427 6.16252 10.4083 7.30436C9.72756 8.20465 8.16851 9.87349 7.94893 10.0931L8.54181 11.213C9.33231 12.5085 10.8255 14.7702 13.0652 16.6147C14.5804 17.8663 17.1275 19.2278 17.1275 19.2278C17.5008 18.8764 19.016 17.4711 19.8723 16.8343C21.0142 15.9779 22.0462 17.2076 22.0462 17.2076C22.0462 17.2076 25.5156 20.677 26.2183 21.4895C26.921 22.28 26.5257 23.2022 26.5257 23.2022Z" stroke="white" stroke-width="1.09792" stroke-miterlimit="10" stroke-linecap="round" stroke-linejoin="round"/>
</svg>
