<svg width="21" height="46" viewBox="0 0 21 46" fill="none" xmlns="http://www.w3.org/2000/svg">
<path d="M5.04373 5.69331C6.57214 1.91051 9.85821 0 14.9401 0H16.0482C19.1051 0 20.6717 0.229261 20.6717 0.649572V7.22171H16.2775C13.641 7.45097 12.3037 8.7119 12.3037 10.9663V16.2393C12.3037 16.545 12.4565 16.6596 12.724 16.6596H20.2131V17.0799C19.7546 21.8944 19.3725 24.3016 19.1051 24.3016H12.724C12.4947 24.3016 12.3419 24.4545 12.3037 24.7601V45.2026H4.50879L4.39416 43.8652V25.0276C4.1649 24.5691 3.97385 24.3398 3.74459 24.3398H0V16.6978H3.74459C4.1649 16.4686 4.39416 16.2393 4.39416 16.01L4.1649 9.20864C4.47058 7.64202 4.73805 6.49572 5.04373 5.69331Z" fill="white"/>
</svg>
