<svg width="40" height="41" viewBox="0 0 40 41" fill="none" xmlns="http://www.w3.org/2000/svg">
<path d="M0.436335 8.4371C2.37474 2.81108 6.2284 0 12.0012 0H28.1842L30.9837 0.216237L33.7484 1.12366C37.8955 2.94237 39.9652 6.78443 39.9652 12.6499V27.5239C39.9652 32.1768 38.7064 35.5131 36.1849 37.5248C35.069 39.1505 30.779 39.9614 23.3111 39.9614C13.565 40.2278 7.79611 39.8532 6.00058 38.8338C2.00019 36.7294 0 32.5205 0 26.2187V14.6539C0 12.229 0.146732 10.1554 0.436335 8.4371ZM5.34414 6.43691C4.15484 6.43691 3.56405 10.1361 3.56405 17.5268V22.4346C3.56405 26.3848 3.71078 29.3426 4.00038 31.308C4.94642 34.8489 8.20542 36.6174 13.7812 36.6174C17.1252 36.4707 20.3031 36.4012 23.3073 36.4012H29.7442C33.5746 36.4012 35.8644 33.6635 36.6174 28.1842V12.4375C36.6174 6.52186 33.8063 3.56405 28.1803 3.56405H12.6537C8.96997 3.56405 6.53344 4.52167 5.34414 6.43691ZM10.4373 16.8742C12.2328 12.1479 15.4185 9.78472 20.0019 9.78472H20.2182C22.2801 9.78472 24.2649 10.4527 26.1801 11.7849C28.9912 14.1867 30.3967 16.7661 30.3967 19.5308V20.0019C30.3967 24.875 27.744 28.2691 22.4346 30.1844H17.9979C12.5186 28.3193 9.78086 24.9985 9.78086 20.222C9.97393 18.3068 10.194 17.1908 10.4373 16.8781V16.8742ZM13.3102 20.2182C13.4299 21.4538 13.5882 22.1952 13.7812 22.4384C15.1134 25.3963 17.2603 26.8752 20.2182 26.8752C23.9521 26.8752 26.1685 24.5854 26.8713 20.0019C26.8713 19.1524 26.7979 18.6311 26.6551 18.4381C25.5623 15.0207 23.4192 13.3102 20.2182 13.3102H20.0019C16.0749 13.3102 13.843 15.6154 13.3102 20.2182ZM30.6207 6.87325C32.0764 6.87325 32.9723 7.76908 33.3121 9.56462C32.6827 11.0435 31.8679 11.7849 30.8755 11.7849C29.8832 11.7849 29.0568 11.0474 28.4043 9.56462C28.4043 8.23245 29.1456 7.33275 30.6246 6.87325H30.6207Z" fill="white"/>
</svg>
