<svg width="39" height="38" viewBox="0 0 39 38" fill="none" xmlns="http://www.w3.org/2000/svg">
<path d="M4.61446 0C7.88547 0.449314 9.52097 2.00394 9.52097 4.6549V4.91101C8.67626 7.47659 7.12163 8.76163 4.86607 8.76163C2.10279 8.76163 0.480766 7.47659 0 4.91101V3.34739C1.07386 1.1143 2.61052 0 4.61446 0ZM1.01545 12.1H8.20897L8.7167 13.1155V36.5562C8.7167 36.8932 8.54596 37.0639 8.20897 37.0639H1.01545C0.732382 37.0639 0.566136 36.8932 0.507725 36.5562V12.6078C0.507725 12.3247 0.678465 12.1584 1.01545 12.1ZM28.0103 11.5923H30.5893C31.0701 11.5923 32.3506 12.0147 34.4399 12.8639C37.2032 15.2902 38.5871 17.9546 38.5871 20.8617V37.0684H30.8454C30.5624 37.0684 30.3961 36.8977 30.3377 36.5607V23.4452C30.3377 19.8327 28.8864 18.031 25.9794 18.031C23.4677 18.031 22.0029 19.8372 21.5806 23.4452V36.5607C21.5806 36.8977 21.4098 37.0684 21.0728 37.0684H13.8793C13.5962 37.0684 13.43 36.8977 13.3716 36.5607V12.1H21.5806V14.6791H22.1287C24.0473 12.7066 26.0063 11.6732 28.0103 11.5923Z" fill="white"/>
</svg>
