<svg width="30" height="23" viewBox="0 0 30 23" fill="none" xmlns="http://www.w3.org/2000/svg">
<path opacity="0.5" d="M28.4792 0.750574C27.9821 0.269961 27.3191 6.12678e-05 26.6278 6.12678e-05H2.66349C1.97217 -0.00467383 1.30689 0.265226 0.812069 0.750574C0.295943 1.25249 0.00236755 1.94382 0 2.66355V19.4471C0 20.9174 1.19325 22.1106 2.66349 22.1106H26.6278C28.0981 22.1106 29.2913 20.9174 29.2913 19.4471V2.66355C29.2913 1.94145 28.9977 1.25249 28.4792 0.750574ZM19.6009 9.5034L28.1217 1.70233C28.1738 1.77809 28.2188 1.86095 28.2543 1.94619C28.2543 1.96513 28.2543 1.98407 28.2543 2.00301C28.2875 2.0835 28.3135 2.16637 28.3348 2.2516V2.33683C28.3538 2.441 28.3656 2.54518 28.3656 2.65172V19.4495C28.3609 19.762 28.2733 20.0698 28.1075 20.3373L19.6009 9.50577V9.5034ZM26.6302 0.89026C26.9238 0.892628 27.2126 0.970757 27.4683 1.11281L15.846 11.7644C15.1689 12.3823 14.1319 12.3823 13.4548 11.7644L1.82775 1.11281C2.08581 0.973125 2.37228 0.897362 2.66586 0.894994L26.6302 0.89026ZM1.14826 20.3491C0.984901 20.0816 0.894933 19.7762 0.890198 19.4613V2.66355C0.890198 2.55701 0.902037 2.45284 0.920977 2.34867V2.26107C0.942285 2.17821 0.968327 2.09534 1.00147 2.01721C1.00147 1.99827 1.00147 1.97933 1.00147 1.96039C1.03699 1.87516 1.08197 1.7923 1.13406 1.71653L9.69511 9.50577L1.14826 20.3515V20.3491ZM2.66586 21.237C2.35334 21.237 2.04556 21.1517 1.77803 20.9884L10.3509 10.1166L12.8487 12.4013C13.8667 13.3341 15.4293 13.3341 16.4474 12.4013L18.9404 10.1166L27.5109 20.9765C27.2434 21.1375 26.9356 21.2251 26.6231 21.2251L2.66349 21.2393L2.66586 21.237Z" fill="white"/>
</svg>
