<svg width="42" height="39" viewBox="0 0 42 39" fill="none" xmlns="http://www.w3.org/2000/svg">
<path d="M40.4657 36.8137C38.6181 34.4118 36.8629 32.0099 35.0614 29.608C31.9667 25.4971 28.9181 21.4323 25.8234 17.3214C25.0843 16.3514 25.0843 16.1204 25.731 15.3814C29.1029 11.8247 32.4286 8.22188 35.7543 4.61904C36.8629 3.41809 38.11 2.26333 39.1262 0.923807C39.3571 0.646665 39.6343 0.415713 39.3571 0H35.8005C35.3848 0.277142 34.8767 0.369523 34.5072 0.785236C33.7219 1.80142 32.7057 2.67904 31.8743 3.64904C29.2415 6.60522 26.47 9.42283 23.8372 12.3328C22.9596 13.2566 22.7286 13.2104 21.9896 12.2404C19.3105 8.6376 16.5853 5.08094 13.9063 1.47809C13.4905 0.923807 13.0286 0.369523 12.382 0H0.049144C-0.0432367 0.646665 0.280096 1.15476 0.649619 1.66285C2.40485 4.06475 4.20628 6.42046 6.0077 8.82236C8.91769 12.6562 11.7815 16.5361 14.6915 20.3699C15.3382 21.2476 15.3382 21.4785 14.7377 22.1714C12.5667 24.5271 10.442 26.8366 8.27103 29.1461C5.73056 31.8713 3.19009 34.6428 0.603428 37.368C0.233905 37.7837 -0.135617 38.1994 0.049144 38.7999H3.6058C3.92913 38.6151 4.29866 38.4766 4.5758 38.1994C6.0077 36.8137 7.30103 35.3818 8.64055 33.9037C11.2734 30.9937 13.9986 28.1761 16.6315 25.2661C17.5091 24.2961 17.6015 24.3423 18.3867 25.3585C21.4353 29.4233 24.4838 33.488 27.5324 37.599C27.9481 38.1532 28.3638 38.6151 29.0105 38.8461C32.8905 38.8461 36.7705 38.8461 40.6505 38.8461C40.8814 38.8461 41.2048 39.0308 41.3433 38.6613C41.02 38.0147 40.8814 37.368 40.4657 36.8137ZM30.581 36.1209C30.1653 36.1209 30.0729 35.7975 29.8881 35.5204C24.0681 27.7604 18.2481 20.0004 12.4282 12.2404C10.3034 9.42283 8.22484 6.60522 6.10008 3.8338C5.86913 3.51047 5.63818 3.18713 5.26866 2.72523C7.07008 2.72523 8.64055 2.77142 10.211 2.72523C10.7653 2.72523 11.0886 2.90999 11.3658 3.32571C16.1234 9.5614 20.7886 15.7971 25.5 22.079C28.7796 26.4671 32.1053 30.9014 35.3848 35.2894C35.5695 35.5204 35.7081 35.7513 35.9852 36.1209C34.0914 36.1209 32.3362 36.1209 30.581 36.1209Z" fill="white"/>
</svg>
