<svg width="45" height="31" viewBox="0 0 45 31" fill="none" xmlns="http://www.w3.org/2000/svg">
<path d="M41.402 1.32924C43.2004 2.5412 44.0996 6.68531 44.0996 13.6443V16.7719C44.0996 21.6979 43.6695 25.2947 42.7703 27.5231C41.9493 29.5952 39.1735 30.6508 34.4821 30.6508H14.3089C8.48369 30.6508 4.73054 30.2989 3.12763 29.5561C1.05557 28.4223 0 23.6527 0 15.2081V14.9735C0.234572 7.50631 0.821002 3.47949 1.75929 2.89306C1.75929 0.938288 8.01455 0 20.5642 0C33.1138 0 40.0727 0.430049 41.402 1.32924ZM17.6711 21.0333H18.3748L28.8524 15.2081C28.5787 14.8562 24.9428 12.8233 17.8666 9.18741H17.632V21.0333H17.6711Z" fill="white"/>
</svg>
