<svg width="94" height="96" viewBox="0 0 94 96" fill="none" xmlns="http://www.w3.org/2000/svg">
<path d="M53.3616 51.5538V7H0.449951V92.6371M53.3616 95V57.4738M66.3638 49.8128L67.3038 46.3029C67.8293 46.7683 68.2577 47.2799 68.5309 47.7661C69.0587 48.7107 69.068 49.2965 68.767 49.8405C68.466 50.3846 67.4798 51.3176 64.7571 51.871C62.0344 52.4266 57.7489 52.5192 51.6762 51.6395C48.1385 51.0537 47.3629 56.4134 50.9214 56.8533C57.3831 57.791 62.1802 57.7724 65.8082 57.0339C69.4361 56.2953 72.0685 54.7557 73.3766 52.3919C74.6847 50.0281 74.2934 47.2753 73.1335 45.1986C69.2324 39.1721 60.7819 37.9103 53.7969 37.1717M54.8665 92.6371L60.4161 71.9299L60.4369 71.9392L64.0695 57.8002M61.9094 23.3847C59.0524 23.5005 56.471 25.4499 55.693 28.3554C54.7299 31.9533 56.8645 35.6159 60.4392 36.5744C64.037 37.5375 67.7252 35.4353 68.6906 31.8375C69.6491 28.2628 67.5122 24.5747 63.9143 23.6093C63.2429 23.4287 62.5692 23.3569 61.9094 23.3847Z" stroke="#003614" stroke-width="0.9" stroke-linecap="round" stroke-linejoin="round"/>
<path opacity="0.2" d="M0.910889 17.8538H20.5994" stroke="#003614" stroke-width="0.543308" stroke-linecap="round" stroke-linejoin="round"/>
<path opacity="0.2" d="M11.075 18.0134V27.3807" stroke="#003614" stroke-width="0.543308" stroke-linecap="round" stroke-linejoin="round"/>
<path opacity="0.2" d="M6.1687 27.3367H25.8572" stroke="#003614" stroke-width="0.543308" stroke-linecap="round" stroke-linejoin="round"/>
<path opacity="0.2" d="M33.7351 77.7539H53.4236" stroke="#003614" stroke-width="0.543308" stroke-linecap="round" stroke-linejoin="round"/>
<path opacity="0.2" d="M43.0593 78.2334V87.603" stroke="#003614" stroke-width="0.543308" stroke-linecap="round" stroke-linejoin="round"/>
<path fill-rule="evenodd" clip-rule="evenodd" d="M17.1012 57.4622C17.3128 57.8333 17.6198 58.1594 17.9459 58.4317C18.3102 58.7422 18.7299 59.0041 19.1878 59.1914C19.6353 59.3632 20.1175 59.4707 20.6066 59.4291C21.1009 59.3909 21.5675 59.1914 21.9543 58.8567L27.5202 51.9968H18.5911C17.9927 52.1044 17.4204 52.3767 17.0249 52.8502C16.6763 53.2769 16.4733 53.818 16.4057 54.3627C16.3363 54.9281 16.3745 55.5109 16.5115 56.0607C16.6294 56.5568 16.815 57.0459 17.1012 57.4639V57.4622Z" fill="#003614"/>
<path fill-rule="evenodd" clip-rule="evenodd" d="M38.5321 52.8485C38.1366 52.375 37.5486 52.0957 36.9502 51.9951H28.0437L33.6183 58.855C33.9895 59.1897 34.4561 59.3892 34.9591 59.4274C35.4326 59.4673 35.9234 59.3597 36.3727 59.1897C36.8306 59.0041 37.2468 58.7405 37.6198 58.43C37.9476 58.1577 38.2563 57.8334 38.4662 57.4605C38.7541 57.0424 38.931 56.5533 39.0472 56.0573C39.1808 55.5074 39.2259 54.9247 39.1496 54.3592C39.0871 53.8146 38.8911 53.2734 38.5356 52.8467L38.5321 52.8485Z" fill="#003614"/>
<path fill-rule="evenodd" clip-rule="evenodd" d="M27.788 52.0403L23.8108 59.8663C23.6703 60.3224 23.6929 60.8254 23.8715 61.2677C24.0502 61.6944 24.3693 62.0673 24.7336 62.3605C25.1048 62.6709 25.5314 62.919 25.9876 63.0907C26.39 63.2502 26.8323 63.3595 27.2677 63.3769C27.7932 63.4306 28.3344 63.3769 28.8478 63.2589C29.4288 63.1271 29.9873 62.9172 30.4903 62.5998C30.9552 62.3136 31.3836 61.9026 31.6299 61.4065C31.8866 60.8723 31.9004 60.2513 31.7305 59.6772L27.7845 52.0386L27.788 52.0403Z" fill="#003614"/>
<path fill-rule="evenodd" clip-rule="evenodd" d="M17.026 50.2918C17.4232 50.7549 17.9939 51.0429 18.5923 51.1435H27.5214L21.9554 44.2749C21.5686 43.9488 21.1021 43.7372 20.6077 43.7077C20.1186 43.6696 19.6364 43.7702 19.1889 43.9488C18.731 44.1344 18.3113 44.3894 17.9471 44.7085C17.621 44.9809 17.3122 45.3052 17.1024 45.6712C16.8162 46.0892 16.6306 46.5939 16.5126 47.0813C16.3739 47.6311 16.3357 48.2052 16.4068 48.7794C16.4762 49.324 16.6774 49.8721 17.026 50.2936V50.2918Z" fill="#003614"/>
<path fill-rule="evenodd" clip-rule="evenodd" d="M36.9537 51.1435C37.5504 51.0429 38.1401 50.755 38.5356 50.2919C38.8911 49.8704 39.0871 49.3223 39.1496 48.7777C39.2259 48.2053 39.1791 47.6295 39.0472 47.0797C38.931 46.5923 38.7541 46.0858 38.4662 45.6695C38.2563 45.3035 37.9476 44.9792 37.6198 44.7069C37.2486 44.3877 36.8306 44.1345 36.3727 43.9472C35.9234 43.7685 35.4343 43.6662 34.9591 43.7061C34.4561 43.7356 33.9912 43.9402 33.6183 44.2733L28.0437 51.1418H36.9502L36.9537 51.1435Z" fill="#003614"/>
<path fill-rule="evenodd" clip-rule="evenodd" d="M27.7884 51.088L31.7344 43.4511C31.9044 42.8753 31.8887 42.2578 31.6338 41.7218C31.3857 41.2258 30.9591 40.8216 30.4942 40.5285C29.9912 40.218 29.431 40.0012 28.8517 39.8625C28.3383 39.7445 27.7971 39.6908 27.2716 39.7445C26.8362 39.7688 26.3939 39.8833 25.9915 40.0377C25.5354 40.2232 25.1087 40.4574 24.7375 40.7748C24.3715 41.0749 24.0541 41.4409 23.8755 41.8675C23.6968 42.315 23.6743 42.8059 23.8147 43.2707L27.7919 51.0828L27.7884 51.088Z" fill="#003614"/>
</svg>
