<svg width="93" height="88" viewBox="0 0 93 88" fill="none" xmlns="http://www.w3.org/2000/svg">
<path d="M17.5774 83.9433L67.5233 35.824L73.2485 41.7928L78.2431 14.1389L50.1021 17.3069L56.2025 23.6803L52.404 27.3491" stroke="#003614" stroke-width="0.91" stroke-miterlimit="10"/>
<path opacity="0.05" fill-rule="evenodd" clip-rule="evenodd" d="M72.6372 17.663C72.2854 17.7873 71.9575 18.0007 71.6729 18.2388C71.3496 18.5037 71.0595 18.8239 70.8275 19.1885C70.6106 19.5465 70.4435 19.9443 70.4035 20.3712C70.3597 20.802 70.4588 21.2339 70.6866 21.6182L75.7205 27.4651L77.1039 19.7904C77.1042 19.2594 76.9588 18.7252 76.6131 18.3119C76.3004 17.9462 75.8667 17.6879 75.409 17.5454C74.9338 17.3981 74.4269 17.3406 73.9331 17.3732C73.4885 17.3977 73.0393 17.4815 72.6357 17.6627L72.6372 17.663Z" fill="#003614"/>
<path opacity="0.05" fill-rule="evenodd" clip-rule="evenodd" d="M73.2858 36.7956C73.7541 36.5291 74.0852 36.0669 74.2644 35.5682L75.6443 27.9128L68.8844 31.6415C68.5392 31.9087 68.2954 32.2788 68.1847 32.7052C68.077 33.106 68.0934 33.5446 68.1699 33.9571C68.2585 34.3794 68.4206 34.778 68.6297 35.1467C68.813 35.4706 69.0439 35.7862 69.3319 36.0244C69.6466 36.3366 70.0396 36.5645 70.448 36.7412C70.8999 36.9412 71.3938 37.0703 71.8916 37.0923C72.3694 37.123 72.8649 37.0384 73.2867 36.7989L73.2858 36.7956Z" fill="#003614"/>
<path opacity="0.05" fill-rule="evenodd" clip-rule="evenodd" d="M75.6448 27.6862L69.5344 23.0552C69.1641 22.8638 68.7282 22.8052 68.3204 22.8902C67.926 22.9777 67.556 23.1942 67.2476 23.4619C66.9233 23.7328 66.644 24.0611 66.4257 24.4266C66.2262 24.7477 66.0638 25.111 65.9814 25.4825C65.8538 25.9259 65.8161 26.3993 65.838 26.8589C65.8612 27.3787 65.9551 27.8913 66.15 28.3728C66.3239 28.8167 66.6109 29.2486 66.9991 29.5372C67.4185 29.8406 67.9501 29.9487 68.4699 29.8916L75.6468 27.6834L75.6448 27.6862Z" fill="#003614"/>
<path fill-rule="evenodd" clip-rule="evenodd" d="M78.8131 18.7072C78.3536 18.9769 78.0177 19.4227 77.8385 19.9215L76.4551 27.5962L83.2211 23.8764C83.5613 23.5944 83.8154 23.2262 83.9174 22.8059C84.0259 22.3914 84.0142 21.9613 83.93 21.549C83.8414 21.1267 83.6873 20.7264 83.4694 20.3639C83.2859 20.0414 83.0549 19.7258 82.7729 19.4887C82.4579 19.178 82.0528 18.9403 81.6522 18.7634C81.2011 18.5589 80.7136 18.4372 80.2091 18.4093C79.7302 18.3846 79.2279 18.4726 78.8117 18.707L78.8131 18.7072Z" fill="#003614"/>
<path fill-rule="evenodd" clip-rule="evenodd" d="M74.9934 35.702C74.9875 36.2304 75.1436 36.7819 75.4804 37.1935C75.7875 37.5644 76.2283 37.8178 76.6867 37.9559C77.1669 38.1102 77.6691 38.1591 78.1621 38.131C78.599 38.1066 79.0617 38.033 79.4641 37.8501C79.8112 37.7264 80.1378 37.5113 80.4227 37.2717C80.7545 37.0021 81.0369 36.682 81.2689 36.3175C81.492 35.9591 81.6558 35.5545 81.6951 35.1398C81.7477 34.7029 81.6438 34.2717 81.4154 33.8996L76.3754 28.0439L74.9955 35.6992L74.9934 35.702Z" fill="#003614"/>
<path fill-rule="evenodd" clip-rule="evenodd" d="M76.4633 27.8341L82.4161 32.4089C82.8847 32.6442 83.4178 32.7265 83.918 32.5904C84.3828 32.454 84.7963 32.1499 85.1202 31.7958C85.465 31.4116 85.7382 30.9636 85.9472 30.4872C86.1281 30.0642 86.2582 29.6074 86.2934 29.1473C86.34 28.7694 86.3101 28.3715 86.2398 28.0017C86.1509 27.5808 86.0158 27.1778 85.8005 26.8096C85.5992 26.4486 85.3339 26.119 84.9948 25.8994C84.6378 25.6765 84.2194 25.5811 83.7981 25.6298L76.4673 27.8379L76.4633 27.8341Z" fill="#003614"/>
<path d="M25.4639 50.9178L11.9021 64.4796C10.9495 65.4322 10.9495 66.9759 11.9021 67.9265C12.8174 68.8418 14.2904 68.883 15.2547 68.0169L28.2273 56.3681C28.2273 56.3681 30.2012 59.212 29.176 60.3178C28.4335 61.1172 23.3545 64.1045 20.5989 65.6993C19.6071 66.2728 19.2398 67.5219 19.7603 68.5433C20.2945 69.5901 21.5692 70.0143 22.6258 69.4978L32.0199 64.8999C32.0199 64.8999 35.2704 63.9081 34.9424 59.6873C34.6144 55.4666 33.3633 55.0266 35.1801 53.0528C36.9968 51.0789 40.7894 47.4434 40.7894 47.4434C40.7894 47.4434 42.449 46.1 45.5287 46.1805C48.6083 46.2611 51.6113 46.6539 54.3748 44.2067C56.2662 42.5313 59.0846 39.707 60.6735 38.0926C61.3432 37.413 61.3393 36.321 60.6637 35.6453C59.988 34.9697 58.8941 34.9658 58.2145 35.6395C56.3545 37.4798 52.8192 40.8324 50.8984 41.6789C48.2135 42.8632 42.9204 40.9679 39.5246 36.8611C36.1287 32.7543 23.4095 25.5619 4.92578 35.5943C4.92578 35.5943 12.5876 38.9901 8.32163 45.4676C11.7175 47.3629 14.0881 48.1524 12.6661 52.8131C12.6661 52.8131 18.0378 54.3137 16.4567 59.6854" stroke="#003614" stroke-width="0.907743" stroke-miterlimit="10"/>
<path opacity="0.1" d="M8.51099 45.1927C8.51099 45.1927 16.2808 40.3965 25.0208 41.9147" stroke="#003614" stroke-width="0.720051" stroke-miterlimit="10"/>
<path opacity="0.1" d="M12.6692 52.8131C12.6692 52.8131 17.3927 49.6962 23.1238 48.7102" stroke="#003614" stroke-width="0.720051" stroke-miterlimit="10"/>
<path d="M39.2105 36.7333C39.069 36.7333 32.7664 36.3463 29.3175 36.1342C28.0762 36.0576 26.9842 36.9513 26.8153 38.1847L25.5662 47.2704C25.4189 48.3369 26.1299 49.3327 27.1865 49.5428C28.3217 49.7667 29.4157 48.9988 29.5905 47.8537L30.6413 40.9442L34.5576 41.5314L31.5212 44.2242" stroke="#003614" stroke-width="0.907743" stroke-miterlimit="10"/>
<path d="M48.1488 39.2412C51.045 39.2412 53.3928 36.8934 53.3928 33.9972C53.3928 31.101 51.045 28.7532 48.1488 28.7532C45.2526 28.7532 42.9048 31.101 42.9048 33.9972C42.9048 36.8934 45.2526 39.2412 48.1488 39.2412Z" stroke="#003614" stroke-width="0.907743" stroke-miterlimit="10"/>
<path opacity="0.4" d="M62.5694 45.9412C62.6644 45.6489 63.0779 45.6489 63.1729 45.9412L63.8404 47.9956C63.8829 48.1264 64.0047 48.2149 64.1422 48.2149H66.3024C66.6097 48.2149 66.7375 48.6082 66.4889 48.7889L64.7413 50.0586C64.6301 50.1394 64.5835 50.2826 64.626 50.4133L65.2935 52.4678C65.3885 52.7601 65.0539 53.0032 64.8053 52.8225L63.0577 51.5528C62.9464 51.472 62.7959 51.472 62.6847 51.5528L60.937 52.8225C60.6884 53.0032 60.3538 52.7601 60.4488 52.4678L61.1163 50.4133C61.1588 50.2826 61.1122 50.1394 61.001 50.0586L59.2534 48.7889C59.0048 48.6082 59.1326 48.2149 59.4399 48.2149H61.6001C61.7376 48.2149 61.8594 48.1264 61.9019 47.9956L62.5694 45.9412Z" fill="#003614"/>
<path opacity="0.2" d="M53.8139 53.2786C53.8693 53.1081 54.1105 53.1081 54.1659 53.2786L54.5553 54.477C54.5801 54.5533 54.6511 54.6049 54.7313 54.6049H55.9914C56.1707 54.6049 56.2453 54.8343 56.1002 54.9397L55.0808 55.6804C55.0159 55.7275 54.9888 55.8111 55.0135 55.8873L55.4029 57.0857C55.4583 57.2563 55.2632 57.3981 55.1181 57.2927L54.0987 56.552C54.0338 56.5049 53.946 56.5049 53.8811 56.552L52.8617 57.2927C52.7166 57.3981 52.5214 57.2563 52.5768 57.0857L52.9662 55.8873C52.991 55.8111 52.9639 55.7275 52.899 55.6804L51.8795 54.9397C51.7345 54.8343 51.809 54.6049 51.9883 54.6049H53.2484C53.3286 54.6049 53.3997 54.5533 53.4245 54.477L53.8139 53.2786Z" fill="#003614"/>
<path opacity="0.1" d="M62.3595 56.2136C62.3991 56.0918 62.5714 56.0918 62.611 56.2136L62.8891 57.0696C62.9068 57.1241 62.9576 57.161 63.0149 57.161H63.9149C64.043 57.161 64.0963 57.3249 63.9927 57.4002L63.2645 57.9292C63.2181 57.9629 63.1988 58.0225 63.2165 58.077L63.4946 58.933C63.5342 59.0548 63.3948 59.1561 63.2912 59.0808L62.563 58.5518C62.5166 58.5181 62.4539 58.5181 62.4076 58.5518L61.6794 59.0808C61.5758 59.1561 61.4364 59.0548 61.476 58.933L61.7541 58.077C61.7718 58.0225 61.7524 57.9629 61.7061 57.9292L60.9779 57.4002C60.8743 57.3249 60.9275 57.161 61.0556 57.161H61.9557C62.0129 57.161 62.0637 57.1241 62.0814 57.0696L62.3595 56.2136Z" fill="#003614"/>
</svg>
