<svg width="95" height="89" viewBox="0 0 95 89" fill="none" xmlns="http://www.w3.org/2000/svg">
<path d="M8.84448 87.9056L8.84448 31.9863" stroke="#003614" stroke-width="0.907743" stroke-miterlimit="10"/>
<path d="M60.9433 30.2395L32.1667 32.4553V88.4539" stroke="#003614" stroke-width="0.907743" stroke-miterlimit="10"/>
<path d="M8.27462 58.583H0.453916V31.95C0.453916 31.95 0.336489 23.0335 10.6441 22.6763C20.4793 23.0335 61.2373 23.1525 61.2373 23.1525V23.2703" stroke="#003614" stroke-width="0.907743" stroke-miterlimit="10"/>
<path d="M20.739 57.2048L20.739 87.9056" stroke="#003614" stroke-width="0.907743" stroke-miterlimit="10"/>
<path d="M61.5515 4.57495L61.6479 87.2425" stroke="#003614" stroke-width="0.907743" stroke-miterlimit="10"/>
<path d="M62.0945 7.03247H76.1527V19.0935H62.0945" fill="#003614"/>
<path d="M62.0945 7.03247H76.1527V19.0935H62.0945" stroke="#003614" stroke-width="0.907743" stroke-miterlimit="10"/>
<path d="M76.1492 25.6722L93.1419 25.6243L86.9017 18.0603L93.4516 10.3218L76.1492 10.4045V25.6722Z" fill="#003614" stroke="#003614" stroke-width="0.907743" stroke-miterlimit="10"/>
<path d="M20.1413 17.128C24.6825 17.128 28.3638 13.3953 28.3638 8.79091C28.3638 4.18648 24.6825 0.453857 20.1413 0.453857C15.6001 0.453857 11.9187 4.18648 11.9187 8.79091C11.9187 13.3953 15.6001 17.128 20.1413 17.128Z" stroke="#003614" stroke-width="0.907743" stroke-miterlimit="10"/>
</svg>
