<svg width="577" height="567" viewBox="0 0 577 567" fill="none" xmlns="http://www.w3.org/2000/svg">
<mask id="mask0_63_1521" style="mask-type:alpha" maskUnits="userSpaceOnUse" x="0" y="0" width="569" height="551">
<rect width="569" height="551" rx="46.7" fill="#033A17"/>
</mask>
<g mask="url(#mask0_63_1521)">
<g filter="url(#filter0_d_63_1521)">
<path d="M238.236 404.496L269.142 434.039C272.492 429.62 277.122 426.177 282.403 424.321L262.507 405.29C255.783 398.841 245.305 398.659 238.236 404.496ZM195.263 402.698C202.193 395.342 213.921 395.014 221.196 401.957L264.479 443.378C263.876 445.526 263.479 447.779 263.365 450.106C262.69 465.712 274.897 479.04 290.394 479.607L330.941 481.197C333.337 481.287 335.357 479.38 335.458 477.008L335.505 475.747C335.605 473.335 333.744 471.318 331.365 471.22L290.843 469.637C281.208 469.275 273.558 461.356 273.285 451.819C272.986 441.213 281.742 432.359 292.392 432.755C326.339 434.072 360.261 435.38 394.224 436.688C408.671 437.249 420.852 443.105 430.366 454.049L442.049 467.523L400.886 528.844L315.351 525.553C302.547 525.062 291.735 520.492 282.467 511.612C253.571 484.039 224.719 456.414 195.836 428.802C188.572 421.822 188.282 410.078 195.26 402.696L195.263 402.698ZM457.053 462.982C458.533 460.758 461.533 460.191 463.699 461.659L488.209 478.277C490.411 479.756 600.479 564.102 598.999 566.325L471.988 582.817C479.556 593.854 431.252 567.805 429.05 566.325L404.54 549.707C402.374 548.239 401.788 545.21 403.256 543.023L457.053 462.982ZM380.223 366.515L373.913 364.546L363.906 396.613L331.007 386.346L334.86 374.001C337.704 364.886 332.603 355.117 323.562 352.296C314.521 349.474 304.806 354.619 301.961 363.734L298.109 376.079L275.707 369.088C269.931 367.285 266.696 361.053 268.513 355.229L292.274 279.091C294.092 273.267 300.297 269.981 306.074 271.783L383.776 296.032C389.552 297.835 392.787 304.067 390.97 309.891L384.265 331.376L390.575 333.345C399.616 336.166 404.718 345.935 401.873 355.05C399.005 364.198 389.264 369.337 380.223 366.515ZM315.107 245.011C312.425 245.624 309.781 243.94 309.221 241.255L304.387 219.365C303.779 216.704 305.464 214.035 308.146 213.422C310.791 212.797 313.435 214.481 314.032 217.178L318.866 239.068C319.45 241.721 317.764 244.39 315.107 245.011ZM268.434 263.609L253.382 247.15C251.525 245.12 251.657 241.966 253.67 240.124C255.695 238.245 258.791 238.352 260.648 240.381L275.7 256.84C277.521 258.859 277.4 261.976 275.412 263.866C273.387 265.745 270.291 265.638 268.434 263.609ZM358.776 248.635C356.167 247.821 354.72 245.033 355.541 242.403L362.226 220.98C363.047 218.349 365.834 216.843 368.443 217.657C371.052 218.471 372.488 221.296 371.667 223.926L364.982 245.349C364.197 247.991 361.385 249.449 358.776 248.635ZM446.338 307.379L424.597 312.355C421.915 312.969 419.271 311.284 418.711 308.599C418.114 305.902 419.8 303.232 422.47 302.656L444.212 297.679C446.893 297.066 449.537 298.75 450.097 301.436C450.682 304.129 449.008 306.762 446.338 307.379ZM403.77 270.746C401.757 272.588 398.661 272.481 396.792 270.488C394.972 268.47 395.104 265.315 397.08 263.462L413.454 248.204C415.468 246.362 418.6 246.48 420.432 248.462C422.289 250.491 422.157 253.646 420.144 255.488L403.77 270.746Z" fill="#F5FFF9"/>
</g>
</g>
<defs>
<filter id="filter0_d_63_1521" x="183.425" y="213.292" width="422.366" height="385.797" filterUnits="userSpaceOnUse" color-interpolation-filters="sRGB">
<feFlood flood-opacity="0" result="BackgroundImageFix"/>
<feColorMatrix in="SourceAlpha" type="matrix" values="0 0 0 0 0 0 0 0 0 0 0 0 0 0 0 0 0 0 127 0" result="hardAlpha"/>
<feOffset dy="6.77684"/>
<feGaussianBlur stdDeviation="3.38842"/>
<feComposite in2="hardAlpha" operator="out"/>
<feColorMatrix type="matrix" values="0 0 0 0 0 0 0 0 0 0 0 0 0 0 0 0 0 0 0.41 0"/>
<feBlend mode="normal" in2="BackgroundImageFix" result="effect1_dropShadow_63_1521"/>
<feBlend mode="normal" in="SourceGraphic" in2="effect1_dropShadow_63_1521" result="shape"/>
</filter>
</defs>
</svg>
