<svg width="569" height="567" viewBox="0 0 569 567" fill="none" xmlns="http://www.w3.org/2000/svg">
<mask id="mask0_63_1445" style="mask-type:alpha" maskUnits="userSpaceOnUse" x="0" y="0" width="569" height="551">
<rect width="569" height="551" rx="46.7" fill="#033A17"/>
</mask>
<g mask="url(#mask0_63_1445)">
<path d="M191.911 468.421L247.858 518.304L258.202 504.055C258.825 503.195 259.737 502.6 260.781 502.362C317.924 489.572 326.371 483.162 361.945 456.224C368.238 451.46 375.33 446.085 383.676 439.935L413.221 331.528C408.255 327.493 403.788 326.057 399.602 327.173C384.541 331.187 373.671 365.791 367.17 386.462C365.491 391.771 364.056 396.36 362.751 399.889C362.384 400.879 361.68 401.699 360.752 402.206C352.631 406.651 346.048 410.456 340.759 413.525C312.757 429.749 311.347 429.934 265.048 423.554C262.727 423.239 261.072 421.142 261.303 418.808L262.42 407.354C262.54 406.059 263.237 404.894 264.318 404.163L273.706 397.816C273.823 397.724 273.944 397.644 274.08 397.572L299.667 380.264C301.68 375.726 301.692 371.435 299.678 368.373C297.765 365.453 294.148 363.843 289.689 363.888L284.914 366.293C266.94 375.357 253.728 382.019 243.78 387.643L243.768 387.647C235 392.6 228.762 396.758 224.034 401.045C214.294 409.885 210.707 419.404 202.868 440.265C200.005 447.888 196.483 457.239 191.922 468.416L191.911 468.421ZM182.902 472.079L252.804 534.405L170.126 595.114L69.6244 573.01L182.902 472.079ZM321.681 414.115C319.761 415.056 317.963 415.837 316.224 416.478L284.938 400.731L305.54 386.806C306.163 386.387 306.657 385.823 306.996 385.15C310.898 377.397 310.887 369.52 306.969 363.563C303.163 357.782 296.369 354.724 288.324 355.192C287.722 355.231 287.144 355.381 286.606 355.653L280.984 358.485C264.211 366.938 251.474 373.377 241.529 378.893L208.585 362.291C200.739 358.352 194.223 352.171 189.555 344.592L210.073 337.813C211.951 337.192 213.175 335.399 213.056 333.421L212.11 316.973L243.499 364.767C244.574 366.402 246.601 367.121 248.463 366.533L248.511 366.517C250.354 365.908 251.569 364.171 251.502 362.23L250.127 321.403L276.799 312.591C279.086 311.835 280.328 309.368 279.572 307.08C278.816 304.792 276.349 303.55 274.061 304.306L244.283 314.144C242.441 314.753 241.229 316.502 241.292 318.431L242.247 346.991L210.454 298.585C209.376 296.937 207.309 296.218 205.442 296.835C203.564 297.455 202.344 299.261 202.459 301.226L204.145 330.586L185.566 336.724C183.323 331.188 181.939 325.181 181.579 318.916C180.559 301.276 187.582 285.747 200.356 277.359C217.048 266.395 242.423 268.496 271.79 283.288C273.937 284.368 276.562 283.501 277.642 281.354C288.563 259.676 301.881 244.685 316.159 238.018C331.119 231.032 343.771 234.358 351.748 238.373C373.775 249.46 388.939 280.442 375.491 307.163L321.671 414.134L321.681 414.115ZM270.896 410.219L276.649 406.328L301.319 418.745C293.989 418.629 284.375 417.384 270.385 415.463L270.896 410.219Z" fill="#F5FFF9"/>
</g>
</svg>
