<svg width="569" height="567" viewBox="0 0 569 567" fill="none" xmlns="http://www.w3.org/2000/svg">
<mask id="mask0_63_1480" style="mask-type:alpha" maskUnits="userSpaceOnUse" x="0" y="0" width="569" height="551">
<rect width="569" height="551" rx="46.7" fill="#033A17"/>
</mask>
<g mask="url(#mask0_63_1480)">
<g filter="url(#filter0_d_63_1480)">
<path d="M337.774 310.795C337.85 310.604 337.906 310.426 337.948 310.277C339.617 303.808 344.542 298.953 351.118 297.319C358.067 295.594 365.599 298.317 369.832 304.097C373.108 308.587 374.183 314.186 372.788 319.468C371.39 324.758 367.728 329.078 362.748 331.321C357.788 333.56 352.137 333.411 347.237 330.924C347.108 330.858 346.945 330.785 346.757 330.719L359.468 358.91L388.765 345.701C389.607 345.322 390.566 345.291 391.429 345.621C392.291 345.952 392.99 346.605 393.369 347.447L393.912 348.657C395.14 351.373 395.014 354.59 393.575 357.477C392.034 360.51 391.94 363.973 393.307 367.003C394.684 370.063 397.345 372.313 400.6 373.172C403.893 374.042 407.26 373.391 410.091 371.325C413.614 368.748 415.272 364.154 414.222 359.904C413.217 355.853 410.233 352.817 406.244 351.784C403.1 350.946 400.607 348.908 399.379 346.185L398.833 344.971C398.044 343.222 398.826 341.163 400.575 340.373L436.407 324.219C435.743 322.442 435.026 320.647 434.209 318.832C414.733 275.652 364.487 255.801 320.91 273.398L337.774 310.795Z" fill="#F5FFF9"/>
<path d="M324.618 512.989H253.453C252.378 512.989 251.331 512.867 250.312 512.683V541.406C250.312 547.158 254.994 551.839 260.746 551.839H317.329C323.081 551.839 327.762 547.158 327.762 541.406V512.683C326.74 512.867 325.693 512.989 324.618 512.989Z" fill="#F5FFF9"/>
<path d="M236.018 381.488C235.875 381.342 235.736 381.216 235.614 381.119C230.401 376.932 228.001 370.446 229.212 363.786C230.498 356.729 236.077 350.995 243.081 349.51C248.524 348.376 254.067 349.69 258.307 353.133C262.556 356.583 264.991 361.692 264.991 367.156C264.991 372.619 262.536 377.693 258.251 381.136C258.14 381.227 258.008 381.348 257.872 381.488H285.558V346.115C285.558 344.195 287.113 342.637 289.036 342.637H290.365C293.345 342.637 296.228 344.07 298.27 346.567C300.398 349.224 303.518 350.73 306.842 350.73C310.202 350.73 313.342 349.231 315.464 346.619C317.613 343.976 318.402 340.634 317.686 337.212C316.782 332.941 313.276 329.537 308.967 328.751C304.853 328 300.868 329.474 298.287 332.688C296.225 335.209 293.345 336.642 290.365 336.642H289.036C287.113 336.642 285.558 335.084 285.558 333.164V287.703C284.838 287.73 284.139 287.727 283.413 287.769C239.182 290.52 203.806 325.951 201.129 370.195C200.903 373.979 200.996 377.752 201.24 381.495H236.021L236.018 381.488Z" fill="#F5FFF9"/>
<path d="M285.554 441.218C285.408 441.361 285.287 441.5 285.189 441.618C281.002 446.831 274.512 449.231 267.852 448.021C260.796 446.73 255.061 441.155 253.58 434.148C252.442 428.709 253.764 423.161 257.207 418.922C260.654 414.676 265.766 412.241 271.229 412.241C276.693 412.241 281.76 414.697 285.207 418.981C285.297 419.096 285.419 419.228 285.561 419.364V388.439H253.427C251.504 388.439 249.949 386.881 249.949 384.962V383.633C249.949 380.649 251.382 377.766 253.879 375.728C256.536 373.596 258.042 370.477 258.042 367.156C258.042 363.796 256.543 360.652 253.928 358.534C251.284 356.388 247.949 355.602 244.52 356.315C240.246 357.22 236.845 360.725 236.055 365.031C235.308 369.138 236.782 373.13 239.996 375.711C242.517 377.77 243.95 380.653 243.95 383.637V384.965C243.95 386.885 242.395 388.443 240.472 388.443H201.945C204.095 403.185 209.923 417.159 218.99 429.001C233.499 448.048 241.707 469.677 242.729 491.562L242.952 495.976C243.195 501.616 247.807 506.037 253.455 506.037H285.558V441.222L285.554 441.218Z" fill="#F5FFF9"/>
<path d="M342.051 388.443C342.194 388.589 342.33 388.714 342.451 388.812C347.661 392.999 350.061 399.485 348.851 406.145C347.56 413.205 341.985 418.94 334.981 420.418C333.701 420.685 332.415 420.818 331.142 420.818C327.007 420.818 323 419.426 319.762 416.794C315.513 413.344 313.078 408.235 313.078 402.768C313.078 397.301 315.533 392.234 319.815 388.791C319.929 388.697 320.062 388.579 320.197 388.44H292.514V423.812C292.514 425.732 290.96 427.29 289.036 427.29H287.708C284.724 427.29 281.837 425.857 279.803 423.356C277.671 420.703 274.551 419.193 271.23 419.193C267.871 419.193 264.727 420.692 262.605 423.304C260.46 425.947 259.67 429.289 260.387 432.712C261.291 436.982 264.796 440.387 269.102 441.173C273.213 441.924 277.202 440.45 279.786 437.24C281.841 434.718 284.72 433.282 287.708 433.282H289.036C290.96 433.282 292.514 434.84 292.514 436.76V506.026H324.617C330.265 506.026 334.873 501.606 335.117 495.986L335.444 489.406C336.435 468.418 344.389 447.819 358.439 429.839C367.888 417.757 373.932 403.498 376.127 388.436H342.055L342.051 388.443Z" fill="#F5FFF9"/>
</g>
</g>
<defs>
<filter id="filter0_d_63_1480" x="193.011" y="267" width="251.384" height="321.961" filterUnits="userSpaceOnUse" color-interpolation-filters="sRGB">
<feFlood flood-opacity="0" result="BackgroundImageFix"/>
<feColorMatrix in="SourceAlpha" type="matrix" values="0 0 0 0 0 0 0 0 0 0 0 0 0 0 0 0 0 0 127 0" result="hardAlpha"/>
<feOffset dy="7.98879"/>
<feGaussianBlur stdDeviation="3.9944"/>
<feComposite in2="hardAlpha" operator="out"/>
<feColorMatrix type="matrix" values="0 0 0 0 0 0 0 0 0 0 0 0 0 0 0 0 0 0 0.5 0"/>
<feBlend mode="normal" in2="BackgroundImageFix" result="effect1_dropShadow_63_1480"/>
<feBlend mode="normal" in="SourceGraphic" in2="effect1_dropShadow_63_1480" result="shape"/>
</filter>
</defs>
</svg>
