<svg width="163" height="142" viewBox="0 0 163 142" fill="none" xmlns="http://www.w3.org/2000/svg">
<path d="M48.6778 127.564V128.56H44.0567V127.564H48.6778ZM44.2979 119.318V128.56H43.0728V119.318H44.2979ZM53.013 128.687C52.5348 128.687 52.1011 128.607 51.7118 128.446C51.3267 128.281 50.9945 128.05 50.7152 127.754C50.4401 127.458 50.2285 127.107 50.0804 126.7C49.9323 126.294 49.8582 125.85 49.8582 125.367V125.101C49.8582 124.542 49.9408 124.045 50.1058 123.609C50.2708 123.169 50.4951 122.796 50.7786 122.492C51.0622 122.187 51.3838 121.956 51.7435 121.8C52.1032 121.643 52.4756 121.565 52.8607 121.565C53.3516 121.565 53.7747 121.65 54.1302 121.819C54.4899 121.988 54.784 122.225 55.0125 122.53C55.241 122.83 55.4103 123.186 55.5203 123.596C55.6304 124.003 55.6854 124.447 55.6854 124.929V125.456H50.5565V124.498H54.5111V124.409C54.4941 124.104 54.4307 123.808 54.3206 123.52C54.2148 123.232 54.0456 122.995 53.8128 122.809C53.5801 122.623 53.2627 122.53 52.8607 122.53C52.5941 122.53 52.3486 122.587 52.1243 122.701C51.9001 122.811 51.7075 122.976 51.5467 123.196C51.3859 123.416 51.2611 123.685 51.1722 124.003C51.0833 124.32 51.0389 124.686 51.0389 125.101V125.367C51.0389 125.693 51.0833 126 51.1722 126.288C51.2653 126.571 51.3986 126.821 51.5721 127.037C51.7498 127.253 51.9635 127.422 52.2132 127.545C52.4671 127.667 52.7549 127.729 53.0765 127.729C53.4912 127.729 53.8424 127.644 54.1302 127.475C54.418 127.305 54.6698 127.079 54.8856 126.795L55.5965 127.36C55.4484 127.585 55.2601 127.798 55.0316 128.002C54.8031 128.205 54.5216 128.37 54.1873 128.497C53.8573 128.624 53.4658 128.687 53.013 128.687ZM61.3663 127.386V123.85C61.3663 123.579 61.3113 123.344 61.2012 123.146C61.0955 122.942 60.9346 122.786 60.7188 122.676C60.503 122.566 60.2364 122.511 59.919 122.511C59.6228 122.511 59.3625 122.562 59.1383 122.663C58.9182 122.765 58.7447 122.898 58.6177 123.063C58.495 123.228 58.4337 123.406 58.4337 123.596H57.2593C57.2593 123.351 57.3228 123.108 57.4498 122.866C57.5767 122.625 57.7587 122.407 57.9957 122.212C58.2369 122.014 58.5246 121.857 58.859 121.743C59.1975 121.624 59.5741 121.565 59.9888 121.565C60.4882 121.565 60.9283 121.65 61.3092 121.819C61.6942 121.988 61.9947 122.244 62.2105 122.587C62.4306 122.926 62.5406 123.351 62.5406 123.863V127.062C62.5406 127.291 62.5596 127.534 62.5977 127.792C62.64 128.05 62.7014 128.272 62.7818 128.459V128.56H61.5567C61.4975 128.425 61.4509 128.245 61.4171 128.021C61.3832 127.792 61.3663 127.58 61.3663 127.386ZM61.5694 124.396L61.5821 125.221H60.3951C60.0608 125.221 59.7624 125.249 59.5001 125.304C59.2377 125.355 59.0177 125.433 58.8399 125.539C58.6622 125.644 58.5268 125.778 58.4337 125.939C58.3406 126.095 58.294 126.279 58.294 126.491C58.294 126.707 58.3427 126.903 58.44 127.081C58.5373 127.259 58.6833 127.401 58.878 127.506C59.0769 127.608 59.3202 127.659 59.608 127.659C59.9677 127.659 60.2851 127.583 60.5601 127.43C60.8352 127.278 61.0531 127.092 61.2139 126.872C61.379 126.652 61.4678 126.438 61.4805 126.231L61.982 126.795C61.9524 126.973 61.872 127.17 61.7408 127.386C61.6096 127.602 61.434 127.809 61.2139 128.008C60.9981 128.203 60.74 128.365 60.4395 128.497C60.1433 128.624 59.809 128.687 59.4366 128.687C58.9711 128.687 58.5627 128.596 58.2115 128.414C57.8645 128.232 57.5937 127.989 57.399 127.684C57.2086 127.375 57.1134 127.03 57.1134 126.649C57.1134 126.281 57.1853 125.958 57.3292 125.678C57.4731 125.395 57.6804 125.16 57.9512 124.974C58.2221 124.783 58.5479 124.639 58.9288 124.542C59.3096 124.445 59.7349 124.396 60.2047 124.396H61.5694ZM68.9769 127.227V118.81H70.1575V128.56H69.0784L68.9769 127.227ZM64.3558 125.202V125.069C64.3558 124.544 64.4193 124.068 64.5462 123.641C64.6774 123.209 64.8615 122.839 65.0985 122.53C65.3397 122.221 65.6253 121.984 65.9554 121.819C66.2897 121.65 66.6621 121.565 67.0726 121.565C67.5042 121.565 67.8808 121.641 68.2025 121.794C68.5283 121.942 68.8034 122.16 69.0277 122.447C69.2562 122.731 69.436 123.074 69.5672 123.476C69.6984 123.878 69.7894 124.333 69.8402 124.84V125.424C69.7936 125.928 69.7026 126.381 69.5672 126.783C69.436 127.185 69.2562 127.528 69.0277 127.811C68.8034 128.095 68.5283 128.313 68.2025 128.465C67.8766 128.613 67.4957 128.687 67.0599 128.687C66.6579 128.687 66.2897 128.6 65.9554 128.427C65.6253 128.253 65.3397 128.01 65.0985 127.697C64.8615 127.384 64.6774 127.016 64.5462 126.592C64.4193 126.165 64.3558 125.702 64.3558 125.202ZM65.5364 125.069V125.202C65.5364 125.545 65.5703 125.867 65.638 126.167C65.7099 126.468 65.82 126.732 65.9681 126.961C66.1162 127.189 66.3045 127.369 66.533 127.5C66.7615 127.627 67.0345 127.691 67.3519 127.691C67.7412 127.691 68.0607 127.608 68.3104 127.443C68.5643 127.278 68.7674 127.06 68.9197 126.789C69.0721 126.518 69.1906 126.224 69.2752 125.907V124.377C69.2244 124.144 69.1504 123.92 69.053 123.704C68.9599 123.484 68.8372 123.289 68.6849 123.12C68.5368 122.947 68.3527 122.809 68.1326 122.708C67.9168 122.606 67.6608 122.555 67.3646 122.555C67.043 122.555 66.7658 122.623 66.533 122.758C66.3045 122.89 66.1162 123.072 65.9681 123.304C65.82 123.533 65.7099 123.799 65.638 124.104C65.5703 124.405 65.5364 124.726 65.5364 125.069ZM75.0958 128.687C74.6176 128.687 74.1838 128.607 73.7945 128.446C73.4094 128.281 73.0772 128.05 72.7979 127.754C72.5228 127.458 72.3113 127.107 72.1631 126.7C72.015 126.294 71.941 125.85 71.941 125.367V125.101C71.941 124.542 72.0235 124.045 72.1885 123.609C72.3536 123.169 72.5779 122.796 72.8614 122.492C73.1449 122.187 73.4665 121.956 73.8262 121.8C74.1859 121.643 74.5583 121.565 74.9434 121.565C75.4343 121.565 75.8575 121.65 76.2129 121.819C76.5726 121.988 76.8668 122.225 77.0953 122.53C77.3238 122.83 77.4931 123.186 77.6031 123.596C77.7131 124.003 77.7681 124.447 77.7681 124.929V125.456H72.6392V124.498H76.5938V124.409C76.5769 124.104 76.5134 123.808 76.4034 123.52C76.2976 123.232 76.1283 122.995 75.8956 122.809C75.6628 122.623 75.3454 122.53 74.9434 122.53C74.6768 122.53 74.4314 122.587 74.2071 122.701C73.9828 122.811 73.7903 122.976 73.6294 123.196C73.4686 123.416 73.3438 123.685 73.2549 124.003C73.1661 124.32 73.1216 124.686 73.1216 125.101V125.367C73.1216 125.693 73.1661 126 73.2549 126.288C73.348 126.571 73.4813 126.821 73.6548 127.037C73.8326 127.253 74.0463 127.422 74.296 127.545C74.5499 127.667 74.8376 127.729 75.1592 127.729C75.5739 127.729 75.9252 127.644 76.2129 127.475C76.5007 127.305 76.7525 127.079 76.9683 126.795L77.6793 127.36C77.5311 127.585 77.3428 127.798 77.1143 128.002C76.8858 128.205 76.6044 128.37 76.2701 128.497C75.94 128.624 75.5486 128.687 75.0958 128.687ZM80.5735 122.771V128.56H79.3992V121.692H80.5418L80.5735 122.771ZM82.719 121.654L82.7127 122.746C82.6154 122.725 82.5223 122.712 82.4334 122.708C82.3488 122.699 82.2514 122.695 82.1414 122.695C81.8706 122.695 81.6315 122.737 81.4241 122.822C81.2168 122.906 81.0411 123.025 80.8973 123.177C80.7534 123.33 80.6391 123.512 80.5545 123.723C80.4741 123.931 80.4212 124.159 80.3958 124.409L80.0657 124.599C80.0657 124.184 80.1059 123.795 80.1863 123.431C80.271 123.067 80.4 122.746 80.5735 122.466C80.747 122.183 80.9671 121.963 81.2337 121.806C81.5045 121.645 81.8261 121.565 82.1985 121.565C82.2832 121.565 82.3805 121.576 82.4905 121.597C82.6005 121.614 82.6767 121.633 82.719 121.654ZM88.0635 126.738C88.0635 126.569 88.0254 126.413 87.9493 126.269C87.8773 126.121 87.7271 125.987 87.4986 125.869C87.2743 125.746 86.9357 125.64 86.4829 125.551C86.1021 125.471 85.7572 125.376 85.4483 125.266C85.1436 125.156 84.8833 125.022 84.6675 124.866C84.4559 124.709 84.293 124.525 84.1787 124.314C84.0645 124.102 84.0074 123.854 84.0074 123.571C84.0074 123.3 84.0666 123.044 84.1851 122.803C84.3078 122.562 84.4792 122.348 84.6993 122.162C84.9235 121.976 85.1923 121.83 85.5054 121.724C85.8186 121.618 86.1677 121.565 86.5528 121.565C87.1029 121.565 87.5726 121.662 87.9619 121.857C88.3513 122.052 88.6496 122.312 88.857 122.638C89.0643 122.959 89.168 123.317 89.168 123.711H87.9937C87.9937 123.52 87.9366 123.336 87.8223 123.158C87.7123 122.976 87.5494 122.826 87.3335 122.708C87.1219 122.589 86.8617 122.53 86.5528 122.53C86.2269 122.53 85.9624 122.581 85.7593 122.682C85.5604 122.78 85.4144 122.904 85.3213 123.057C85.2325 123.209 85.188 123.37 85.188 123.539C85.188 123.666 85.2092 123.78 85.2515 123.882C85.298 123.979 85.3785 124.07 85.4927 124.155C85.607 124.235 85.7678 124.311 85.9751 124.383C86.1825 124.455 86.447 124.527 86.7686 124.599C87.3314 124.726 87.7948 124.879 88.1587 125.056C88.5227 125.234 88.7935 125.452 88.9712 125.71C89.149 125.968 89.2378 126.281 89.2378 126.649C89.2378 126.95 89.1744 127.225 89.0474 127.475C88.9247 127.724 88.7448 127.94 88.5078 128.122C88.2751 128.3 87.9958 128.44 87.67 128.541C87.3483 128.638 86.9865 128.687 86.5845 128.687C85.9794 128.687 85.4673 128.579 85.0484 128.363C84.6294 128.148 84.312 127.868 84.0962 127.525C83.8804 127.183 83.7725 126.821 83.7725 126.44H84.9532C84.9701 126.762 85.0632 127.018 85.2325 127.208C85.4017 127.394 85.6091 127.528 85.8545 127.608C86.1 127.684 86.3433 127.722 86.5845 127.722C86.9061 127.722 87.1748 127.68 87.3907 127.595C87.6107 127.511 87.7779 127.394 87.8921 127.246C88.0064 127.098 88.0635 126.929 88.0635 126.738ZM99.6284 126.224C99.6284 126.008 99.5946 125.818 99.5269 125.653C99.4634 125.484 99.3491 125.331 99.1841 125.196C99.0233 125.06 98.799 124.931 98.5112 124.809C98.2277 124.686 97.868 124.561 97.4321 124.434C96.9751 124.299 96.5625 124.149 96.1944 123.983C95.8262 123.814 95.5109 123.622 95.2486 123.406C94.9862 123.19 94.7852 122.942 94.6455 122.663C94.5059 122.384 94.4361 122.064 94.4361 121.705C94.4361 121.345 94.5101 121.013 94.6582 120.708C94.8063 120.403 95.0179 120.139 95.293 119.915C95.5723 119.686 95.9045 119.508 96.2896 119.381C96.6747 119.254 97.1042 119.191 97.5781 119.191C98.2722 119.191 98.8604 119.324 99.3428 119.591C99.8294 119.853 100.2 120.198 100.454 120.626C100.708 121.049 100.834 121.502 100.834 121.984H99.6157C99.6157 121.637 99.5417 121.33 99.3936 121.064C99.2455 120.793 99.0212 120.581 98.7207 120.429C98.4203 120.272 98.0394 120.194 97.5781 120.194C97.1423 120.194 96.7826 120.26 96.499 120.391C96.2155 120.522 96.0039 120.7 95.8643 120.924C95.7289 121.148 95.6611 121.404 95.6611 121.692C95.6611 121.887 95.7013 122.064 95.7818 122.225C95.8664 122.382 95.9955 122.528 96.169 122.663C96.3467 122.799 96.571 122.923 96.8418 123.038C97.1169 123.152 97.4448 123.262 97.8257 123.368C98.3504 123.516 98.8032 123.681 99.1841 123.863C99.565 124.045 99.8781 124.25 100.124 124.479C100.373 124.703 100.557 124.959 100.676 125.247C100.799 125.53 100.86 125.852 100.86 126.212C100.86 126.588 100.784 126.929 100.631 127.233C100.479 127.538 100.261 127.798 99.9776 128.014C99.694 128.23 99.3534 128.397 98.9556 128.516C98.562 128.63 98.1219 128.687 97.6353 128.687C97.2079 128.687 96.7868 128.628 96.3721 128.509C95.9616 128.391 95.5871 128.213 95.2486 127.976C94.9142 127.739 94.6455 127.447 94.4424 127.1C94.2435 126.749 94.1441 126.343 94.1441 125.881H95.3628C95.3628 126.199 95.4242 126.472 95.5469 126.7C95.6696 126.925 95.8368 127.111 96.0484 127.259C96.2642 127.407 96.5075 127.517 96.7783 127.589C97.0534 127.657 97.339 127.691 97.6353 127.691C98.0627 127.691 98.4245 127.631 98.7207 127.513C99.0169 127.394 99.2412 127.225 99.3936 127.005C99.5501 126.785 99.6284 126.525 99.6284 126.224ZM103.678 123.012V131.201H102.497V121.692H103.576L103.678 123.012ZM108.305 125.069V125.202C108.305 125.702 108.246 126.165 108.128 126.592C108.009 127.016 107.836 127.384 107.607 127.697C107.383 128.01 107.106 128.253 106.776 128.427C106.446 128.6 106.067 128.687 105.639 128.687C105.204 128.687 104.818 128.615 104.484 128.471C104.15 128.327 103.866 128.118 103.634 127.843C103.401 127.568 103.215 127.238 103.075 126.853C102.94 126.468 102.846 126.034 102.796 125.551V124.84C102.846 124.333 102.942 123.878 103.081 123.476C103.221 123.074 103.405 122.731 103.634 122.447C103.866 122.16 104.148 121.942 104.478 121.794C104.808 121.641 105.189 121.565 105.62 121.565C106.052 121.565 106.435 121.65 106.769 121.819C107.104 121.984 107.385 122.221 107.614 122.53C107.842 122.839 108.013 123.209 108.128 123.641C108.246 124.068 108.305 124.544 108.305 125.069ZM107.125 125.202V125.069C107.125 124.726 107.089 124.405 107.017 124.104C106.945 123.799 106.833 123.533 106.68 123.304C106.532 123.072 106.342 122.89 106.109 122.758C105.876 122.623 105.599 122.555 105.278 122.555C104.981 122.555 104.723 122.606 104.503 122.708C104.287 122.809 104.103 122.947 103.951 123.12C103.799 123.289 103.674 123.484 103.576 123.704C103.483 123.92 103.413 124.144 103.367 124.377V126.021C103.452 126.317 103.57 126.597 103.722 126.859C103.875 127.117 104.078 127.327 104.332 127.487C104.586 127.644 104.905 127.722 105.29 127.722C105.608 127.722 105.881 127.657 106.109 127.525C106.342 127.39 106.532 127.206 106.68 126.973C106.833 126.74 106.945 126.474 107.017 126.173C107.089 125.869 107.125 125.545 107.125 125.202ZM112.914 128.687C112.435 128.687 112.002 128.607 111.612 128.446C111.227 128.281 110.895 128.05 110.616 127.754C110.341 127.458 110.129 127.107 109.981 126.7C109.833 126.294 109.759 125.85 109.759 125.367V125.101C109.759 124.542 109.841 124.045 110.006 123.609C110.171 123.169 110.396 122.796 110.679 122.492C110.963 122.187 111.284 121.956 111.644 121.8C112.004 121.643 112.376 121.565 112.761 121.565C113.252 121.565 113.675 121.65 114.031 121.819C114.39 121.988 114.685 122.225 114.913 122.53C115.142 122.83 115.311 123.186 115.421 123.596C115.531 124.003 115.586 124.447 115.586 124.929V125.456H110.457V124.498H114.412V124.409C114.395 124.104 114.331 123.808 114.221 123.52C114.115 123.232 113.946 122.995 113.713 122.809C113.481 122.623 113.163 122.53 112.761 122.53C112.495 122.53 112.249 122.587 112.025 122.701C111.801 122.811 111.608 122.976 111.447 123.196C111.286 123.416 111.162 123.685 111.073 124.003C110.984 124.32 110.939 124.686 110.939 125.101V125.367C110.939 125.693 110.984 126 111.073 126.288C111.166 126.571 111.299 126.821 111.473 127.037C111.65 127.253 111.864 127.422 112.114 127.545C112.368 127.667 112.655 127.729 112.977 127.729C113.392 127.729 113.743 127.644 114.031 127.475C114.319 127.305 114.57 127.079 114.786 126.795L115.497 127.36C115.349 127.585 115.161 127.798 114.932 128.002C114.704 128.205 114.422 128.37 114.088 128.497C113.758 128.624 113.366 128.687 112.914 128.687ZM121.267 127.386V123.85C121.267 123.579 121.212 123.344 121.102 123.146C120.996 122.942 120.835 122.786 120.619 122.676C120.404 122.566 120.137 122.511 119.82 122.511C119.523 122.511 119.263 122.562 119.039 122.663C118.819 122.765 118.645 122.898 118.518 123.063C118.396 123.228 118.334 123.406 118.334 123.596H117.16C117.16 123.351 117.223 123.108 117.35 122.866C117.477 122.625 117.659 122.407 117.896 122.212C118.137 122.014 118.425 121.857 118.76 121.743C119.098 121.624 119.475 121.565 119.889 121.565C120.389 121.565 120.829 121.65 121.21 121.819C121.595 121.988 121.895 122.244 122.111 122.587C122.331 122.926 122.441 123.351 122.441 123.863V127.062C122.441 127.291 122.46 127.534 122.498 127.792C122.541 128.05 122.602 128.272 122.682 128.459V128.56H121.457C121.398 128.425 121.351 128.245 121.318 128.021C121.284 127.792 121.267 127.58 121.267 127.386ZM121.47 124.396L121.483 125.221H120.296C119.961 125.221 119.663 125.249 119.401 125.304C119.138 125.355 118.918 125.433 118.74 125.539C118.563 125.644 118.427 125.778 118.334 125.939C118.241 126.095 118.195 126.279 118.195 126.491C118.195 126.707 118.243 126.903 118.341 127.081C118.438 127.259 118.584 127.401 118.779 127.506C118.977 127.608 119.221 127.659 119.509 127.659C119.868 127.659 120.186 127.583 120.461 127.43C120.736 127.278 120.954 127.092 121.114 126.872C121.28 126.652 121.368 126.438 121.381 126.231L121.883 126.795C121.853 126.973 121.773 127.17 121.641 127.386C121.51 127.602 121.335 127.809 121.114 128.008C120.899 128.203 120.641 128.365 120.34 128.497C120.044 128.624 119.71 128.687 119.337 128.687C118.872 128.687 118.463 128.596 118.112 128.414C117.765 128.232 117.494 127.989 117.3 127.684C117.109 127.375 117.014 127.03 117.014 126.649C117.014 126.281 117.086 125.958 117.23 125.678C117.374 125.395 117.581 125.16 117.852 124.974C118.123 124.783 118.448 124.639 118.829 124.542C119.21 124.445 119.635 124.396 120.105 124.396H121.47ZM125.729 118.81V128.56H124.548V118.81H125.729ZM129.925 121.692L126.929 124.898L125.253 126.637L125.158 125.386L126.357 123.952L128.49 121.692H129.925ZM128.852 128.56L126.402 125.285L127.011 124.237L130.236 128.56H128.852Z" fill="white"/>
<path d="M56.2227 112.703L56.2227 53.4071" stroke="white" stroke-width="0.907743" stroke-miterlimit="10"/>
<path d="M112.236 51.5546L81.297 53.9042V113.284" stroke="white" stroke-width="0.907743" stroke-miterlimit="10"/>
<path d="M55.6117 81.6098H47.2032V53.3685C47.2032 53.3685 47.077 43.9135 58.1592 43.5348C68.7335 43.9135 112.554 44.0398 112.554 44.0398V44.1647" stroke="white" stroke-width="0.907743" stroke-miterlimit="10"/>
<path d="M69.0118 80.1484L69.0118 112.703" stroke="white" stroke-width="0.907743" stroke-miterlimit="10"/>
<path d="M112.891 24.3404L112.994 112" stroke="white" stroke-width="0.907743" stroke-miterlimit="10"/>
<path d="M113.477 26.9463H128.591V39.7356H113.477" fill="white"/>
<path d="M128.59 46.7116L146.86 46.6609L140.151 38.6401L147.193 30.4343L128.59 30.5221V46.7116Z" fill="white"/>
<path d="M68.3679 37.6514C73.2504 37.6514 77.2084 33.6934 77.2084 28.8109C77.2084 23.9284 73.2504 19.9704 68.3679 19.9704C63.4855 19.9704 59.5274 23.9284 59.5274 28.8109C59.5274 33.6934 63.4855 37.6514 68.3679 37.6514Z" stroke="white" stroke-width="0.907743" stroke-miterlimit="10"/>
</svg>
