<svg width="163" height="142" viewBox="0 0 163 142" fill="none" xmlns="http://www.w3.org/2000/svg">
<path d="M25.6992 128.621H26.918C26.8545 129.205 26.6873 129.728 26.4165 130.189C26.1457 130.65 25.7627 131.016 25.2676 131.287C24.7725 131.554 24.1546 131.687 23.4141 131.687C22.8724 131.687 22.3794 131.585 21.9351 131.382C21.495 131.179 21.1162 130.891 20.7988 130.519C20.4814 130.142 20.236 129.692 20.0625 129.167C19.8932 128.638 19.8086 128.05 19.8086 127.402V126.482C19.8086 125.834 19.8932 125.248 20.0625 124.724C20.236 124.195 20.4836 123.742 20.8052 123.365C21.131 122.989 21.5225 122.699 21.9795 122.496C22.4365 122.292 22.9507 122.191 23.522 122.191C24.2202 122.191 24.8105 122.322 25.293 122.584C25.7754 122.847 26.1499 123.211 26.4165 123.676C26.6873 124.138 26.8545 124.673 26.918 125.282H25.6992C25.64 124.851 25.5299 124.48 25.3691 124.171C25.2083 123.858 24.9798 123.617 24.6836 123.448C24.3874 123.278 24.0002 123.194 23.522 123.194C23.1115 123.194 22.7497 123.272 22.4365 123.429C22.1276 123.585 21.8674 123.807 21.6558 124.095C21.4484 124.383 21.2918 124.728 21.186 125.13C21.0802 125.532 21.0273 125.978 21.0273 126.469V127.402C21.0273 127.855 21.0739 128.28 21.167 128.678C21.2643 129.076 21.4103 129.425 21.605 129.726C21.7996 130.026 22.0472 130.263 22.3477 130.437C22.6481 130.606 23.0036 130.69 23.4141 130.69C23.9346 130.69 24.3493 130.608 24.6582 130.443C24.9671 130.278 25.1999 130.041 25.3564 129.732C25.5173 129.423 25.6315 129.053 25.6992 128.621ZM32.7195 130.386V126.85C32.7195 126.579 32.6645 126.344 32.5544 126.146C32.4486 125.942 32.2878 125.786 32.072 125.676C31.8562 125.566 31.5896 125.511 31.2722 125.511C30.976 125.511 30.7157 125.562 30.4914 125.663C30.2714 125.765 30.0979 125.898 29.9709 126.063C29.8482 126.228 29.7869 126.406 29.7869 126.596H28.6125C28.6125 126.351 28.676 126.107 28.803 125.866C28.9299 125.625 29.1119 125.407 29.3489 125.212C29.5901 125.014 29.8778 124.857 30.2121 124.743C30.5507 124.624 30.9273 124.565 31.342 124.565C31.8414 124.565 32.2815 124.65 32.6623 124.819C33.0474 124.988 33.3479 125.244 33.5637 125.587C33.7838 125.925 33.8938 126.351 33.8938 126.863V130.062C33.8938 130.291 33.9128 130.534 33.9509 130.792C33.9932 131.05 34.0546 131.272 34.135 131.458V131.56H32.9099C32.8507 131.425 32.8041 131.245 32.7703 131.021C32.7364 130.792 32.7195 130.58 32.7195 130.386ZM32.9226 127.396L32.9353 128.221H31.7483C31.414 128.221 31.1156 128.249 30.8533 128.304C30.5909 128.354 30.3708 128.433 30.1931 128.539C30.0154 128.644 29.88 128.778 29.7869 128.938C29.6938 129.095 29.6472 129.279 29.6472 129.491C29.6472 129.707 29.6959 129.903 29.7932 130.081C29.8905 130.259 30.0365 130.401 30.2312 130.506C30.4301 130.608 30.6734 130.659 30.9612 130.659C31.3209 130.659 31.6383 130.583 31.9133 130.43C32.1884 130.278 32.4063 130.092 32.5671 129.872C32.7322 129.652 32.821 129.438 32.8337 129.23L33.3352 129.795C33.3056 129.973 33.2252 130.17 33.094 130.386C32.9628 130.602 32.7872 130.809 32.5671 131.008C32.3513 131.202 32.0932 131.365 31.7927 131.497C31.4965 131.624 31.1622 131.687 30.7898 131.687C30.3243 131.687 29.9159 131.596 29.5647 131.414C29.2177 131.232 28.9468 130.989 28.7522 130.684C28.5618 130.375 28.4665 130.03 28.4665 129.649C28.4665 129.281 28.5385 128.958 28.6824 128.678C28.8262 128.395 29.0336 128.16 29.3044 127.974C29.5753 127.783 29.9011 127.639 30.282 127.542C30.6628 127.445 31.0881 127.396 31.5579 127.396H32.9226ZM38.8764 124.692V125.593H35.1631V124.692H38.8764ZM36.4199 123.022H37.5942V129.859C37.5942 130.092 37.6302 130.267 37.7021 130.386C37.7741 130.504 37.8672 130.583 37.9814 130.621C38.0957 130.659 38.2184 130.678 38.3496 130.678C38.4469 130.678 38.5485 130.669 38.6543 130.652C38.7643 130.631 38.8468 130.614 38.9018 130.602L38.9082 131.56C38.8151 131.59 38.6924 131.617 38.54 131.643C38.3919 131.672 38.2121 131.687 38.0005 131.687C37.7127 131.687 37.4482 131.63 37.207 131.516C36.9658 131.401 36.7733 131.211 36.6294 130.944C36.4897 130.674 36.4199 130.31 36.4199 129.853V123.022ZM44.5637 130.386V126.85C44.5637 126.579 44.5087 126.344 44.3987 126.146C44.2929 125.942 44.1321 125.786 43.9162 125.676C43.7004 125.566 43.4338 125.511 43.1164 125.511C42.8202 125.511 42.5599 125.562 42.3357 125.663C42.1156 125.765 41.9421 125.898 41.8152 126.063C41.6924 126.228 41.6311 126.406 41.6311 126.596H40.4568C40.4568 126.351 40.5202 126.107 40.6472 125.866C40.7741 125.625 40.9561 125.407 41.1931 125.212C41.4343 125.014 41.7221 124.857 42.0564 124.743C42.3949 124.624 42.7715 124.565 43.1863 124.565C43.6856 124.565 44.1257 124.65 44.5066 124.819C44.8917 124.988 45.1921 125.244 45.4079 125.587C45.628 125.925 45.738 126.351 45.738 126.863V130.062C45.738 130.291 45.7571 130.534 45.7951 130.792C45.8375 131.05 45.8988 131.272 45.9792 131.458V131.56H44.7541C44.6949 131.425 44.6483 131.245 44.6145 131.021C44.5806 130.792 44.5637 130.58 44.5637 130.386ZM44.7668 127.396L44.7795 128.221H43.5925C43.2582 128.221 42.9599 128.249 42.6975 128.304C42.4351 128.354 42.2151 128.433 42.0373 128.539C41.8596 128.644 41.7242 128.778 41.6311 128.938C41.538 129.095 41.4914 129.279 41.4914 129.491C41.4914 129.707 41.5401 129.903 41.6374 130.081C41.7348 130.259 41.8807 130.401 42.0754 130.506C42.2743 130.608 42.5176 130.659 42.8054 130.659C43.1651 130.659 43.4825 130.583 43.7575 130.43C44.0326 130.278 44.2505 130.092 44.4113 129.872C44.5764 129.652 44.6653 129.438 44.6779 129.23L45.1794 129.795C45.1498 129.973 45.0694 130.17 44.9382 130.386C44.807 130.602 44.6314 130.809 44.4113 131.008C44.1955 131.202 43.9374 131.365 43.6369 131.497C43.3407 131.624 43.0064 131.687 42.634 131.687C42.1685 131.687 41.7601 131.596 41.4089 131.414C41.0619 131.232 40.7911 130.989 40.5964 130.684C40.406 130.375 40.3108 130.03 40.3108 129.649C40.3108 129.281 40.3827 128.958 40.5266 128.678C40.6705 128.395 40.8778 128.16 41.1487 127.974C41.4195 127.783 41.7453 127.639 42.1262 127.542C42.5071 127.445 42.9323 127.396 43.4021 127.396H44.7668ZM49.1211 121.81V131.56H47.9404V121.81H49.1211ZM53.196 130.849L55.1066 124.692H56.3635L53.6086 132.62C53.5451 132.789 53.4605 132.971 53.3547 133.166C53.2531 133.365 53.1219 133.553 52.9611 133.731C52.8003 133.909 52.6057 134.053 52.3771 134.163C52.1529 134.277 51.8841 134.334 51.571 134.334C51.4779 134.334 51.3594 134.321 51.2155 134.296C51.0716 134.271 50.9701 134.249 50.9108 134.232L50.9045 133.28C50.9383 133.285 50.9912 133.289 51.0632 133.293C51.1394 133.301 51.1923 133.306 51.2219 133.306C51.4885 133.306 51.7149 133.27 51.9011 133.198C52.0873 133.13 52.2438 133.014 52.3708 132.849C52.502 132.688 52.6141 132.466 52.7072 132.182L53.196 130.849ZM51.7932 124.692L53.5769 130.024L53.8815 131.262L53.0373 131.693L50.5109 124.692H51.7932ZM61.6826 129.738C61.6826 129.569 61.6445 129.412 61.5683 129.269C61.4964 129.12 61.3461 128.987 61.1176 128.869C60.8933 128.746 60.5548 128.64 60.102 128.551C59.7211 128.471 59.3762 128.376 59.0673 128.266C58.7626 128.156 58.5024 128.022 58.2866 127.866C58.075 127.709 57.9121 127.525 57.7978 127.313C57.6835 127.102 57.6264 126.854 57.6264 126.571C57.6264 126.3 57.6857 126.044 57.8041 125.803C57.9269 125.562 58.0983 125.348 58.3183 125.162C58.5426 124.975 58.8113 124.829 59.1245 124.724C59.4376 124.618 59.7867 124.565 60.1718 124.565C60.7219 124.565 61.1917 124.662 61.581 124.857C61.9703 125.052 62.2687 125.312 62.476 125.638C62.6834 125.959 62.7871 126.317 62.7871 126.71H61.6127C61.6127 126.52 61.5556 126.336 61.4413 126.158C61.3313 125.976 61.1684 125.826 60.9526 125.708C60.741 125.589 60.4807 125.53 60.1718 125.53C59.846 125.53 59.5815 125.581 59.3784 125.682C59.1795 125.779 59.0335 125.904 58.9404 126.057C58.8515 126.209 58.8071 126.37 58.8071 126.539C58.8071 126.666 58.8282 126.78 58.8705 126.882C58.9171 126.979 58.9975 127.07 59.1118 127.155C59.226 127.235 59.3868 127.311 59.5942 127.383C59.8015 127.455 60.066 127.527 60.3876 127.599C60.9505 127.726 61.4138 127.878 61.7778 128.056C62.1417 128.234 62.4125 128.452 62.5903 128.71C62.768 128.968 62.8569 129.281 62.8569 129.649C62.8569 129.95 62.7934 130.225 62.6664 130.475C62.5437 130.724 62.3639 130.94 62.1269 131.122C61.8941 131.3 61.6149 131.439 61.289 131.541C60.9674 131.638 60.6056 131.687 60.2036 131.687C59.5984 131.687 59.0864 131.579 58.6674 131.363C58.2485 131.147 57.9311 130.868 57.7153 130.525C57.4995 130.183 57.3915 129.821 57.3915 129.44H58.5722C58.5891 129.762 58.6822 130.018 58.8515 130.208C59.0208 130.394 59.2281 130.528 59.4736 130.608C59.719 130.684 59.9623 130.722 60.2036 130.722C60.5252 130.722 60.7939 130.68 61.0097 130.595C61.2298 130.511 61.3969 130.394 61.5112 130.246C61.6254 130.098 61.6826 129.929 61.6826 129.738ZM67.5348 124.692V125.593H63.8215V124.692H67.5348ZM65.0783 123.022H66.2526V129.859C66.2526 130.092 66.2886 130.267 66.3605 130.386C66.4325 130.504 66.5256 130.583 66.6398 130.621C66.7541 130.659 66.8768 130.678 67.008 130.678C67.1053 130.678 67.2069 130.669 67.3127 130.652C67.4227 130.631 67.5052 130.614 67.5602 130.602L67.5666 131.56C67.4735 131.59 67.3508 131.617 67.1984 131.643C67.0503 131.672 66.8705 131.687 66.6589 131.687C66.3711 131.687 66.1066 131.63 65.8654 131.516C65.6242 131.401 65.4317 131.211 65.2878 130.944C65.1481 130.674 65.0783 130.31 65.0783 129.853V123.022ZM78.4142 128.621H79.633C79.5695 129.205 79.4023 129.728 79.1315 130.189C78.8607 130.65 78.4777 131.016 77.9826 131.287C77.4875 131.554 76.8696 131.687 76.1291 131.687C75.5874 131.687 75.0944 131.585 74.6501 131.382C74.21 131.179 73.8312 130.891 73.5138 130.519C73.1964 130.142 72.951 129.692 72.7775 129.167C72.6082 128.638 72.5236 128.05 72.5236 127.402V126.482C72.5236 125.834 72.6082 125.248 72.7775 124.724C72.951 124.195 73.1986 123.742 73.5202 123.365C73.846 122.989 74.2375 122.699 74.6945 122.496C75.1515 122.292 75.6657 122.191 76.237 122.191C76.9352 122.191 77.5255 122.322 78.008 122.584C78.4904 122.847 78.8649 123.211 79.1315 123.676C79.4023 124.138 79.5695 124.673 79.633 125.282H78.4142C78.355 124.851 78.2449 124.48 78.0841 124.171C77.9233 123.858 77.6948 123.617 77.3986 123.448C77.1024 123.278 76.7152 123.194 76.237 123.194C75.8265 123.194 75.4647 123.272 75.1515 123.429C74.8426 123.585 74.5824 123.807 74.3708 124.095C74.1634 124.383 74.0068 124.728 73.901 125.13C73.7952 125.532 73.7423 125.978 73.7423 126.469V127.402C73.7423 127.855 73.7889 128.28 73.882 128.678C73.9793 129.076 74.1253 129.425 74.32 129.726C74.5146 130.026 74.7622 130.263 75.0627 130.437C75.3631 130.606 75.7186 130.69 76.1291 130.69C76.6496 130.69 77.0643 130.608 77.3732 130.443C77.6821 130.278 77.9149 130.041 78.0714 129.732C78.2323 129.423 78.3465 129.053 78.4142 128.621ZM82.559 121.81V131.56H81.3847V121.81H82.559ZM82.2797 127.866L81.7909 127.847C81.7951 127.377 81.865 126.943 82.0004 126.545C82.1358 126.143 82.3262 125.794 82.5717 125.498C82.8171 125.202 83.1091 124.973 83.4477 124.812C83.7904 124.647 84.1692 124.565 84.5839 124.565C84.9224 124.565 85.2271 124.611 85.4979 124.705C85.7688 124.793 85.9994 124.937 86.1898 125.136C86.3845 125.335 86.5326 125.593 86.6342 125.911C86.7357 126.224 86.7865 126.607 86.7865 127.06V131.56H85.6059V127.047C85.6059 126.687 85.553 126.399 85.4472 126.184C85.3414 125.964 85.1869 125.805 84.9838 125.708C84.7807 125.606 84.531 125.555 84.2348 125.555C83.9428 125.555 83.6762 125.617 83.435 125.739C83.198 125.862 82.9927 126.031 82.8192 126.247C82.65 126.463 82.5167 126.71 82.4193 126.99C82.3262 127.265 82.2797 127.557 82.2797 127.866ZM89.9791 125.771V131.56H88.8048V124.692H89.9474L89.9791 125.771ZM92.1246 124.654L92.1183 125.746C92.021 125.724 91.9279 125.712 91.839 125.708C91.7544 125.699 91.657 125.695 91.547 125.695C91.2762 125.695 91.0371 125.737 90.8297 125.822C90.6224 125.906 90.4468 126.025 90.3029 126.177C90.159 126.33 90.0447 126.512 89.9601 126.723C89.8797 126.931 89.8268 127.159 89.8014 127.409L89.4713 127.599C89.4713 127.184 89.5115 126.795 89.5919 126.431C89.6766 126.067 89.8056 125.746 89.9791 125.466C90.1526 125.183 90.3727 124.963 90.6393 124.806C90.9101 124.645 91.2317 124.565 91.6041 124.565C91.6888 124.565 91.7861 124.576 91.8961 124.597C92.0062 124.614 92.0823 124.633 92.1246 124.654ZM93.0321 128.202V128.056C93.0321 127.561 93.1041 127.102 93.2479 126.679C93.3918 126.251 93.5992 125.881 93.87 125.568C94.1408 125.25 94.4688 125.005 94.8539 124.832C95.239 124.654 95.6706 124.565 96.1488 124.565C96.6312 124.565 97.065 124.654 97.4501 124.832C97.8394 125.005 98.1695 125.25 98.4403 125.568C98.7154 125.881 98.9249 126.251 99.0687 126.679C99.2126 127.102 99.2846 127.561 99.2846 128.056V128.202C99.2846 128.697 99.2126 129.156 99.0687 129.58C98.9249 130.003 98.7154 130.373 98.4403 130.69C98.1695 131.004 97.8415 131.249 97.4564 131.427C97.0756 131.6 96.6439 131.687 96.1615 131.687C95.6791 131.687 95.2453 131.6 94.8602 131.427C94.4751 131.249 94.1451 131.004 93.87 130.69C93.5992 130.373 93.3918 130.003 93.2479 129.58C93.1041 129.156 93.0321 128.697 93.0321 128.202ZM94.2064 128.056V128.202C94.2064 128.545 94.2466 128.869 94.327 129.173C94.4074 129.474 94.528 129.74 94.6889 129.973C94.8539 130.206 95.0591 130.39 95.3046 130.525C95.55 130.657 95.8357 130.722 96.1615 130.722C96.4831 130.722 96.7645 130.657 97.0057 130.525C97.2512 130.39 97.4543 130.206 97.6151 129.973C97.7759 129.74 97.8965 129.474 97.9769 129.173C98.0616 128.869 98.1039 128.545 98.1039 128.202V128.056C98.1039 127.718 98.0616 127.398 97.9769 127.098C97.8965 126.793 97.7738 126.524 97.6088 126.292C97.448 126.055 97.2448 125.868 96.9994 125.733C96.7582 125.597 96.4747 125.53 96.1488 125.53C95.8272 125.53 95.5437 125.597 95.2982 125.733C95.057 125.868 94.8539 126.055 94.6889 126.292C94.528 126.524 94.4074 126.793 94.327 127.098C94.2466 127.398 94.2064 127.718 94.2064 128.056ZM102.192 126.158V131.56H101.017V124.692H102.128L102.192 126.158ZM101.912 127.866L101.423 127.847C101.428 127.377 101.498 126.943 101.633 126.545C101.768 126.143 101.959 125.794 102.204 125.498C102.45 125.202 102.742 124.973 103.08 124.812C103.423 124.647 103.802 124.565 104.216 124.565C104.555 124.565 104.86 124.611 105.13 124.705C105.401 124.793 105.632 124.937 105.822 125.136C106.017 125.335 106.165 125.593 106.267 125.911C106.368 126.224 106.419 126.607 106.419 127.06V131.56H105.238V127.047C105.238 126.687 105.185 126.399 105.08 126.184C104.974 125.964 104.819 125.805 104.616 125.708C104.413 125.606 104.164 125.555 103.867 125.555C103.575 125.555 103.309 125.617 103.067 125.739C102.831 125.862 102.625 126.031 102.452 126.247C102.283 126.463 102.149 126.71 102.052 126.99C101.959 127.265 101.912 127.557 101.912 127.866ZM109.739 124.692V131.56H108.558V124.692H109.739ZM108.469 122.87C108.469 122.68 108.526 122.519 108.64 122.388C108.759 122.257 108.932 122.191 109.161 122.191C109.385 122.191 109.557 122.257 109.675 122.388C109.798 122.519 109.859 122.68 109.859 122.87C109.859 123.052 109.798 123.209 109.675 123.34C109.557 123.467 109.385 123.53 109.161 123.53C108.932 123.53 108.759 123.467 108.64 123.34C108.526 123.209 108.469 123.052 108.469 122.87ZM114.632 130.722C114.912 130.722 115.17 130.665 115.407 130.551C115.644 130.437 115.838 130.28 115.991 130.081C116.143 129.878 116.23 129.647 116.251 129.389H117.368C117.347 129.795 117.21 130.174 116.956 130.525C116.706 130.872 116.378 131.154 115.972 131.37C115.566 131.581 115.119 131.687 114.632 131.687C114.116 131.687 113.665 131.596 113.28 131.414C112.9 131.232 112.582 130.982 112.328 130.665C112.079 130.348 111.89 129.984 111.763 129.573C111.641 129.159 111.579 128.721 111.579 128.259V127.993C111.579 127.531 111.641 127.096 111.763 126.685C111.89 126.27 112.079 125.904 112.328 125.587C112.582 125.27 112.9 125.02 113.28 124.838C113.665 124.656 114.116 124.565 114.632 124.565C115.17 124.565 115.64 124.675 116.042 124.895C116.444 125.111 116.759 125.407 116.987 125.784C117.22 126.156 117.347 126.579 117.368 127.053H116.251C116.23 126.77 116.15 126.514 116.01 126.285C115.874 126.057 115.688 125.875 115.451 125.739C115.219 125.6 114.946 125.53 114.632 125.53C114.273 125.53 113.97 125.602 113.725 125.746C113.483 125.885 113.291 126.076 113.147 126.317C113.007 126.554 112.906 126.818 112.842 127.11C112.783 127.398 112.754 127.692 112.754 127.993V128.259C112.754 128.56 112.783 128.856 112.842 129.148C112.902 129.44 113.001 129.704 113.141 129.941C113.285 130.178 113.477 130.369 113.718 130.513C113.964 130.652 114.268 130.722 114.632 130.722ZM120.224 121.81V131.56H119.044V121.81H120.224ZM125.22 131.687C124.742 131.687 124.308 131.607 123.919 131.446C123.533 131.281 123.201 131.05 122.922 130.754C122.647 130.458 122.435 130.106 122.287 129.7C122.139 129.294 122.065 128.85 122.065 128.367V128.101C122.065 127.542 122.148 127.045 122.313 126.609C122.478 126.169 122.702 125.796 122.985 125.492C123.269 125.187 123.591 124.956 123.95 124.8C124.31 124.643 124.682 124.565 125.067 124.565C125.558 124.565 125.982 124.65 126.337 124.819C126.697 124.988 126.991 125.225 127.219 125.53C127.448 125.83 127.617 126.186 127.727 126.596C127.837 127.002 127.892 127.447 127.892 127.929V128.456H122.763V127.498H126.718V127.409C126.701 127.104 126.637 126.808 126.527 126.52C126.422 126.232 126.252 125.995 126.02 125.809C125.787 125.623 125.469 125.53 125.067 125.53C124.801 125.53 124.555 125.587 124.331 125.701C124.107 125.811 123.914 125.976 123.753 126.196C123.593 126.416 123.468 126.685 123.379 127.002C123.29 127.32 123.246 127.686 123.246 128.101V128.367C123.246 128.693 123.29 129 123.379 129.288C123.472 129.571 123.605 129.821 123.779 130.037C123.957 130.252 124.17 130.422 124.42 130.544C124.674 130.667 124.962 130.729 125.283 130.729C125.698 130.729 126.049 130.644 126.337 130.475C126.625 130.305 126.877 130.079 127.092 129.795L127.803 130.36C127.655 130.585 127.467 130.798 127.238 131.001C127.01 131.205 126.728 131.37 126.394 131.497C126.064 131.624 125.673 131.687 125.22 131.687ZM133.522 129.738C133.522 129.569 133.484 129.412 133.408 129.269C133.336 129.12 133.186 128.987 132.957 128.869C132.733 128.746 132.395 128.64 131.942 128.551C131.561 128.471 131.216 128.376 130.907 128.266C130.602 128.156 130.342 128.022 130.126 127.866C129.915 127.709 129.752 127.525 129.638 127.313C129.523 127.102 129.466 126.854 129.466 126.571C129.466 126.3 129.525 126.044 129.644 125.803C129.767 125.562 129.938 125.348 130.158 125.162C130.382 124.975 130.651 124.829 130.964 124.724C131.277 124.618 131.626 124.565 132.012 124.565C132.562 124.565 133.031 124.662 133.421 124.857C133.81 125.052 134.108 125.312 134.316 125.638C134.523 125.959 134.627 126.317 134.627 126.71H133.452C133.452 126.52 133.395 126.336 133.281 126.158C133.171 125.976 133.008 125.826 132.792 125.708C132.581 125.589 132.32 125.53 132.012 125.53C131.686 125.53 131.421 125.581 131.218 125.682C131.019 125.779 130.873 125.904 130.78 126.057C130.691 126.209 130.647 126.37 130.647 126.539C130.647 126.666 130.668 126.78 130.71 126.882C130.757 126.979 130.837 127.07 130.951 127.155C131.066 127.235 131.227 127.311 131.434 127.383C131.641 127.455 131.906 127.527 132.227 127.599C132.79 127.726 133.254 127.878 133.618 128.056C133.981 128.234 134.252 128.452 134.43 128.71C134.608 128.968 134.697 129.281 134.697 129.649C134.697 129.95 134.633 130.225 134.506 130.475C134.383 130.724 134.204 130.94 133.967 131.122C133.734 131.3 133.455 131.439 133.129 131.541C132.807 131.638 132.445 131.687 132.043 131.687C131.438 131.687 130.926 131.579 130.507 131.363C130.088 131.147 129.771 130.868 129.555 130.525C129.339 130.183 129.231 129.821 129.231 129.44H130.412C130.429 129.762 130.522 130.018 130.691 130.208C130.861 130.394 131.068 130.528 131.313 130.608C131.559 130.684 131.802 130.722 132.043 130.722C132.365 130.722 132.634 130.68 132.849 130.595C133.069 130.511 133.237 130.394 133.351 130.246C133.465 130.098 133.522 129.929 133.522 129.738Z" fill="white"/>
<path d="M40.8672 111.525L105.528 49.2287L112.94 56.9559L119.406 21.1548L82.9742 25.2562L90.8718 33.5072L85.9543 38.257" stroke="white" stroke-width="0.907743" stroke-miterlimit="10"/>
<path opacity="0.05" fill-rule="evenodd" clip-rule="evenodd" d="M112.151 25.7176C111.696 25.8786 111.271 26.1548 110.903 26.463C110.484 26.8061 110.109 27.2206 109.808 27.6926C109.527 28.1561 109.311 28.671 109.259 29.2237C109.203 29.7814 109.331 30.3406 109.626 30.8381L116.143 38.4076L117.934 28.4717C117.934 27.7843 117.746 27.0928 117.298 26.5577C116.893 26.0842 116.332 25.7499 115.74 25.5653C115.124 25.3747 114.468 25.3003 113.829 25.3425C113.253 25.3742 112.672 25.4826 112.149 25.7172L112.151 25.7176Z" fill="white"/>
<path opacity="0.05" fill-rule="evenodd" clip-rule="evenodd" d="M112.99 50.487C113.596 50.1419 114.025 49.5436 114.256 48.8979L116.043 38.9872L107.292 43.8144C106.845 44.1602 106.529 44.6394 106.386 45.1915C106.246 45.7104 106.268 46.2781 106.367 46.8121C106.481 47.3589 106.691 47.875 106.962 48.3522C107.199 48.7716 107.498 49.1802 107.871 49.4885C108.278 49.8928 108.787 50.1877 109.316 50.4166C109.901 50.6755 110.54 50.8425 111.185 50.871C111.803 50.9108 112.445 50.8012 112.991 50.4912L112.99 50.487Z" fill="white"/>
<path opacity="0.05" fill-rule="evenodd" clip-rule="evenodd" d="M116.045 38.6935L108.135 32.6982C107.655 32.4504 107.091 32.3746 106.563 32.4846C106.052 32.5979 105.573 32.8782 105.174 33.2247C104.754 33.5754 104.393 34.0005 104.11 34.4736C103.852 34.8894 103.642 35.3596 103.535 35.8406C103.37 36.4146 103.321 37.0276 103.349 37.6225C103.379 38.2955 103.501 38.9591 103.753 39.5825C103.978 40.1571 104.35 40.7163 104.852 41.0899C105.395 41.4827 106.084 41.6227 106.757 41.5487L116.048 38.69L116.045 38.6935Z" fill="white"/>
<path fill-rule="evenodd" clip-rule="evenodd" d="M120.151 27.0693C119.556 27.4184 119.121 27.9956 118.889 28.6413L117.098 38.5771L125.857 33.7614C126.298 33.3964 126.627 32.9196 126.759 32.3755C126.899 31.8389 126.884 31.2821 126.775 30.7483C126.66 30.2016 126.461 29.6834 126.179 29.2141C125.941 28.7966 125.642 28.388 125.277 28.081C124.869 27.6787 124.345 27.371 123.826 27.142C123.242 26.8773 122.611 26.7197 121.958 26.6837C121.338 26.6516 120.688 26.7656 120.149 27.069L120.151 27.0693Z" fill="white"/>
<path fill-rule="evenodd" clip-rule="evenodd" d="M115.205 49.0711C115.197 49.7552 115.399 50.4692 115.835 51.0021C116.233 51.4823 116.803 51.8103 117.397 51.9891C118.018 52.1888 118.669 52.2522 119.307 52.2158C119.872 52.1842 120.471 52.089 120.992 51.8521C121.442 51.6919 121.865 51.4135 122.233 51.1033C122.663 50.7543 123.029 50.3399 123.329 49.868C123.618 49.4039 123.83 48.8802 123.881 48.3434C123.949 47.7777 123.814 47.2194 123.519 46.7377L116.994 39.1568L115.207 49.0676L115.205 49.0711Z" fill="white"/>
<path fill-rule="evenodd" clip-rule="evenodd" d="M117.105 38.885L124.812 44.8077C125.418 45.1123 126.109 45.2188 126.756 45.0426C127.358 44.8661 127.893 44.4724 128.313 44.0139C128.759 43.5165 129.113 42.9366 129.383 42.3198C129.617 41.7721 129.786 41.1807 129.831 40.5851C129.892 40.0958 129.853 39.5807 129.762 39.102C129.647 38.5572 129.472 38.0354 129.193 37.5587C128.933 37.0913 128.589 36.6647 128.15 36.3803C127.688 36.0917 127.146 35.9682 126.601 36.0313L117.11 38.8899L117.105 38.885Z" fill="white"/>
<path d="M51.081 68.7693L33.5237 86.3266C32.2905 87.5598 32.2905 89.5584 33.5237 90.7891C34.7086 91.974 36.6156 92.0274 37.8641 90.906L54.6586 75.8253C54.6586 75.8253 57.214 79.5071 55.8867 80.9387C54.9256 81.9735 48.3502 85.841 44.7828 87.9056C43.4987 88.6481 43.0232 90.2653 43.697 91.5875C44.3887 92.9427 46.0389 93.4919 47.4068 92.8232L59.5686 86.8708C59.5686 86.8708 63.7767 85.5867 63.3521 80.1225C62.9275 74.6582 61.3078 74.0886 63.6598 71.5332C66.0117 68.9778 70.9217 64.2713 70.9217 64.2713C70.9217 64.2713 73.0703 62.5321 77.0572 62.6363C81.0442 62.7406 84.9319 63.2491 88.5095 60.0809C90.9581 57.912 94.6069 54.2556 96.6639 52.1655C97.531 51.2857 97.5259 49.872 96.6512 48.9973C95.7765 48.1226 94.3603 48.1175 93.4805 48.9897C91.0725 51.3722 86.4957 55.7126 84.0089 56.8085C80.5331 58.3417 73.6805 55.888 69.2842 50.5712C64.8879 45.2545 48.4214 35.9431 24.4921 48.9312C24.4921 48.9312 34.4111 53.3275 28.8884 61.7133C33.2847 64.167 36.3537 65.1892 34.5128 71.223C34.5128 71.223 41.4671 73.1656 39.4202 80.1199" stroke="white" stroke-width="0.907743" stroke-miterlimit="10"/>
<path opacity="0.1" d="M29.1328 61.3573C29.1328 61.3573 39.1917 55.148 50.5067 57.1135" stroke="white" stroke-width="0.907743" stroke-miterlimit="10"/>
<path opacity="0.1" d="M34.5156 71.2229C34.5156 71.2229 40.6308 67.1877 48.0504 65.9113" stroke="white" stroke-width="0.907743" stroke-miterlimit="10"/>
<path d="M68.8766 50.4058C68.6935 50.4058 60.534 49.9049 56.069 49.6303C54.462 49.5311 53.0483 50.6881 52.8296 52.2849L51.2125 64.0474C51.0218 65.4281 51.9422 66.7172 53.3102 66.9893C54.7799 67.2792 56.1962 66.285 56.4225 64.8026L57.7828 55.8574L62.8529 56.6176L58.9219 60.1037" stroke="white" stroke-width="0.907743" stroke-miterlimit="10"/>
<path d="M80.4453 53.6529C84.1947 53.6529 87.2342 50.6134 87.2342 46.8639C87.2342 43.1145 84.1947 40.075 80.4453 40.075C76.6958 40.075 73.6562 43.1145 73.6562 46.8639C73.6562 50.6134 76.6958 53.6529 80.4453 53.6529Z" stroke="white" stroke-width="0.907743" stroke-miterlimit="10"/>
<path opacity="0.4" d="M99.1313 62.2951C99.251 61.9266 99.7724 61.9266 99.8921 62.2951L100.769 64.9938C100.823 65.1586 100.976 65.2702 101.149 65.2702H103.987C104.374 65.2702 104.536 65.766 104.222 65.9938L101.926 67.6617C101.786 67.7635 101.728 67.9441 101.781 68.1089L102.658 70.8075C102.778 71.1761 102.356 71.4825 102.042 71.2548L99.7468 69.5869C99.6066 69.485 99.4168 69.485 99.2766 69.5869L96.981 71.2548C96.6675 71.4825 96.2457 71.1761 96.3654 70.8075L97.2423 68.1089C97.2958 67.9441 97.2372 67.7635 97.097 67.6617L94.8013 65.9938C94.4879 65.766 94.649 65.2702 95.0365 65.2702H97.874C98.0473 65.2702 98.2009 65.1586 98.2544 64.9938L99.1313 62.2951Z" fill="white"/>
<path opacity="0.2" d="M87.7898 71.8072C87.8597 71.5923 88.1638 71.5923 88.2336 71.8072L88.7451 73.3815C88.7764 73.4776 88.866 73.5427 88.967 73.5427H90.6223C90.8483 73.5427 90.9423 73.832 90.7594 73.9648L89.4203 74.9377C89.3385 74.9972 89.3043 75.1025 89.3356 75.1986L89.8471 76.7728C89.9169 76.9878 89.6709 77.1666 89.488 77.0337L88.1489 76.0608C88.0671 76.0014 87.9563 76.0014 87.8746 76.0608L86.5354 77.0337C86.3526 77.1666 86.1065 76.9878 86.1764 76.7728L86.6879 75.1986C86.7191 75.1025 86.6849 74.9972 86.6031 74.9377L85.264 73.9648C85.0811 73.832 85.1751 73.5427 85.4011 73.5427H87.0564C87.1575 73.5427 87.2471 73.4776 87.2783 73.3815L87.7898 71.8072Z" fill="white"/>
<path opacity="0.1" d="M98.8532 75.6121C98.9031 75.4586 99.1203 75.4586 99.1702 75.6121L99.5356 76.7366C99.5579 76.8052 99.6219 76.8517 99.6941 76.8517H100.876C101.038 76.8517 101.105 77.0583 100.974 77.1532L100.018 77.8482C99.9594 77.8906 99.935 77.9658 99.9573 78.0345L100.323 79.159C100.373 79.3125 100.197 79.4402 100.066 79.3453L99.1097 78.6504C99.0513 78.6079 98.9722 78.6079 98.9138 78.6504L97.9572 79.3453C97.8266 79.4402 97.6509 79.3125 97.7008 79.159L98.0661 78.0345C98.0884 77.9658 98.064 77.8906 98.0056 77.8482L97.0491 77.1532C96.9184 77.0583 96.9856 76.8517 97.147 76.8517H98.3293C98.4015 76.8517 98.4655 76.8052 98.4879 76.7366L98.8532 75.6121Z" fill="white"/>
</svg>
