<svg width="163" height="142" viewBox="0 0 163 142" fill="none" xmlns="http://www.w3.org/2000/svg">
<path d="M41.5039 125.767L43.3384 119.318H44.2271L43.7129 121.825L41.7388 128.56H40.8564L41.5039 125.767ZM39.606 119.318L41.0659 125.64L41.5039 128.56H40.6279L38.3872 119.318H39.606ZM46.6011 125.634L48.0293 119.318H49.2544L47.02 128.56H46.144L46.6011 125.634ZM44.3604 119.318L46.144 125.767L46.7915 128.56H45.9092L44.0049 121.825L43.4844 119.318H44.3604ZM54.529 127.386V123.85C54.529 123.579 54.474 123.345 54.364 123.146C54.2582 122.943 54.0974 122.786 53.8816 122.676C53.6658 122.566 53.3992 122.511 53.0818 122.511C52.7856 122.511 52.5253 122.562 52.301 122.663C52.081 122.765 51.9075 122.898 51.7805 123.063C51.6578 123.228 51.5964 123.406 51.5964 123.596H50.4221C50.4221 123.351 50.4856 123.108 50.6125 122.866C50.7395 122.625 50.9215 122.407 51.1584 122.213C51.3996 122.014 51.6874 121.857 52.0217 121.743C52.3603 121.624 52.7369 121.565 53.1516 121.565C53.651 121.565 54.0911 121.65 54.4719 121.819C54.857 121.988 55.1575 122.244 55.3733 122.587C55.5933 122.926 55.7034 123.351 55.7034 123.863V127.062C55.7034 127.291 55.7224 127.534 55.7605 127.792C55.8028 128.05 55.8642 128.272 55.9446 128.459V128.56H54.7195C54.6602 128.425 54.6137 128.245 54.5798 128.021C54.546 127.792 54.529 127.581 54.529 127.386ZM54.7322 124.396L54.7449 125.221H53.5579C53.2235 125.221 52.9252 125.249 52.6628 125.304C52.4005 125.355 52.1804 125.433 52.0027 125.539C51.8249 125.644 51.6895 125.778 51.5964 125.939C51.5033 126.095 51.4568 126.279 51.4568 126.491C51.4568 126.707 51.5054 126.903 51.6028 127.081C51.7001 127.259 51.8461 127.401 52.0408 127.506C52.2397 127.608 52.483 127.659 52.7707 127.659C53.1304 127.659 53.4478 127.583 53.7229 127.43C53.998 127.278 54.2159 127.092 54.3767 126.872C54.5417 126.652 54.6306 126.438 54.6433 126.231L55.1448 126.796C55.1151 126.973 55.0347 127.17 54.9036 127.386C54.7724 127.602 54.5968 127.809 54.3767 128.008C54.1609 128.203 53.9027 128.366 53.6023 128.497C53.3061 128.624 52.9718 128.687 52.5994 128.687C52.1339 128.687 51.7255 128.596 51.3743 128.414C51.0273 128.232 50.7564 127.989 50.5618 127.684C50.3713 127.375 50.2761 127.03 50.2761 126.65C50.2761 126.281 50.3481 125.958 50.4919 125.678C50.6358 125.395 50.8432 125.16 51.114 124.974C51.3848 124.783 51.7107 124.639 52.0915 124.542C52.4724 124.445 52.8977 124.396 53.3674 124.396H54.7322ZM59.0864 118.81V128.56H57.9057V118.81H59.0864ZM62.5075 118.81V128.56H61.3269V118.81H62.5075ZM75.4309 123.647V124.231C75.4309 124.925 75.3441 125.547 75.1706 126.097C74.9971 126.647 74.7474 127.115 74.4216 127.5C74.0957 127.885 73.7043 128.179 73.2473 128.382C72.7945 128.586 72.2867 128.687 71.7238 128.687C71.1779 128.687 70.6765 128.586 70.2194 128.382C69.7666 128.179 69.3731 127.885 69.0388 127.5C68.7087 127.115 68.4527 126.647 68.2707 126.097C68.0887 125.547 67.9978 124.925 67.9978 124.231V123.647C67.9978 122.953 68.0866 122.333 68.2644 121.787C68.4463 121.237 68.7023 120.769 69.0324 120.384C69.3625 119.995 69.7539 119.699 70.2067 119.496C70.6638 119.293 71.1652 119.191 71.7111 119.191C72.274 119.191 72.7818 119.293 73.2346 119.496C73.6916 119.699 74.083 119.995 74.4089 120.384C74.739 120.769 74.9908 121.237 75.1643 121.787C75.342 122.333 75.4309 122.953 75.4309 123.647ZM74.2185 124.231V123.634C74.2185 123.084 74.1613 122.598 74.0471 122.174C73.937 121.751 73.7741 121.396 73.5583 121.108C73.3425 120.82 73.078 120.602 72.7648 120.454C72.4559 120.306 72.1047 120.232 71.7111 120.232C71.3303 120.232 70.9854 120.306 70.6765 120.454C70.3718 120.602 70.1094 120.82 69.8894 121.108C69.6735 121.396 69.5064 121.751 69.3879 122.174C69.2694 122.598 69.2102 123.084 69.2102 123.634V124.231C69.2102 124.785 69.2694 125.276 69.3879 125.704C69.5064 126.127 69.6757 126.484 69.8957 126.776C70.12 127.064 70.3845 127.282 70.6892 127.43C70.9981 127.578 71.343 127.652 71.7238 127.652C72.1216 127.652 72.475 127.578 72.7839 127.43C73.0928 127.282 73.3531 127.064 73.5646 126.776C73.7805 126.484 73.9434 126.127 74.0534 125.704C74.1634 125.276 74.2185 124.785 74.2185 124.231ZM79.0996 128.56H77.9252V120.968C77.9252 120.473 78.0141 120.056 78.1918 119.718C78.3738 119.375 78.6341 119.117 78.9726 118.943C79.3111 118.766 79.7132 118.677 80.1787 118.677C80.3141 118.677 80.4495 118.685 80.5849 118.702C80.7246 118.719 80.86 118.745 80.9912 118.778L80.9277 119.737C80.8388 119.716 80.7372 119.701 80.623 119.693C80.513 119.684 80.4029 119.68 80.2929 119.68C80.0432 119.68 79.8274 119.731 79.6455 119.832C79.4677 119.929 79.3323 120.073 79.2392 120.264C79.1461 120.454 79.0996 120.689 79.0996 120.968V128.56ZM80.5595 121.692V122.593H76.8398V121.692H80.5595ZM91.8261 123.292V124.288H86.8241V123.292H91.8261ZM87.0146 119.318V128.56H85.7895V119.318H87.0146ZM92.8925 119.318V128.56H91.6738V119.318H92.8925ZM94.841 125.202V125.056C94.841 124.561 94.9129 124.102 95.0568 123.679C95.2007 123.251 95.408 122.881 95.6789 122.568C95.9497 122.251 96.2777 122.005 96.6628 121.832C97.0478 121.654 97.4795 121.565 97.9577 121.565C98.4401 121.565 98.8739 121.654 99.2589 121.832C99.6483 122.005 99.9783 122.251 100.249 122.568C100.524 122.881 100.734 123.251 100.878 123.679C101.021 124.102 101.093 124.561 101.093 125.056V125.202C101.093 125.697 101.021 126.157 100.878 126.58C100.734 127.003 100.524 127.373 100.249 127.691C99.9783 128.004 99.6504 128.249 99.2653 128.427C98.8844 128.6 98.4528 128.687 97.9704 128.687C97.4879 128.687 97.0542 128.6 96.6691 128.427C96.284 128.249 95.9539 128.004 95.6789 127.691C95.408 127.373 95.2007 127.003 95.0568 126.58C94.9129 126.157 94.841 125.697 94.841 125.202ZM96.0153 125.056V125.202C96.0153 125.545 96.0555 125.869 96.1359 126.173C96.2163 126.474 96.3369 126.741 96.4977 126.973C96.6628 127.206 96.868 127.39 97.1134 127.526C97.3589 127.657 97.6445 127.722 97.9704 127.722C98.292 127.722 98.5734 127.657 98.8146 127.526C99.0601 127.39 99.2632 127.206 99.424 126.973C99.5848 126.741 99.7054 126.474 99.7858 126.173C99.8704 125.869 99.9128 125.545 99.9128 125.202V125.056C99.9128 124.718 99.8704 124.398 99.7858 124.098C99.7054 123.793 99.5827 123.524 99.4176 123.292C99.2568 123.055 99.0537 122.868 98.8083 122.733C98.5671 122.598 98.2835 122.53 97.9577 122.53C97.6361 122.53 97.3525 122.598 97.1071 122.733C96.8659 122.868 96.6628 123.055 96.4977 123.292C96.3369 123.524 96.2163 123.793 96.1359 124.098C96.0555 124.398 96.0153 124.718 96.0153 125.056ZM104 123.012V131.201H102.82V121.692H103.899L104 123.012ZM108.628 125.069V125.202C108.628 125.702 108.569 126.165 108.45 126.592C108.332 127.016 108.158 127.384 107.93 127.697C107.705 128.01 107.428 128.253 107.098 128.427C106.768 128.6 106.389 128.687 105.962 128.687C105.526 128.687 105.141 128.615 104.807 128.471C104.472 128.327 104.189 128.118 103.956 127.843C103.723 127.568 103.537 127.238 103.397 126.853C103.262 126.468 103.169 126.034 103.118 125.551V124.84C103.169 124.333 103.264 123.878 103.404 123.476C103.543 123.074 103.727 122.731 103.956 122.447C104.189 122.16 104.47 121.942 104.8 121.794C105.13 121.641 105.511 121.565 105.943 121.565C106.374 121.565 106.757 121.65 107.092 121.819C107.426 121.984 107.707 122.221 107.936 122.53C108.164 122.839 108.336 123.209 108.45 123.641C108.569 124.068 108.628 124.544 108.628 125.069ZM107.447 125.202V125.069C107.447 124.726 107.411 124.405 107.339 124.104C107.267 123.799 107.155 123.533 107.003 123.304C106.855 123.072 106.664 122.89 106.432 122.758C106.199 122.623 105.922 122.555 105.6 122.555C105.304 122.555 105.046 122.606 104.826 122.708C104.61 122.809 104.426 122.947 104.273 123.12C104.121 123.29 103.996 123.484 103.899 123.704C103.806 123.92 103.736 124.144 103.689 124.377V126.021C103.774 126.317 103.892 126.597 104.045 126.859C104.197 127.117 104.4 127.327 104.654 127.487C104.908 127.644 105.228 127.722 105.613 127.722C105.93 127.722 106.203 127.657 106.432 127.526C106.664 127.39 106.855 127.206 107.003 126.973C107.155 126.741 107.267 126.474 107.339 126.173C107.411 125.869 107.447 125.545 107.447 125.202ZM113.236 128.687C112.758 128.687 112.324 128.607 111.935 128.446C111.55 128.281 111.217 128.05 110.938 127.754C110.663 127.458 110.451 127.107 110.303 126.7C110.155 126.294 110.081 125.85 110.081 125.367V125.101C110.081 124.542 110.164 124.045 110.329 123.609C110.494 123.169 110.718 122.797 111.002 122.492C111.285 122.187 111.607 121.957 111.966 121.8C112.326 121.643 112.699 121.565 113.084 121.565C113.575 121.565 113.998 121.65 114.353 121.819C114.713 121.988 115.007 122.225 115.235 122.53C115.464 122.83 115.633 123.186 115.743 123.596C115.853 124.003 115.908 124.447 115.908 124.929V125.456H110.779V124.498H114.734V124.409C114.717 124.104 114.654 123.808 114.544 123.52C114.438 123.232 114.269 122.995 114.036 122.809C113.803 122.623 113.486 122.53 113.084 122.53C112.817 122.53 112.572 122.587 112.347 122.701C112.123 122.811 111.93 122.976 111.77 123.196C111.609 123.416 111.484 123.685 111.395 124.003C111.306 124.32 111.262 124.686 111.262 125.101V125.367C111.262 125.693 111.306 126 111.395 126.288C111.488 126.571 111.622 126.821 111.795 127.037C111.973 127.253 112.186 127.422 112.436 127.545C112.69 127.667 112.978 127.729 113.299 127.729C113.714 127.729 114.065 127.644 114.353 127.475C114.641 127.305 114.893 127.079 115.109 126.796L115.819 127.36C115.671 127.585 115.483 127.798 115.255 128.002C115.026 128.205 114.745 128.37 114.41 128.497C114.08 128.624 113.689 128.687 113.236 128.687Z" fill="white"/>
<path d="M101.826 64.3761V13.9999H42.0001V110.828M101.826 113.5V71.0697M116.528 62.4076L117.591 58.439C118.185 58.9652 118.669 59.5437 118.978 60.0935C119.575 61.1615 119.585 61.8238 119.245 62.439C118.905 63.0541 117.79 64.1091 114.711 64.7347C111.633 65.363 106.787 65.4677 99.9207 64.473C95.9207 63.8107 95.0438 69.8708 99.0673 70.3682C106.373 71.4283 111.797 71.4074 115.899 70.5723C120.002 69.7373 122.978 67.9965 124.457 65.3237C125.936 62.651 125.494 59.5385 124.182 57.1904C119.771 50.3763 110.216 48.9497 102.319 48.1146M103.528 110.828L109.803 87.415L109.826 87.4255L113.934 71.4388M111.491 32.5258C108.261 32.6567 105.342 34.8609 104.462 38.1462C103.373 42.2142 105.787 46.3554 109.829 47.4392C113.897 48.5282 118.067 46.1513 119.159 42.0833C120.242 38.0414 117.826 33.8714 113.758 32.7797C112.999 32.5756 112.237 32.4944 111.491 32.5258Z" stroke="white" stroke-width="0.9" stroke-linecap="round" stroke-linejoin="round"/>
<path opacity="0.2" d="M42.5234 26.272H64.7849" stroke="white" stroke-width="0.543308" stroke-linecap="round" stroke-linejoin="round"/>
<path opacity="0.2" d="M54.0156 26.4525V37.044" stroke="white" stroke-width="0.543308" stroke-linecap="round" stroke-linejoin="round"/>
<path opacity="0.2" d="M48.4688 36.9943H70.7302" stroke="white" stroke-width="0.543308" stroke-linecap="round" stroke-linejoin="round"/>
<path opacity="0.2" d="M79.6406 94H101.902" stroke="white" stroke-width="0.543308" stroke-linecap="round" stroke-linejoin="round"/>
<path opacity="0.2" d="M90.1797 94.5421V105.136" stroke="white" stroke-width="0.543308" stroke-linecap="round" stroke-linejoin="round"/>
<path fill-rule="evenodd" clip-rule="evenodd" d="M60.8247 71.0567C61.064 71.4764 61.4111 71.8451 61.7798 72.153C62.1916 72.504 62.6662 72.8002 63.184 73.012C63.6899 73.2061 64.2351 73.3277 64.7882 73.2806C65.3471 73.2375 65.8747 73.012 66.312 72.6335L72.6053 64.8771H62.5093C61.8327 64.9987 61.1856 65.3066 60.7384 65.842C60.3442 66.3245 60.1148 66.9363 60.0383 67.5521C59.9598 68.1915 60.003 68.8504 60.1579 69.4721C60.2913 70.033 60.5011 70.586 60.8247 71.0587V71.0567Z" fill="white"/>
<path fill-rule="evenodd" clip-rule="evenodd" d="M85.0543 65.8401C84.6072 65.3047 83.9424 64.989 83.2658 64.8752H73.1953L79.4984 72.6316C79.9181 73.0101 80.4457 73.2356 81.0144 73.2787C81.5498 73.3239 82.1048 73.2023 82.6127 73.0101C83.1305 72.8002 83.6011 72.5021 84.0228 72.1511C84.3934 71.8432 84.7425 71.4765 84.9798 71.0548C85.3054 70.5822 85.5054 70.0291 85.6368 69.4682C85.7878 68.8466 85.8388 68.1876 85.7525 67.5483C85.6819 66.9325 85.4603 66.3206 85.0583 65.8382L85.0543 65.8401Z" fill="white"/>
<path fill-rule="evenodd" clip-rule="evenodd" d="M72.9049 64.9262L68.408 73.7749C68.2491 74.2907 68.2746 74.8594 68.4766 75.3595C68.6786 75.8419 69.0395 76.2636 69.4513 76.595C69.871 76.9461 70.3534 77.2265 70.8692 77.4207C71.3242 77.6011 71.8243 77.7246 72.3165 77.7442C72.9108 77.805 73.5226 77.7442 74.1031 77.6109C74.7601 77.4618 75.3916 77.2245 75.9604 76.8657C76.4859 76.5421 76.9703 76.0773 77.2488 75.5164C77.5391 74.9124 77.5548 74.2103 77.3626 73.5611L72.901 64.9243L72.9049 64.9262Z" fill="white"/>
<path fill-rule="evenodd" clip-rule="evenodd" d="M60.7397 62.9493C61.1888 63.4729 61.834 63.7985 62.5106 63.9122H72.6066L66.3133 56.1461C65.876 55.7774 65.3484 55.5381 64.7895 55.5048C64.2364 55.4616 63.6912 55.5754 63.1853 55.7774C62.6675 55.9872 62.1929 56.2755 61.7811 56.6364C61.4124 56.9443 61.0633 57.311 60.826 57.7248C60.5024 58.1974 60.2926 58.7681 60.1592 59.3192C60.0023 59.9409 59.9592 60.59 60.0396 61.2392C60.118 61.855 60.3455 62.4747 60.7397 62.9513V62.9493Z" fill="white"/>
<path fill-rule="evenodd" clip-rule="evenodd" d="M83.2697 63.9122C83.9443 63.7985 84.6111 63.4729 85.0583 62.9493C85.4603 62.4728 85.6819 61.853 85.7525 61.2372C85.8388 60.59 85.7859 59.939 85.6368 59.3173C85.5054 58.7662 85.3054 58.1935 84.9798 57.7229C84.7425 57.3091 84.3934 56.9423 84.0228 56.6344C83.6031 56.2736 83.1305 55.9872 82.6127 55.7754C82.1048 55.5734 81.5517 55.4577 81.0144 55.5028C80.4457 55.5362 79.9201 55.7676 79.4984 56.1441L73.1953 63.9103H83.2658L83.2697 63.9122Z" fill="white"/>
<path fill-rule="evenodd" clip-rule="evenodd" d="M72.9088 63.8495L77.3704 55.2146C77.5626 54.5635 77.5449 53.8653 77.2566 53.2593C76.9762 52.6984 76.4937 52.2415 75.9682 51.9101C75.3994 51.559 74.766 51.3139 74.111 51.157C73.5305 51.0236 72.9186 50.9628 72.3244 51.0236C71.8321 51.0511 71.332 51.1805 70.877 51.3551C70.3613 51.5649 69.8788 51.8297 69.4591 52.1885C69.0453 52.5278 68.6864 52.9416 68.4844 53.4241C68.2824 53.93 68.2569 54.485 68.4158 55.0106L72.9127 63.8436L72.9088 63.8495Z" fill="white"/>
</svg>
