<svg width="163" height="142" viewBox="0 0 163 142" fill="none" xmlns="http://www.w3.org/2000/svg">
<path d="M27.5043 125.767L29.3387 119.318H30.2274L29.7133 121.825L27.7391 128.56H26.8568L27.5043 125.767ZM25.6063 119.318L27.0663 125.64L27.5043 128.56H26.6283L24.3876 119.318H25.6063ZM32.6014 125.634L34.0297 119.318H35.2548L33.0204 128.56H32.1444L32.6014 125.634ZM30.3607 119.318L32.1444 125.767L32.7919 128.56H31.9095L30.0052 121.825L29.4847 119.318H30.3607ZM39.3424 128.687C38.8642 128.687 38.4305 128.607 38.0411 128.446C37.656 128.281 37.3238 128.05 37.0445 127.754C36.7695 127.458 36.5579 127.106 36.4098 126.7C36.2617 126.294 36.1876 125.85 36.1876 125.367V125.101C36.1876 124.542 36.2701 124.045 36.4352 123.609C36.6002 123.169 36.8245 122.796 37.108 122.492C37.3916 122.187 37.7132 121.956 38.0729 121.8C38.4326 121.643 38.805 121.565 39.1901 121.565C39.6809 121.565 40.1041 121.65 40.4596 121.819C40.8193 121.988 41.1134 122.225 41.3419 122.53C41.5704 122.83 41.7397 123.186 41.8497 123.596C41.9597 124.002 42.0148 124.447 42.0148 124.929V125.456H36.8859V124.498H40.8404V124.409C40.8235 124.104 40.76 123.808 40.65 123.52C40.5442 123.232 40.3749 122.995 40.1422 122.809C39.9095 122.623 39.5921 122.53 39.1901 122.53C38.9235 122.53 38.678 122.587 38.4537 122.701C38.2294 122.811 38.0369 122.976 37.8761 123.196C37.7153 123.416 37.5904 123.685 37.5016 124.002C37.4127 124.32 37.3683 124.686 37.3683 125.101V125.367C37.3683 125.693 37.4127 126 37.5016 126.288C37.5947 126.571 37.728 126.821 37.9015 127.037C38.0792 127.252 38.2929 127.422 38.5426 127.544C38.7965 127.667 39.0843 127.729 39.4059 127.729C39.8206 127.729 40.1718 127.644 40.4596 127.475C40.7473 127.305 40.9991 127.079 41.215 126.795L41.9259 127.36C41.7778 127.585 41.5895 127.798 41.361 128.001C41.1324 128.205 40.851 128.37 40.5167 128.497C40.1866 128.624 39.7952 128.687 39.3424 128.687ZM50.7296 120.137L47.67 128.56H46.4195L49.9425 119.318H50.7486L50.7296 120.137ZM53.294 128.56L50.2281 120.137L50.2091 119.318H51.0152L54.5509 128.56H53.294ZM53.1353 125.139V126.142H47.943V125.139H53.1353ZM57.0452 122.771V128.56H55.8709V121.692H57.0135L57.0452 122.771ZM59.1908 121.654L59.1844 122.746C59.0871 122.724 58.994 122.712 58.9051 122.708C58.8205 122.699 58.7231 122.695 58.6131 122.695C58.3423 122.695 58.1032 122.737 57.8958 122.822C57.6885 122.906 57.5129 123.025 57.369 123.177C57.2251 123.33 57.1108 123.512 57.0262 123.723C56.9458 123.931 56.8929 124.159 56.8675 124.409L56.5374 124.599C56.5374 124.184 56.5776 123.795 56.658 123.431C56.7427 123.067 56.8717 122.746 57.0452 122.466C57.2188 122.183 57.4388 121.963 57.7054 121.806C57.9762 121.645 58.2979 121.565 58.6702 121.565C58.7549 121.565 58.8522 121.576 58.9622 121.597C59.0723 121.614 59.1484 121.633 59.1908 121.654ZM63.2593 128.687C62.7812 128.687 62.3474 128.607 61.9581 128.446C61.573 128.281 61.2408 128.05 60.9615 127.754C60.6864 127.458 60.4748 127.106 60.3267 126.7C60.1786 126.294 60.1046 125.85 60.1046 125.367V125.101C60.1046 124.542 60.1871 124.045 60.3521 123.609C60.5172 123.169 60.7414 122.796 61.025 122.492C61.3085 122.187 61.6301 121.956 61.9898 121.8C62.3495 121.643 62.7219 121.565 63.107 121.565C63.5979 121.565 64.0211 121.65 64.3765 121.819C64.7362 121.988 65.0303 122.225 65.2589 122.53C65.4874 122.83 65.6566 123.186 65.7667 123.596C65.8767 124.002 65.9317 124.447 65.9317 124.929V125.456H60.8028V124.498H64.7574V124.409C64.7405 124.104 64.677 123.808 64.567 123.52C64.4612 123.232 64.2919 122.995 64.0592 122.809C63.8264 122.623 63.509 122.53 63.107 122.53C62.8404 122.53 62.595 122.587 62.3707 122.701C62.1464 122.811 61.9538 122.976 61.793 123.196C61.6322 123.416 61.5074 123.685 61.4185 124.002C61.3297 124.32 61.2852 124.686 61.2852 125.101V125.367C61.2852 125.693 61.3297 126 61.4185 126.288C61.5116 126.571 61.6449 126.821 61.8184 127.037C61.9962 127.252 62.2099 127.422 62.4595 127.544C62.7135 127.667 63.0012 127.729 63.3228 127.729C63.7375 127.729 64.0888 127.644 64.3765 127.475C64.6643 127.305 64.9161 127.079 65.1319 126.795L65.8428 127.36C65.6947 127.585 65.5064 127.798 65.2779 128.001C65.0494 128.205 64.768 128.37 64.4337 128.497C64.1036 128.624 63.7121 128.687 63.2593 128.687ZM76.8047 125.621H78.0235C77.96 126.205 77.7929 126.728 77.522 127.189C77.2512 127.65 76.8682 128.016 76.3731 128.287C75.878 128.554 75.2601 128.687 74.5196 128.687C73.9779 128.687 73.4849 128.585 73.0406 128.382C72.6005 128.179 72.2217 127.891 71.9044 127.519C71.587 127.142 71.3415 126.692 71.168 126.167C70.9988 125.638 70.9141 125.05 70.9141 124.402V123.482C70.9141 122.834 70.9988 122.248 71.168 121.724C71.3415 121.195 71.5891 120.742 71.9107 120.365C72.2365 119.989 72.628 119.699 73.085 119.496C73.542 119.292 74.0562 119.191 74.6275 119.191C75.3257 119.191 75.9161 119.322 76.3985 119.584C76.8809 119.847 77.2554 120.211 77.522 120.676C77.7929 121.138 77.96 121.673 78.0235 122.282H76.8047C76.7455 121.851 76.6355 121.48 76.4747 121.171C76.3139 120.858 76.0853 120.617 75.7891 120.448C75.4929 120.278 75.1057 120.194 74.6275 120.194C74.217 120.194 73.8552 120.272 73.542 120.429C73.2331 120.585 72.9729 120.807 72.7613 121.095C72.5539 121.383 72.3974 121.728 72.2916 122.13C72.1858 122.532 72.1329 122.978 72.1329 123.469V124.402C72.1329 124.855 72.1794 125.28 72.2725 125.678C72.3698 126.076 72.5158 126.425 72.7105 126.726C72.9052 127.026 73.1527 127.263 73.4532 127.437C73.7536 127.606 74.1091 127.69 74.5196 127.69C75.0401 127.69 75.4548 127.608 75.7637 127.443C76.0726 127.278 76.3054 127.041 76.462 126.732C76.6228 126.423 76.737 126.053 76.8047 125.621ZM83.825 127.386V123.85C83.825 123.579 83.77 123.344 83.66 123.146C83.5542 122.942 83.3934 122.786 83.1775 122.676C82.9617 122.566 82.6951 122.511 82.3777 122.511C82.0815 122.511 81.8213 122.562 81.597 122.663C81.3769 122.765 81.2034 122.898 81.0765 123.063C80.9537 123.228 80.8924 123.406 80.8924 123.596H79.7181C79.7181 123.351 79.7815 123.107 79.9085 122.866C80.0354 122.625 80.2174 122.407 80.4544 122.212C80.6956 122.014 80.9834 121.857 81.3177 121.743C81.6562 121.624 82.0328 121.565 82.4476 121.565C82.9469 121.565 83.387 121.65 83.7679 121.819C84.153 121.988 84.4534 122.244 84.6692 122.587C84.8893 122.925 84.9993 123.351 84.9993 123.863V127.062C84.9993 127.291 85.0184 127.534 85.0564 127.792C85.0988 128.05 85.1601 128.272 85.2405 128.458V128.56H84.0154C83.9562 128.425 83.9096 128.245 83.8758 128.021C83.8419 127.792 83.825 127.58 83.825 127.386ZM84.0281 124.396L84.0408 125.221H82.8538C82.5195 125.221 82.2212 125.249 81.9588 125.304C81.6964 125.354 81.4764 125.433 81.2986 125.539C81.1209 125.644 80.9855 125.778 80.8924 125.938C80.7993 126.095 80.7527 126.279 80.7527 126.491C80.7527 126.707 80.8014 126.903 80.8987 127.081C80.9961 127.259 81.1421 127.401 81.3367 127.506C81.5356 127.608 81.7789 127.659 82.0667 127.659C82.4264 127.659 82.7438 127.583 83.0188 127.43C83.2939 127.278 83.5118 127.092 83.6727 126.872C83.8377 126.652 83.9266 126.438 83.9393 126.23L84.4407 126.795C84.4111 126.973 84.3307 127.17 84.1995 127.386C84.0683 127.602 83.8927 127.809 83.6727 128.008C83.4568 128.202 83.1987 128.365 82.8982 128.497C82.602 128.624 82.2677 128.687 81.8953 128.687C81.4298 128.687 81.0214 128.596 80.6702 128.414C80.3232 128.232 80.0524 127.989 79.8577 127.684C79.6673 127.375 79.5721 127.03 79.5721 126.649C79.5721 126.281 79.644 125.958 79.7879 125.678C79.9318 125.395 80.1391 125.16 80.41 124.974C80.6808 124.783 81.0066 124.639 81.3875 124.542C81.7684 124.445 82.1936 124.396 82.6634 124.396H84.0281ZM89.982 121.692V122.593H86.2686V121.692H89.982ZM87.5254 120.022H88.6997V126.859C88.6997 127.092 88.7357 127.267 88.8077 127.386C88.8796 127.504 88.9727 127.583 89.0869 127.621C89.2012 127.659 89.3239 127.678 89.4551 127.678C89.5524 127.678 89.654 127.669 89.7598 127.652C89.8698 127.631 89.9523 127.614 90.0074 127.602L90.0137 128.56C89.9206 128.59 89.7979 128.617 89.6455 128.643C89.4974 128.672 89.3176 128.687 89.106 128.687C88.8182 128.687 88.5537 128.63 88.3125 128.516C88.0713 128.401 87.8788 128.211 87.7349 127.944C87.5952 127.674 87.5254 127.31 87.5254 126.853V120.022ZM95.6692 127.386V123.85C95.6692 123.579 95.6142 123.344 95.5042 123.146C95.3984 122.942 95.2376 122.786 95.0218 122.676C94.8059 122.566 94.5393 122.511 94.2219 122.511C93.9257 122.511 93.6655 122.562 93.4412 122.663C93.2211 122.765 93.0476 122.898 92.9207 123.063C92.798 123.228 92.7366 123.406 92.7366 123.596H91.5623C91.5623 123.351 91.6258 123.107 91.7527 122.866C91.8797 122.625 92.0616 122.407 92.2986 122.212C92.5398 122.014 92.8276 121.857 93.1619 121.743C93.5004 121.624 93.8771 121.565 94.2918 121.565C94.7911 121.565 95.2312 121.65 95.6121 121.819C95.9972 121.988 96.2976 122.244 96.5135 122.587C96.7335 122.925 96.8435 123.351 96.8435 123.863V127.062C96.8435 127.291 96.8626 127.534 96.9007 127.792C96.943 128.05 97.0043 128.272 97.0847 128.458V128.56H95.8596C95.8004 128.425 95.7538 128.245 95.72 128.021C95.6861 127.792 95.6692 127.58 95.6692 127.386ZM95.8723 124.396L95.885 125.221H94.698C94.3637 125.221 94.0654 125.249 93.803 125.304C93.5406 125.354 93.3206 125.433 93.1428 125.539C92.9651 125.644 92.8297 125.778 92.7366 125.938C92.6435 126.095 92.5969 126.279 92.5969 126.491C92.5969 126.707 92.6456 126.903 92.7429 127.081C92.8403 127.259 92.9863 127.401 93.1809 127.506C93.3798 127.608 93.6232 127.659 93.9109 127.659C94.2706 127.659 94.588 127.583 94.8631 127.43C95.1381 127.278 95.3561 127.092 95.5169 126.872C95.6819 126.652 95.7708 126.438 95.7835 126.23L96.2849 126.795C96.2553 126.973 96.1749 127.17 96.0437 127.386C95.9125 127.602 95.7369 127.809 95.5169 128.008C95.301 128.202 95.0429 128.365 94.7425 128.497C94.4462 128.624 94.1119 128.687 93.7395 128.687C93.274 128.687 92.8657 128.596 92.5144 128.414C92.1674 128.232 91.8966 127.989 91.7019 127.684C91.5115 127.375 91.4163 127.03 91.4163 126.649C91.4163 126.281 91.4882 125.958 91.6321 125.678C91.776 125.395 91.9833 125.16 92.2542 124.974C92.525 124.783 92.8509 124.639 93.2317 124.542C93.6126 124.445 94.0379 124.396 94.5076 124.396H95.8723ZM100.227 118.81V128.56H99.0459V118.81H100.227ZM104.302 127.849L106.212 121.692H107.469L104.714 129.62C104.651 129.789 104.566 129.971 104.46 130.166C104.359 130.365 104.227 130.553 104.067 130.731C103.906 130.909 103.711 131.053 103.483 131.163C103.258 131.277 102.99 131.334 102.677 131.334C102.583 131.334 102.465 131.321 102.321 131.296C102.177 131.271 102.076 131.249 102.016 131.232L102.01 130.28C102.044 130.285 102.097 130.289 102.169 130.293C102.245 130.301 102.298 130.306 102.327 130.306C102.594 130.306 102.82 130.27 103.007 130.198C103.193 130.13 103.349 130.014 103.476 129.849C103.608 129.688 103.72 129.466 103.813 129.182L104.302 127.849ZM102.899 121.692L104.682 127.024L104.987 128.262L104.143 128.693L101.616 121.692H102.899ZM112.788 126.738C112.788 126.569 112.75 126.412 112.674 126.269C112.602 126.12 112.452 125.987 112.223 125.869C111.999 125.746 111.66 125.64 111.208 125.551C110.827 125.471 110.482 125.376 110.173 125.266C109.868 125.156 109.608 125.022 109.392 124.866C109.18 124.709 109.018 124.525 108.903 124.313C108.789 124.102 108.732 123.854 108.732 123.571C108.732 123.3 108.791 123.044 108.91 122.803C109.032 122.562 109.204 122.348 109.424 122.162C109.648 121.975 109.917 121.829 110.23 121.724C110.543 121.618 110.892 121.565 111.277 121.565C111.827 121.565 112.297 121.662 112.687 121.857C113.076 122.052 113.374 122.312 113.582 122.638C113.789 122.959 113.893 123.317 113.893 123.71H112.718C112.718 123.52 112.661 123.336 112.547 123.158C112.437 122.976 112.274 122.826 112.058 122.708C111.847 122.589 111.586 122.53 111.277 122.53C110.951 122.53 110.687 122.581 110.484 122.682C110.285 122.779 110.139 122.904 110.046 123.057C109.957 123.209 109.913 123.37 109.913 123.539C109.913 123.666 109.934 123.78 109.976 123.882C110.023 123.979 110.103 124.07 110.217 124.155C110.332 124.235 110.492 124.311 110.7 124.383C110.907 124.455 111.172 124.527 111.493 124.599C112.056 124.726 112.519 124.878 112.883 125.056C113.247 125.234 113.518 125.452 113.696 125.71C113.874 125.968 113.962 126.281 113.962 126.649C113.962 126.95 113.899 127.225 113.772 127.475C113.649 127.724 113.469 127.94 113.232 128.122C113 128.3 112.72 128.439 112.395 128.541C112.073 128.638 111.711 128.687 111.309 128.687C110.704 128.687 110.192 128.579 109.773 128.363C109.354 128.147 109.037 127.868 108.821 127.525C108.605 127.183 108.497 126.821 108.497 126.44H109.678C109.695 126.762 109.788 127.018 109.957 127.208C110.126 127.394 110.334 127.528 110.579 127.608C110.825 127.684 111.068 127.722 111.309 127.722C111.631 127.722 111.899 127.68 112.115 127.595C112.335 127.511 112.502 127.394 112.617 127.246C112.731 127.098 112.788 126.929 112.788 126.738ZM118.64 121.692V122.593H114.927V121.692H118.64ZM116.184 120.022H117.358V126.859C117.358 127.092 117.394 127.267 117.466 127.386C117.538 127.504 117.631 127.583 117.745 127.621C117.86 127.659 117.982 127.678 118.114 127.678C118.211 127.678 118.312 127.669 118.418 127.652C118.528 127.631 118.611 127.614 118.666 127.602L118.672 128.56C118.579 128.59 118.456 128.617 118.304 128.643C118.156 128.672 117.976 128.687 117.764 128.687C117.477 128.687 117.212 128.63 116.971 128.516C116.73 128.401 116.537 128.211 116.393 127.944C116.254 127.674 116.184 127.31 116.184 126.853V120.022ZM124.277 126.738C124.277 126.569 124.239 126.412 124.163 126.269C124.091 126.12 123.94 125.987 123.712 125.869C123.488 125.746 123.149 125.64 122.696 125.551C122.315 125.471 121.971 125.376 121.662 125.266C121.357 125.156 121.097 125.022 120.881 124.866C120.669 124.709 120.506 124.525 120.392 124.313C120.278 124.102 120.221 123.854 120.221 123.571C120.221 123.3 120.28 123.044 120.398 122.803C120.521 122.562 120.693 122.348 120.913 122.162C121.137 121.975 121.406 121.829 121.719 121.724C122.032 121.618 122.381 121.565 122.766 121.565C123.316 121.565 123.786 121.662 124.175 121.857C124.565 122.052 124.863 122.312 125.07 122.638C125.278 122.959 125.381 123.317 125.381 123.71H124.207C124.207 123.52 124.15 123.336 124.036 123.158C123.926 122.976 123.763 122.826 123.547 122.708C123.335 122.589 123.075 122.53 122.766 122.53C122.44 122.53 122.176 122.581 121.973 122.682C121.774 122.779 121.628 122.904 121.535 123.057C121.446 123.209 121.401 123.37 121.401 123.539C121.401 123.666 121.423 123.78 121.465 123.882C121.511 123.979 121.592 124.07 121.706 124.155C121.82 124.235 121.981 124.311 122.188 124.383C122.396 124.455 122.66 124.527 122.982 124.599C123.545 124.726 124.008 124.878 124.372 125.056C124.736 125.234 125.007 125.452 125.185 125.71C125.362 125.968 125.451 126.281 125.451 126.649C125.451 126.95 125.388 127.225 125.261 127.475C125.138 127.724 124.958 127.94 124.721 128.122C124.488 128.3 124.209 128.439 123.883 128.541C123.562 128.638 123.2 128.687 122.798 128.687C122.193 128.687 121.681 128.579 121.262 128.363C120.843 128.147 120.525 127.868 120.31 127.525C120.094 127.183 119.986 126.821 119.986 126.44H121.166C121.183 126.762 121.277 127.018 121.446 127.208C121.615 127.394 121.822 127.528 122.068 127.608C122.313 127.684 122.557 127.722 122.798 127.722C123.119 127.722 123.388 127.68 123.604 127.595C123.824 127.511 123.991 127.394 124.105 127.246C124.22 127.098 124.277 126.929 124.277 126.738Z" fill="white"/>
<mask id="mask0_1_368" style="mask-type:alpha" maskUnits="userSpaceOnUse" x="49" y="12" width="70" height="103">
<rect x="49.0002" y="12.1243" width="69" height="102" fill="#D9D9D9"/>
</mask>
<g mask="url(#mask0_1_368)">
<path d="M71.5539 46.0539C71.657 45.6604 71.6696 45.2375 71.5749 44.8125C71.2635 43.4301 69.9274 42.5442 68.5471 42.7757" stroke="white" stroke-width="0.9" stroke-linecap="round" stroke-linejoin="round"/>
<path d="M64.2278 42.9503C60.3015 42.5358 56.2932 40.7747 53.8714 39.0262C52.4806 38.0225 51.3928 37.0126 50.6669 36.2656C50.305 35.8932 49.2719 34.7086 49.0594 34.5592C46.1262 31.6177 43.1931 28.674 40.26 25.7325C40.1422 25.6126 39.9886 25.5011 39.8077 25.398C39.3742 25.0298 38.6188 24.4364 37.5921 23.8283C36.0119 22.9067 33.7542 21.9157 31.002 21.9073C28.3235 21.882 25.2642 22.9741 22.6425 25.6084C20.0018 28.2364 17.6831 32.2699 15.7179 38.3487C15.2676 39.7458 16.0356 41.2418 17.4306 41.6921C17.7021 41.7804 17.9777 41.8204 18.247 41.8204C19.3685 41.8204 20.4121 41.1029 20.774 39.9772C22.5646 34.4077 24.5972 31.1379 26.3814 29.381C28.1868 27.6283 29.626 27.2454 30.9999 27.2201C31.6248 27.2159 32.254 27.3295 32.8536 27.5084C27.5324 33.8901 24.5362 41.7426 21.7882 49.696C21.6956 49.9612 21.6409 50.2263 21.6094 50.4872C21.2748 51.5855 21.3905 52.8164 22.0386 53.8706C22.0386 53.8706 22.0449 53.8811 22.0617 53.9063C22.2616 54.2514 23.745 57.0561 23.7282 60.955C23.724 63.0234 23.341 65.4178 22.1333 68.1132C20.9192 70.8064 18.8635 73.8279 15.3728 77.0492C13.6875 78.6021 13.5802 81.228 15.1351 82.9154C15.9536 83.8034 17.0687 84.2536 18.1881 84.2536C19.1939 84.2536 20.2017 83.8896 21.0013 83.1553C25.2074 79.2796 27.9974 75.3239 29.708 71.5176C31.4208 67.7134 32.0351 64.0817 32.0309 60.955C32.0309 60.3512 32.0057 59.7662 31.9636 59.2023C31.9405 58.8783 32.2876 58.6637 32.5654 58.8278C33.4596 59.3601 34.7473 60.2354 35.9656 61.4579C37.0471 62.5352 38.076 63.865 38.8272 65.4557C39.5783 67.0548 40.077 68.9106 40.0812 71.2314C40.0812 73.2598 39.6877 75.6584 38.6231 78.5221C37.8214 80.6704 38.9134 83.0606 41.0617 83.8623C41.5393 84.0411 42.0296 84.1253 42.5114 84.1253C44.1947 84.1253 45.7791 83.0943 46.4019 81.4236C47.7716 77.7562 48.386 74.3455 48.3839 71.2314C48.3881 67.5577 47.5192 64.3216 46.2125 61.6578C44.2473 57.6495 41.3899 54.9331 39.0586 53.193C38.4379 52.7301 37.8509 52.3388 37.3206 52.0042C39.2858 45.0923 42.4483 42.6263 47.1573 40.2718C48.0389 41.1513 49.2445 42.2349 50.7595 43.3312C54.065 45.7193 59.5314 48.6335 65.85 48.078" stroke="white" stroke-width="0.9" stroke-linecap="round" stroke-linejoin="round"/>
<path d="M100.252 41.497C100.416 37.375 97.2076 33.9004 93.0855 33.7363C88.9635 33.5721 85.4889 36.7807 85.3247 40.9027C85.1606 45.0248 88.3692 48.4994 92.4912 48.6635C96.6132 48.8276 100.088 45.6191 100.252 41.497Z" stroke="white" stroke-width="0.9" stroke-linecap="round" stroke-linejoin="round"/>
<path d="M107.478 49.0627C105.061 48.1811 102.978 48.0885 102.069 48.0822C101.726 48.0359 101.417 48.038 101.168 48.0969C97.1642 49.0311 93.1601 49.9675 89.1582 50.9038C88.6742 50.9375 88.003 50.9711 87.1908 50.9711C84.8974 50.9732 81.4908 50.706 78.0633 49.5551C76.0581 48.8818 74.0613 47.9223 72.2181 46.5546C70.901 45.5783 69.6658 44.3916 68.5654 42.9461C68.5044 42.8662 68.4392 42.7904 68.3697 42.7189C67.4481 41.7531 65.929 41.6121 64.8412 42.439C64.6455 42.5863 64.4793 42.7589 64.3383 42.944C63.6313 43.8698 63.5934 45.1891 64.3341 46.1612C64.9106 46.9207 65.5187 47.6214 66.1499 48.2737C69.245 51.4761 72.9062 53.4371 76.3737 54.5944C80.5587 55.9915 84.4997 56.2818 87.1887 56.284C87.2308 56.284 87.2687 56.284 87.3108 56.284C89.924 60.4522 91.4432 63.8945 90.3386 69.5818C89.4927 69.0558 88.5753 68.5529 87.5843 68.1111C85.6969 67.2736 83.5234 66.6403 81.1163 66.6361C78.2043 66.6066 74.9892 67.6944 72.3696 70.0405C69.729 72.3782 67.608 75.7657 65.8785 80.4116C65.081 82.5599 66.1752 84.9501 68.3255 85.7476C68.8011 85.9243 69.2892 86.0085 69.7689 86.0085C71.4543 86.0085 73.0408 84.9754 73.6615 83.3005C75.0671 79.5026 76.6115 77.3564 77.8571 76.2686C79.1237 75.1913 80.0159 74.9662 81.1163 74.9367C82.0169 74.9325 83.0879 75.1934 84.2072 75.6921C85.8863 76.4327 87.599 77.6994 88.8152 78.7788C89.4254 79.3174 89.9177 79.8056 90.246 80.1444C90.4101 80.3148 90.5321 80.4473 90.6079 80.5315C90.6458 80.5736 90.6731 80.603 90.6857 80.6199C90.6878 80.6241 90.6899 80.6262 90.692 80.6262C90.692 80.6262 90.692 80.6283 90.6941 80.6304C91.7357 81.8424 94.6246 83.917 94.6246 85.0448C94.6162 90.6206 96.0848 98.5678 101.577 107.996C102.347 109.322 103.74 110.062 105.168 110.062C105.875 110.062 106.595 109.881 107.251 109.501C109.233 108.348 109.907 105.808 108.754 103.826C103.963 95.5653 102.934 89.2004 102.927 85.0469C102.927 83.0859 103.165 81.613 103.378 80.6809C103.485 80.2138 103.586 79.8835 103.649 79.692C103.681 79.5973 103.704 79.5384 103.712 79.5173V79.511C103.786 79.3343 103.843 79.1554 103.891 78.9766C104.005 78.7367 104.099 78.48 104.16 78.2044C105.964 70.3204 107.529 62.3942 106.635 54.4807C106.83 54.5796 107.024 54.6848 107.213 54.8027C108.236 55.4318 109.16 56.2882 109.883 57.6074C110.601 58.9288 111.138 60.7657 111.14 63.4463C111.14 65.361 110.858 67.6944 110.161 70.5034C109.808 71.9279 110.675 73.3692 112.099 73.7227C112.314 73.7753 112.528 73.8005 112.741 73.8005C113.934 73.8005 115.017 72.9925 115.318 71.7827C116.099 68.6329 116.452 65.8786 116.452 63.4463C116.457 60.0524 115.75 57.2645 114.548 55.0636C112.745 51.7433 109.902 49.9422 107.472 49.0627H107.478Z" stroke="white" stroke-width="0.9" stroke-linecap="round" stroke-linejoin="round"/>
<path opacity="0.7" d="M8.00024 85.1243H63.4732C67.0741 85.1243 70.0002 87.8486 70.0002 91.206V112.124H8.00024V85.1243Z" stroke="white" stroke-width="0.9" stroke-linecap="round" stroke-linejoin="round"/>
<path fill-rule="evenodd" clip-rule="evenodd" d="M66.4384 37.7112C66.5653 37.9333 66.7476 38.1262 66.9432 38.2901C67.1599 38.4751 67.411 38.631 67.6859 38.742C67.9528 38.8451 68.2409 38.9085 68.5317 38.8847C68.8277 38.861 69.1052 38.742 69.3351 38.5438L72.6574 34.4471H67.3265C66.9697 34.5106 66.6287 34.6744 66.3908 34.9572C66.182 35.211 66.0631 35.536 66.0208 35.8611C65.9785 36.1994 66.0023 36.5457 66.0842 36.8734C66.1556 37.1694 66.2666 37.4628 66.4358 37.7112H66.4384Z" fill="white"/>
<path fill-rule="evenodd" clip-rule="evenodd" d="M79.2303 34.9572C78.9951 34.6744 78.6435 34.5079 78.2867 34.4471H72.969L76.2965 38.5438C76.5186 38.7447 76.7961 38.8636 77.0974 38.8848C77.3802 38.9085 77.6736 38.8451 77.9405 38.742C78.2127 38.631 78.4638 38.4751 78.6832 38.2901C78.8788 38.1262 79.0638 37.9333 79.188 37.7113C79.3598 37.4628 79.4655 37.1694 79.5342 36.8734C79.6135 36.5457 79.6426 36.1968 79.595 35.8612C79.558 35.5361 79.4417 35.2136 79.2276 34.9572H79.2303Z" fill="white"/>
<path fill-rule="evenodd" clip-rule="evenodd" d="M72.8194 34.4735L70.4459 39.1463C70.3614 39.4186 70.3746 39.7199 70.4829 39.9815C70.5913 40.2353 70.779 40.4573 70.9983 40.6344C71.2203 40.8194 71.4741 40.9674 71.7463 41.0705C71.9868 41.1656 72.2511 41.2317 72.5101 41.2423C72.8247 41.274 73.1471 41.2423 73.4537 41.1735C73.7999 41.0942 74.1329 40.97 74.4342 40.7797C74.7118 40.6079 74.9681 40.3648 75.1135 40.0661C75.2668 39.7463 75.2747 39.3763 75.1743 39.0353L72.8194 34.4762V34.4735Z" fill="white"/>
<path fill-rule="evenodd" clip-rule="evenodd" d="M66.3921 33.4295C66.63 33.707 66.9709 33.8788 67.3277 33.9396H72.6587L69.3364 29.8403C69.1065 29.6447 68.8263 29.5205 68.5329 29.502C68.2422 29.4782 67.9541 29.539 67.6872 29.6473C67.4149 29.7583 67.1639 29.9116 66.9445 30.0993C66.7489 30.2605 66.5665 30.4561 66.4397 30.6728C66.2679 30.9212 66.1569 31.2252 66.0882 31.5159C66.0062 31.8437 65.9824 32.1872 66.0247 32.5282C66.067 32.8533 66.1859 33.181 66.3947 33.4321L66.3921 33.4295Z" fill="white"/>
<path fill-rule="evenodd" clip-rule="evenodd" d="M78.288 33.9397C78.6448 33.8789 78.9963 33.7071 79.2315 33.4296C79.443 33.1785 79.5593 32.8508 79.5989 32.5257C79.6439 32.1847 79.6174 31.8411 79.5381 31.5134C79.4694 31.2227 79.3637 30.9214 79.1919 30.6703C79.0677 30.4509 78.8827 30.258 78.6871 30.0967C78.4651 29.9064 78.2166 29.7558 77.9444 29.6448C77.6748 29.5364 77.3841 29.4783 77.1013 29.4994C76.8026 29.5179 76.5225 29.6395 76.3004 29.8377L72.9729 33.937H78.2906L78.288 33.9397Z" fill="white"/>
<path fill-rule="evenodd" clip-rule="evenodd" d="M72.8174 33.9053L75.1723 29.3461C75.2728 29.0025 75.2648 28.6325 75.1115 28.3153C74.9635 28.0193 74.7072 27.7788 74.4323 27.6044C74.131 27.4194 73.798 27.2899 73.4517 27.2079C73.1452 27.1366 72.8227 27.1048 72.5082 27.1366C72.2492 27.1498 71.9849 27.2185 71.7444 27.311C71.4721 27.422 71.2184 27.5621 70.9964 27.7524C70.777 27.9321 70.5894 28.1488 70.481 28.4052C70.3753 28.6722 70.3621 28.9655 70.444 29.243L72.8174 33.9079V33.9053Z" fill="white"/>
</g>
<line x1="48.4502" y1="13.1243" x2="48.4502" y2="112.124" stroke="white" stroke-width="0.9"/>
</svg>
