<svg width="31" height="31" viewBox="0 0 31 31" fill="none" xmlns="http://www.w3.org/2000/svg">
<path fill-rule="evenodd" clip-rule="evenodd" d="M2.81276 17.0199C2.88006 17.4462 3.05358 17.8639 3.26434 18.2377C3.49752 18.6611 3.80048 19.0585 4.16614 19.399C4.52754 19.7211 4.94464 19.995 5.42159 20.1304C5.90221 20.271 6.41425 20.2493 6.89925 20.0712L14.6083 15.5792L6.17292 12.3891C5.56919 12.2769 4.93117 12.3297 4.38841 12.6357C3.90661 12.9142 3.52156 13.353 3.26307 13.8433C2.99551 14.3527 2.82335 14.9169 2.75635 15.4853C2.69055 15.996 2.69112 16.5244 2.81214 17.0216L2.81276 17.0199Z" fill="white"/>
<path fill-rule="evenodd" clip-rule="evenodd" d="M24.7033 20.3168C24.4989 19.7282 24.0432 19.2543 23.5138 18.9455L15.0998 15.7634L17.9153 24.2356C18.1463 24.6845 18.5158 25.0396 18.9774 25.2554C19.4105 25.4622 19.9126 25.536 20.3977 25.5359C20.8966 25.5242 21.3841 25.4239 21.8473 25.2638C22.2542 25.1237 22.6618 24.9275 22.9933 24.6502C23.4146 24.3582 23.7565 23.9593 24.0435 23.5322C24.3662 23.0605 24.617 22.5261 24.7469 21.9646C24.8825 21.4278 24.8907 20.8466 24.7072 20.3164L24.7033 20.3168Z" fill="white"/>
<path fill-rule="evenodd" clip-rule="evenodd" d="M14.845 15.715L8.29178 21.6873C7.99608 22.068 7.83767 22.5513 7.84843 23.0329C7.86476 23.4998 8.03302 23.9661 8.2724 24.3732C8.51213 24.7991 8.8266 25.1859 9.19619 25.5111C9.51933 25.8056 9.89813 26.0668 10.3032 26.2388C10.7805 26.4773 11.3109 26.6199 11.8381 26.6919C12.4341 26.7749 13.0367 26.7762 13.6253 26.6561C14.1667 26.5518 14.7183 26.3165 15.1282 25.9358C15.5615 25.5229 15.7965 24.9412 15.841 24.3381L14.8424 15.7121L14.845 15.715Z" fill="white"/>
<path fill-rule="evenodd" clip-rule="evenodd" d="M5.30012 10.2182C5.5099 10.7976 5.94612 11.2735 6.47548 11.5823L14.9108 14.7724L12.1066 6.29512C11.8577 5.84888 11.4925 5.48228 11.0361 5.27781C10.5876 5.06701 10.0962 4.98978 9.6096 4.99867C9.11071 5.0104 8.62309 5.10131 8.16496 5.27267C7.75962 5.41343 7.35208 5.60953 7.02306 5.88029C6.60335 6.17294 6.24769 6.58345 5.96214 7.00175C5.63462 7.4716 5.39345 8.00034 5.25552 8.56811C5.12648 9.10741 5.12073 9.69708 5.2995 10.2198L5.30012 10.2182Z" fill="white"/>
<path fill-rule="evenodd" clip-rule="evenodd" d="M23.8217 18.1417C24.4213 18.2598 25.0813 18.1985 25.6203 17.9023C26.1068 17.6312 26.4878 17.1834 26.7413 16.6912C27.0179 16.1777 27.1794 15.617 27.2513 15.0505C27.3157 14.5485 27.3295 14.0068 27.2062 13.5107C27.1387 13.09 26.9629 12.6733 26.7505 12.2989C26.5139 11.8648 26.2095 11.4762 25.8438 11.1357C25.4832 10.8064 25.0577 10.535 24.5945 10.4029C24.1088 10.251 23.5965 10.2783 23.1253 10.4597L15.405 14.9567L23.819 18.1388L23.8217 18.1417Z" fill="white"/>
<path fill-rule="evenodd" clip-rule="evenodd" d="M15.1845 14.8154L21.6407 9.01056C22.007 8.52728 22.2129 7.93837 22.1635 7.34096C22.1064 6.78372 21.8477 6.24949 21.5133 5.80649C21.1491 5.33348 20.6973 4.9285 20.1996 4.59044C19.7567 4.29559 19.2647 4.05146 18.749 3.91449C18.329 3.78189 17.8703 3.73201 17.435 3.73408C16.9377 3.74643 16.451 3.81519 15.9869 3.98244C15.534 4.13516 15.1034 4.36749 14.7822 4.70675C14.4535 5.06568 14.2568 5.52134 14.2235 6.01067L15.1897 14.8117L15.1845 14.8154Z" fill="white"/>
</svg>
