<svg width="706" height="1395" viewBox="0 0 706 1395" fill="none" xmlns="http://www.w3.org/2000/svg">
<path fill-rule="evenodd" clip-rule="evenodd" d="M361.765 47.0696C339.264 60.1358 319.556 78.9896 303.131 98.9791C284.4 121.311 268.655 146.999 257.469 174.975C247.229 202.309 240.915 231.725 243.687 261.491C246.25 291.576 258.623 319.892 279.197 343.284L699.642 678.908L695.312 135.151C688.473 98.7623 671.612 64.0382 642.585 40.1854C616.432 19.1617 583.379 7.06605 550.18 3.21082C515.712 -0.739948 480.241 1.86641 446.824 10.4774C416.673 17.9005 386.977 29.4396 361.66 47.0704L361.765 47.0696Z" fill="#06B74B"/>
<path fill-rule="evenodd" clip-rule="evenodd" d="M653.134 1349.73C681.778 1325.42 698.498 1289.47 704.334 1252.99L700.015 710.602L284.972 1053.41C264.766 1076.17 252.846 1104.68 250.766 1135.33C248.566 1164.19 255.353 1194.03 265.922 1221.3C277.446 1249.1 293.703 1274.32 312.791 1296.88C329.533 1316.71 349.435 1335.35 372.246 1347.95C397.841 1365.28 427.713 1375.82 457.978 1382.66C491.526 1390.52 527.038 1392.99 561.434 1388.06C594.57 1384 627.43 1371.8 653.241 1349.94L653.134 1349.73Z" fill="#06B74B"/>
<path fill-rule="evenodd" clip-rule="evenodd" d="M697.173 695.119L218.664 456.717C190.817 448.383 160.196 450 133.349 461.094C107.452 472.18 84.8971 491.796 67.2231 514.119C48.4963 536.873 33.599 562.977 23.3633 590.84C13.841 615.422 7.40118 642.41 6.55608 668.93C3.5366 700.96 7.07336 733.889 14.5048 765.097C22.8141 800.418 35.8655 834.327 55.4388 864.804C73.0923 892.973 98.3334 918.863 128.662 933.621C161.319 948.994 199.139 949.538 234.018 938.909L697.276 694.907L697.173 695.119Z" fill="#06B74B"/>
</svg>
