<svg width="1632" height="806" viewBox="0 0 1632 806" fill="none" xmlns="http://www.w3.org/2000/svg">
<g filter="url(#filter0_d_255_3543)">
<path d="M402.305 787.949C297.283 787.949 198.431 746.979 123.947 672.643C-29.6084 518.765 -29.6084 268.713 123.845 115.192C277.095 -38.1759 526.699 -38.431 680.203 114.631L960.294 393.917L680.203 673.051C605.72 747.184 507.071 788 402.305 788V787.949ZM402.305 203.917C353.668 203.917 305.032 222.437 268.02 259.478C194.046 333.509 194.046 454.121 268.02 528.305C303.86 564.071 351.578 583.867 402.254 583.867C452.929 583.867 500.29 564.173 536.283 528.356L671.282 393.866L536.232 259.172C499.271 222.335 450.788 203.917 402.305 203.917Z" fill="url(#paint0_linear_255_3543)"/>
<path d="M1229.48 788C1124.79 788 1026.11 747.184 951.688 673.051L671.653 393.917L951.637 114.631C1105.16 -38.431 1354.66 -38.1759 1507.88 115.192C1582.2 189.376 1623.18 288.407 1623.18 393.866C1623.18 499.326 1582.25 598.152 1507.88 672.54C1433.31 746.979 1334.48 787.949 1229.48 787.949V788ZM960.506 393.917L1095.48 528.458C1131.41 564.224 1178.97 583.969 1229.43 583.969C1279.89 583.969 1327.8 564.173 1363.79 528.254C1399.52 492.489 1419.3 444.734 1419.3 393.968C1419.3 343.203 1399.57 295.396 1363.79 259.682C1289.83 185.651 1169.49 185.498 1095.53 259.274L960.506 393.917Z" fill="url(#paint1_linear_255_3543)"/>
</g>
<path d="M120.267 305.5C101.875 333.933 88.4357 366.527 81.6557 401.532C62.2291 496.187 97.7515 606.479 176.362 675.12C216.46 710.711 264.999 737.896 317.943 752.167C580.312 821.239 752.011 593.797 859.859 439.108C982.14 259.802 1187.19 30.2183 1412.08 162.275C1438.69 178.239 1463.37 198.127 1486.27 220.5C1467.42 194.627 1446.04 170.529 1421.15 149.601C1327.83 62.5681 1170.3 67.6736 1060.25 130.653C946.569 190.701 855.594 281.573 777.676 378.893C659.686 526.514 506.971 679.911 352.591 626.833C320.088 617.539 289.361 600.258 263.261 577.092C213.049 532.094 170.382 474.959 142.738 398.344C132.643 370.005 124.889 339.07 120.267 305.5Z" fill="#0AB548"/>
<path opacity="0.1" d="M1522.77 307.372C1541.16 335.805 1554.6 368.399 1561.38 403.404C1580.81 498.06 1545.28 608.351 1466.67 676.993C1426.58 712.583 1378.04 739.768 1325.09 754.04C1062.72 823.112 891.025 595.669 783.176 440.98C660.895 261.674 455.844 32.0906 230.96 164.147C204.341 180.111 179.661 199.999 156.768 222.372C175.615 196.5 196.998 172.401 221.888 151.474C315.208 64.4404 472.731 69.546 582.782 132.525C696.466 192.573 787.441 283.445 865.359 380.765C983.349 528.386 1136.06 681.783 1290.44 628.705C1322.95 619.412 1353.67 602.13 1379.77 578.964C1429.99 533.966 1472.65 476.832 1500.3 400.217C1510.39 371.878 1518.15 340.943 1522.77 307.372Z" fill="#09F519"/>
<g style="mix-blend-mode:color-dodge" opacity="0.8">
<path fill-rule="evenodd" clip-rule="evenodd" d="M1477.38 249.436C1476.96 250.503 1476.8 251.693 1476.78 252.832C1476.75 254.115 1476.91 255.431 1477.29 256.702C1477.69 257.924 1478.27 259.111 1479.19 260.06C1480.1 261.026 1481.3 261.662 1482.65 261.904L1506.34 261.94L1491.28 243.327C1490.05 242.261 1488.51 241.526 1486.86 241.501C1485.38 241.493 1483.91 241.983 1482.66 242.76C1481.37 243.569 1480.22 244.631 1479.3 245.844C1478.47 246.926 1477.76 248.138 1477.37 249.439L1477.38 249.436Z" fill="#08A03F"/>
<path fill-rule="evenodd" clip-rule="evenodd" d="M1523.12 286.325C1523.44 284.702 1523.04 283.006 1522.24 281.589L1507.22 263.022L1502.32 286.21C1502.25 287.548 1502.62 288.857 1503.39 289.97C1504.1 291.024 1505.15 291.866 1506.26 292.516C1507.42 293.158 1508.67 293.581 1509.95 293.835C1511.07 294.059 1512.27 294.156 1513.4 293.964C1514.76 293.86 1516.07 293.404 1517.3 292.81C1518.68 292.161 1519.97 291.272 1521.02 290.16C1522.05 289.111 1522.84 287.79 1523.13 286.33L1523.12 286.325Z" fill="#08A03F"/>
<path fill-rule="evenodd" clip-rule="evenodd" d="M1506.7 262.567L1483.68 267.471C1482.49 267.948 1481.48 268.843 1480.86 269.961C1480.27 271.053 1480.03 272.347 1480.03 273.601C1480.01 274.898 1480.21 276.206 1480.62 277.446C1480.97 278.554 1481.49 279.66 1482.19 280.597C1482.96 281.783 1483.98 282.821 1485.1 283.692C1486.35 284.681 1487.73 285.491 1489.24 286.005C1490.62 286.491 1492.2 286.691 1493.65 286.368C1495.2 286.003 1496.51 284.985 1497.42 283.662L1506.69 262.556L1506.7 262.567Z" fill="#08A03F"/>
<path fill-rule="evenodd" clip-rule="evenodd" d="M1492.19 237.183C1491.9 238.792 1492.26 240.467 1493.06 241.884L1508.11 260.498L1513.05 237.313C1513.07 235.957 1512.73 234.628 1511.96 233.548C1511.21 232.464 1510.19 231.628 1509.06 230.997C1507.9 230.355 1506.66 229.91 1505.38 229.689C1504.27 229.468 1503.07 229.371 1501.95 229.551C1500.6 229.659 1499.23 230.123 1498.02 230.699C1496.64 231.337 1495.38 232.226 1494.3 233.342C1493.28 234.405 1492.48 235.749 1492.19 237.186L1492.19 237.183Z" fill="#08A03F"/>
<path fill-rule="evenodd" clip-rule="evenodd" d="M1524.02 280.157C1525.23 281.231 1526.83 281.975 1528.46 282.018C1529.94 282.049 1531.41 281.533 1532.65 280.745C1533.97 279.939 1535.09 278.87 1536.02 277.668C1536.84 276.604 1537.6 275.382 1537.98 274.079C1538.39 273.025 1538.54 271.834 1538.56 270.692C1538.6 269.38 1538.42 268.081 1538.04 266.811C1537.65 265.573 1537.04 264.381 1536.16 263.458C1535.25 262.459 1534.04 261.835 1532.71 261.619L1509 261.58L1524.01 280.146L1524.02 280.157Z" fill="#08A03F"/>
<path fill-rule="evenodd" clip-rule="evenodd" d="M1508.68 260.961L1531.25 256.309C1532.74 255.693 1534 254.619 1534.69 253.184C1535.3 251.83 1535.43 250.26 1535.25 248.796C1535.05 247.224 1534.56 245.691 1533.87 244.249C1533.25 242.98 1532.45 241.761 1531.45 240.756C1530.67 239.89 1529.69 239.161 1528.68 238.582C1527.53 237.944 1526.32 237.449 1525.03 237.211C1523.79 236.954 1522.49 236.909 1521.3 237.256C1520.07 237.639 1519.01 238.419 1518.27 239.496L1508.7 260.959L1508.68 260.961Z" fill="#08A03F"/>
</g>
<defs>
<filter id="filter0_d_255_3543" x="5.72205e-05" y="0" width="1631.95" height="805.535" filterUnits="userSpaceOnUse" color-interpolation-filters="sRGB">
<feFlood flood-opacity="0" result="BackgroundImageFix"/>
<feColorMatrix in="SourceAlpha" type="matrix" values="0 0 0 0 0 0 0 0 0 0 0 0 0 0 0 0 0 0 127 0" result="hardAlpha"/>
<feOffset dy="8.76764"/>
<feGaussianBlur stdDeviation="4.38382"/>
<feComposite in2="hardAlpha" operator="out"/>
<feColorMatrix type="matrix" values="0 0 0 0 0 0 0 0 0 0 0 0 0 0 0 0 0 0 0.25 0"/>
<feBlend mode="normal" in2="BackgroundImageFix" result="effect1_dropShadow_255_3543"/>
<feBlend mode="normal" in="SourceGraphic" in2="effect1_dropShadow_255_3543" result="shape"/>
</filter>
<linearGradient id="paint0_linear_255_3543" x1="8.7677" y1="394" x2="960.294" y2="394" gradientUnits="userSpaceOnUse">
<stop stop-color="#03732C"/>
<stop offset="0.539115" stop-color="#06A33F"/>
<stop offset="1" stop-color="#03B544"/>
</linearGradient>
<linearGradient id="paint1_linear_255_3543" x1="671.653" y1="394" x2="1623.18" y2="394" gradientUnits="userSpaceOnUse">
<stop stop-color="#03732C"/>
<stop offset="0.539115" stop-color="#06A33F"/>
<stop offset="1" stop-color="#03B544"/>
</linearGradient>
</defs>
</svg>
