<svg width="1574" height="793" viewBox="0 0 1574 793" fill="none" xmlns="http://www.w3.org/2000/svg">
<path d="M211.438 30.4402C313.881 -14.2701 438.372 -15.8836 561.418 67.488C741.408 189.443 868.652 361.722 965.121 462.331C1017.01 516.448 1060.57 552.214 1104.01 571.687C1143.78 589.519 1188.74 596.069 1250.13 580.233C1279.07 572.771 1316.31 543.937 1343.15 493.063C1369.48 443.162 1376.72 388.599 1364.84 346.722L1462.48 319.016L1560.13 291.311C1589.25 393.934 1567.74 502.422 1522.69 587.795C1478.16 672.196 1401.4 750.862 1300.83 776.801C1196.48 803.714 1104.25 794.264 1020.96 756.924C941.335 721.225 875.955 662.647 818.596 602.827C696.565 475.56 604.058 341.59 447.549 235.545C386.407 194.117 336.147 197.503 292.638 216.493C243.11 238.109 198.728 282.788 171.967 325.452L0 217.581C42.2383 150.245 115.013 72.5237 211.438 30.4402Z" fill="#349E5B"/>
</svg>
